<svg width="340" height="190" viewBox="0 0 340 190" fill="none" xmlns="http://www.w3.org/2000/svg">
<g clip-path="url(#clip0_1_8)">
<path d="M324.872 189.532C306.478 189.532 30.3258 189.598 30.173 189.116L30.1469 189.055C30.1339 189.027 30.1251 188.996 30.1207 188.965C30.0189 188.724 -23.0559 167.22 11.9295 119.096C30.268 93.8787 -2.46412 55.271 36.5047 21.2047C97.5754 -32.1785 155.853 33.5745 180.556 21.2047C201.32 10.8073 234.688 -4.09147 268.559 9.26854C277.866 12.9403 298.015 31.3543 281.283 62.3222C272.921 77.7957 310.029 79.5921 323.602 96.0324C353.164 131.836 335.884 189.532 324.872 189.532Z" fill="#EBF3FA"/>
<g opacity="0.5">
<g opacity="0.5">
<path d="M221.82 78.2654C221.82 78.2654 218.274 50.001 228.192 30.1134C229.51 27.4707 233.409 27.9638 234.06 30.8474C234.071 30.8959 234.082 30.9444 234.091 30.9942C235.128 35.9346 224.594 60.5162 221.82 78.2654Z" fill="#AEC3FF"/>
</g>
<g opacity="0.5">
<path d="M222.069 86.5492C222.069 86.5492 227.494 48.7476 247.524 27.6051C248.745 26.3156 250.793 26.1577 252.119 27.3377C252.982 28.1064 253.633 29.4845 253.476 31.9264C253.077 38.436 231.578 65.4053 222.069 86.5492Z" fill="#AEC3FF"/>
</g>
</g>
<g opacity="0.4">
<path d="M42.5917 96.5893H54.4747C55.5207 96.5893 56.3687 95.7361 56.3687 94.6835L56.3687 44.3584C56.3687 43.3059 55.5207 42.4526 54.4747 42.4526H42.5917C41.5457 42.4526 40.6977 43.3059 40.6977 44.3584L40.6977 94.6835C40.6977 95.7361 41.5457 96.5893 42.5917 96.5893Z" fill="#8C9DF4"/>
<path d="M52.2076 84.9135C52.2079 84.1823 51.9927 83.4675 51.5892 82.8594C51.1857 82.2513 50.612 81.7773 49.9407 81.4973C49.2695 81.2173 48.5307 81.1439 47.818 81.2863C47.1053 81.4288 46.4505 81.7808 45.9366 82.2977C45.4227 82.8147 45.0727 83.4733 44.9308 84.1904C44.7889 84.9076 44.8616 85.6509 45.1396 86.3265C45.4176 87.002 45.8885 87.5794 46.4927 87.9857C47.0969 88.3919 47.8072 88.6088 48.5339 88.6088C49.508 88.6088 50.4422 88.2195 51.1311 87.5266C51.8201 86.8336 52.2073 85.8937 52.2076 84.9135V84.9135Z" fill="#505ABA"/>
<path d="M48.5339 89.0243C47.7305 89.0243 46.9452 88.7846 46.2772 88.3355C45.6092 87.8864 45.0886 87.248 44.7811 86.5012C44.4737 85.7543 44.3933 84.9325 44.55 84.1397C44.7067 83.3468 45.0936 82.6186 45.6617 82.047C46.2297 81.4753 46.9535 81.0861 47.7414 80.9284C48.5294 80.7707 49.3461 80.8516 50.0883 81.1609C50.8305 81.4703 51.4649 81.9942 51.9112 82.6663C52.3576 83.3385 52.5958 84.1287 52.5958 84.9371C52.5943 86.0206 52.1659 87.0594 51.4045 87.8255C50.643 88.5917 49.6107 89.0228 48.5339 89.0243ZM48.5339 81.6324C47.8843 81.6324 47.2493 81.8262 46.7092 82.1893C46.1692 82.5524 45.7482 83.0686 45.4996 83.6724C45.2511 84.2763 45.186 84.9407 45.3127 85.5818C45.4395 86.2228 45.7523 86.8117 46.2116 87.2738C46.6709 87.736 47.2561 88.0507 47.8931 88.1782C48.5302 88.3058 49.1906 88.2403 49.7907 87.9902C50.3908 87.7401 50.9037 87.3165 51.2646 86.773C51.6255 86.2296 51.8181 85.5907 51.8181 84.9371C51.8181 84.0603 51.4722 83.2195 50.8563 82.5993C50.2405 81.9791 49.4052 81.6303 48.5339 81.6296V81.6324Z" fill="white"/>
<path d="M44.6426 75.3609H52.421C52.8072 75.3609 53.1202 75.0459 53.1202 74.6573L53.1202 45.634C53.1202 45.2454 52.8072 44.9304 52.421 44.9304H44.6426C44.2564 44.9304 43.9434 45.2454 43.9434 45.634V74.6573C43.9434 75.0459 44.2564 75.3609 44.6426 75.3609Z" fill="#AEC3FF"/>
<path d="M45.5759 47.2517H51.3005C51.6084 47.2517 51.858 47.0006 51.858 46.6908V46.5925C51.858 46.2827 51.6084 46.0315 51.3005 46.0315H45.5759C45.268 46.0315 45.0184 46.2827 45.0184 46.5925V46.6908C45.0184 47.0006 45.268 47.2517 45.5759 47.2517Z" fill="#F99746"/>
<path d="M49.7052 65.4787V71.7502C49.7051 71.7903 49.7128 71.8301 49.7279 71.8672C49.743 71.9043 49.7653 71.9381 49.7935 71.9665C49.8216 71.995 49.855 72.0175 49.8919 72.0329C49.9287 72.0483 49.9682 72.0563 50.0081 72.0563V72.0563C50.0885 72.0559 50.1655 72.0235 50.2223 71.9661C50.279 71.9088 50.3109 71.8311 50.3109 71.7502V65.4787C50.3109 65.3978 50.279 65.3202 50.2223 65.2628C50.1655 65.2054 50.0885 65.173 50.0081 65.1727C49.9682 65.1727 49.9287 65.1806 49.8919 65.196C49.855 65.2114 49.8216 65.2339 49.7935 65.2624C49.7653 65.2908 49.743 65.3246 49.7279 65.3617C49.7128 65.3988 49.7051 65.4386 49.7052 65.4787Z" fill="#505ABA"/>
<path d="M49.7052 56.8486V63.1242C49.7051 63.1643 49.7128 63.204 49.7279 63.241C49.7431 63.2781 49.7654 63.3117 49.7935 63.3401C49.8217 63.3684 49.8551 63.3908 49.892 63.4061C49.9288 63.4213 49.9682 63.4291 50.0081 63.4289V63.4289C50.0478 63.4289 50.0872 63.421 50.1239 63.4057C50.1607 63.3904 50.1941 63.368 50.2222 63.3397C50.2503 63.3114 50.2726 63.2778 50.2878 63.2408C50.3031 63.2038 50.3109 63.1642 50.3109 63.1242V56.8486C50.3105 56.7679 50.2785 56.6906 50.2218 56.6336C50.1651 56.5765 50.0883 56.5443 50.0081 56.5439V56.5439C49.9683 56.5439 49.9289 56.5518 49.8922 56.5671C49.8554 56.5824 49.8221 56.6049 49.7939 56.6332C49.7658 56.6615 49.7435 56.695 49.7283 56.732C49.7131 56.769 49.7052 56.8086 49.7052 56.8486V56.8486Z" fill="#505ABA"/>
<path d="M46.2269 65.4787V71.7502C46.2269 71.8311 46.2588 71.9088 46.3155 71.9661C46.3723 72.0235 46.4493 72.0559 46.5297 72.0563C46.6104 72.0563 46.6878 72.024 46.7448 71.9666C46.8019 71.9092 46.8339 71.8314 46.8339 71.7502V65.4787C46.8339 65.4386 46.8261 65.3988 46.8108 65.3616C46.7955 65.3245 46.7731 65.2907 46.7448 65.2623C46.7166 65.2339 46.6831 65.2113 46.6462 65.196C46.6093 65.1806 46.5697 65.1727 46.5297 65.1727V65.1727C46.4493 65.173 46.3723 65.2054 46.3155 65.2628C46.2588 65.3202 46.2269 65.3978 46.2269 65.4787Z" fill="#505ABA"/>
<path d="M46.2269 56.8486V63.1242C46.2269 63.205 46.2588 63.2825 46.3156 63.3397C46.3724 63.3968 46.4494 63.4289 46.5297 63.4289V63.4289C46.6093 63.4278 46.6853 63.3952 46.7412 63.3382C46.7971 63.2812 46.8284 63.2043 46.8284 63.1242V56.8486C46.8281 56.7677 46.7959 56.6902 46.7389 56.6331C46.6818 56.576 46.6047 56.5439 46.5242 56.5439V56.5439C46.445 56.5457 46.3696 56.5786 46.3141 56.6355C46.2585 56.6924 46.2273 56.7689 46.2269 56.8486Z" fill="#505ABA"/>
<path d="M48.037 63.7087V71.7502C48.0368 71.7903 48.0445 71.8301 48.0596 71.8672C48.0748 71.9043 48.097 71.9381 48.1252 71.9665C48.1533 71.995 48.1868 72.0175 48.2236 72.0329C48.2604 72.0483 48.2999 72.0563 48.3398 72.0563V72.0563C48.3797 72.0563 48.4192 72.0483 48.456 72.0329C48.4928 72.0175 48.5263 71.995 48.5544 71.9665C48.5825 71.9381 48.6048 71.9043 48.62 71.8672C48.6351 71.8301 48.6428 71.7903 48.6426 71.7502V63.7087C48.643 63.6687 48.6355 63.629 48.6206 63.5919C48.6057 63.5547 48.5837 63.521 48.5559 63.4924C48.528 63.4639 48.4948 63.4411 48.4582 63.4255C48.4216 63.4098 48.3823 63.4016 48.3425 63.4012V63.4012C48.3023 63.4008 48.2624 63.4085 48.2252 63.4239C48.1879 63.4392 48.1541 63.4618 48.1257 63.4904C48.0972 63.5191 48.0747 63.5531 48.0595 63.5906C48.0443 63.628 48.0366 63.6682 48.037 63.7087V63.7087Z" fill="#505ABA"/>
<path d="M48.037 52.8597V60.9082C48.037 60.9482 48.0448 60.9878 48.06 61.0248C48.0752 61.0617 48.0976 61.0953 48.1257 61.1236C48.1538 61.1519 48.1872 61.1744 48.2239 61.1897C48.2607 61.205 48.3 61.2129 48.3398 61.2129V61.2129C48.3796 61.2129 48.4189 61.205 48.4557 61.1897C48.4924 61.1744 48.5258 61.1519 48.5539 61.1236C48.582 61.0953 48.6043 61.0617 48.6196 61.0248C48.6348 60.9878 48.6426 60.9482 48.6426 60.9082V52.8597C48.6428 52.8197 48.6351 52.78 48.6199 52.7429C48.6048 52.7059 48.5825 52.6722 48.5543 52.6439C48.5262 52.6155 48.4927 52.5931 48.4559 52.5779C48.4191 52.5626 48.3796 52.5548 48.3398 52.555V52.555C48.3 52.5548 48.2605 52.5626 48.2237 52.5779C48.1869 52.5931 48.1534 52.6155 48.1253 52.6439C48.0971 52.6722 48.0748 52.7059 48.0597 52.7429C48.0445 52.78 48.0368 52.8197 48.037 52.8597Z" fill="#505ABA"/>
<path d="M62.1346 96.5893H74.0176C75.0636 96.5893 75.9116 95.7361 75.9116 94.6835V44.3584C75.9116 43.3059 75.0636 42.4526 74.0176 42.4526H62.1346C61.0886 42.4526 60.2406 43.3059 60.2406 44.3584L60.2406 94.6835C60.2406 95.7361 61.0886 96.5893 62.1346 96.5893Z" fill="#8C9DF4"/>
<path d="M71.7506 84.9135C71.7508 84.1823 71.5356 83.4674 71.132 82.8593C70.7284 82.2511 70.1547 81.7771 69.4833 81.4971C68.812 81.2172 68.0732 81.1439 67.3604 81.2865C66.6477 81.429 65.9929 81.7811 65.4791 82.2982C64.9652 82.8153 64.6153 83.4741 64.4736 84.1913C64.3319 84.9085 64.4047 85.6519 64.683 86.3274C64.9612 87.0029 65.4323 87.5803 66.0366 87.9864C66.641 88.3924 67.3515 88.6091 68.0782 88.6088C69.0521 88.6084 69.9859 88.219 70.6745 87.5261C71.3632 86.8331 71.7502 85.8935 71.7506 84.9135V84.9135Z" fill="#505ABA"/>
<path d="M68.0782 89.0243C67.2748 89.0246 66.4893 88.7851 65.8211 88.3361C65.153 87.8872 64.6321 87.2489 64.3245 86.5021C64.0168 85.7553 63.9362 84.9335 64.0928 84.1405C64.2493 83.3476 64.6361 82.6192 65.2041 82.0474C65.7721 81.4757 66.4959 81.0863 67.2839 80.9285C68.0718 80.7706 68.8886 80.8515 69.6309 81.1608C70.3732 81.4701 71.0077 81.994 71.4541 82.6662C71.9005 83.3383 72.1387 84.1286 72.1387 84.937C72.1376 86.0205 71.7095 87.0592 70.9483 87.8255C70.1871 88.5917 69.1549 89.0228 68.0782 89.0243V89.0243ZM68.0782 81.6324C67.4286 81.6321 66.7935 81.8257 66.2532 82.1886C65.7129 82.5516 65.2918 83.0676 65.043 83.6714C64.7942 84.2753 64.7289 84.9398 64.8555 85.5809C64.9821 86.2221 65.2948 86.811 65.754 87.2733C66.2133 87.7356 66.7985 88.0505 67.4356 88.1781C68.0727 88.3058 68.7331 88.2404 69.3333 87.9903C69.9335 87.7402 70.4465 87.3167 70.8074 86.7732C71.1684 86.2297 71.361 85.5907 71.361 84.937C71.361 84.0606 71.0153 83.2199 70.3998 82.5998C69.7842 81.9796 68.9492 81.6307 68.0782 81.6296V81.6324Z" fill="white"/>
<path d="M64.1856 75.3609H71.9639C72.3501 75.3609 72.6631 75.0459 72.6631 74.6573V45.634C72.6631 45.2454 72.3501 44.9304 71.9639 44.9304H64.1856C63.7994 44.9304 63.4863 45.2454 63.4863 45.634V74.6573C63.4863 75.0459 63.7994 75.3609 64.1856 75.3609Z" fill="#AEC3FF"/>
<path d="M65.1188 47.2517H70.8435C71.1514 47.2517 71.4009 47.0006 71.4009 46.6908V46.5925C71.4009 46.2827 71.1514 46.0315 70.8435 46.0315H65.1188C64.8109 46.0315 64.5613 46.2827 64.5613 46.5925V46.6908C64.5613 47.0006 64.8109 47.2517 65.1188 47.2517Z" fill="#F99746"/>
<path d="M69.2482 65.4787V71.7502C69.248 71.7903 69.2557 71.8301 69.2708 71.8672C69.286 71.9043 69.3082 71.9381 69.3364 71.9665C69.3645 71.995 69.398 72.0175 69.4348 72.0329C69.4716 72.0483 69.5111 72.0563 69.551 72.0563V72.0563C69.5909 72.0563 69.6304 72.0483 69.6672 72.0329C69.704 72.0175 69.7375 71.995 69.7656 71.9665C69.7937 71.9381 69.816 71.9043 69.8312 71.8672C69.8463 71.8301 69.854 71.7903 69.8538 71.7502V65.4787C69.854 65.4386 69.8463 65.3988 69.8312 65.3617C69.816 65.3246 69.7937 65.2908 69.7656 65.2624C69.7375 65.2339 69.704 65.2114 69.6672 65.196C69.6304 65.1806 69.5909 65.1727 69.551 65.1727C69.5111 65.1727 69.4716 65.1806 69.4348 65.196C69.398 65.2114 69.3645 65.2339 69.3364 65.2624C69.3082 65.2908 69.286 65.3246 69.2708 65.3617C69.2557 65.3988 69.248 65.4386 69.2482 65.4787V65.4787Z" fill="#505ABA"/>
<path d="M69.2482 56.8486V63.1242C69.248 63.1643 69.2557 63.204 69.2708 63.241C69.286 63.2781 69.3083 63.3117 69.3365 63.3401C69.3646 63.3684 69.3981 63.3908 69.4349 63.4061C69.4717 63.4213 69.5112 63.4291 69.551 63.4289V63.4289C69.5908 63.4291 69.6303 63.4213 69.6671 63.4061C69.7039 63.3908 69.7374 63.3684 69.7655 63.3401C69.7937 63.3117 69.816 63.2781 69.8311 63.241C69.8463 63.204 69.854 63.1643 69.8538 63.1242V56.8486C69.8538 56.8086 69.846 56.769 69.8308 56.732C69.8155 56.695 69.7932 56.6615 69.7651 56.6332C69.737 56.6049 69.7036 56.5824 69.6669 56.5671C69.6301 56.5518 69.5908 56.5439 69.551 56.5439C69.5112 56.5439 69.4718 56.5518 69.4351 56.5671C69.3984 56.5824 69.365 56.6049 69.3369 56.6332C69.3087 56.6615 69.2864 56.695 69.2712 56.732C69.256 56.769 69.2482 56.8086 69.2482 56.8486Z" fill="#505ABA"/>
<path d="M65.7699 65.4787V71.7502C65.7699 71.8311 65.8017 71.9088 65.8585 71.9661C65.9152 72.0235 65.9922 72.0559 66.0727 72.0563C66.1534 72.0563 66.2307 72.024 66.2878 71.9666C66.3448 71.9092 66.3769 71.8314 66.3769 71.7502V65.4787C66.3769 65.4386 66.369 65.3988 66.3537 65.3616C66.3384 65.3245 66.316 65.2907 66.2878 65.2623C66.2595 65.2339 66.226 65.2113 66.1891 65.196C66.1522 65.1806 66.1126 65.1727 66.0727 65.1727V65.1727C65.9922 65.173 65.9152 65.2054 65.8585 65.2628C65.8017 65.3202 65.7699 65.3978 65.7699 65.4787V65.4787Z" fill="#505ABA"/>
<path d="M65.7699 56.8486V63.1242C65.7699 63.1642 65.7777 63.2038 65.7929 63.2408C65.8081 63.2778 65.8304 63.3114 65.8586 63.3397C65.8867 63.368 65.9201 63.3904 65.9568 63.4057C65.9935 63.421 66.0329 63.4289 66.0727 63.4289V63.4289C66.1528 63.4285 66.2294 63.3963 66.2859 63.3392C66.3424 63.2821 66.3741 63.2048 66.3741 63.1242V56.8486C66.3738 56.7677 66.3416 56.6902 66.2846 56.6331C66.2275 56.576 66.1504 56.5439 66.0699 56.5439V56.5439C65.9902 56.545 65.9141 56.5775 65.858 56.6345C65.8019 56.6915 65.7702 56.7684 65.7699 56.8486V56.8486Z" fill="#505ABA"/>
<path d="M67.5799 63.7087V71.7502C67.5799 71.8311 67.6118 71.9088 67.6685 71.9661C67.7253 72.0235 67.8023 72.0559 67.8827 72.0563V72.0563C67.9226 72.0563 67.9621 72.0483 67.9989 72.0329C68.0358 72.0175 68.0692 71.995 68.0973 71.9665C68.1255 71.9381 68.1478 71.9043 68.1629 71.8672C68.178 71.8301 68.1857 71.7903 68.1855 71.7502V63.7087C68.1863 63.6283 68.1555 63.551 68.0998 63.4934C68.0441 63.4358 67.9681 63.4027 67.8882 63.4012V63.4012C67.8478 63.4007 67.8077 63.4082 67.7702 63.4234C67.7328 63.4387 67.6987 63.4612 67.67 63.4899C67.6413 63.5185 67.6185 63.5526 67.6031 63.5902C67.5876 63.6277 67.5797 63.668 67.5799 63.7087V63.7087Z" fill="#505ABA"/>
<path d="M67.5799 52.8597V60.9082C67.5803 60.9889 67.6123 61.0661 67.669 61.1232C67.7257 61.1803 67.8025 61.2125 67.8827 61.2129V61.2129C67.9225 61.2129 67.9619 61.205 67.9986 61.1897C68.0354 61.1744 68.0687 61.1519 68.0969 61.1236C68.125 61.0953 68.1473 61.0617 68.1625 61.0248C68.1777 60.9878 68.1855 60.9482 68.1855 60.9082V52.8597C68.1857 52.8197 68.178 52.78 68.1629 52.7429C68.1477 52.7059 68.1254 52.6722 68.0973 52.6439C68.0691 52.6155 68.0357 52.5931 67.9988 52.5779C67.962 52.5626 67.9226 52.5548 67.8827 52.555C67.843 52.555 67.8036 52.5629 67.7668 52.5782C67.7301 52.5935 67.6967 52.616 67.6686 52.6443C67.6405 52.6726 67.6182 52.7062 67.603 52.7431C67.5877 52.7801 67.5799 52.8197 67.5799 52.8597Z" fill="#505ABA"/>
<path d="M82.052 96.5893H93.9349C94.981 96.5893 95.8289 95.7361 95.8289 94.6835V44.3584C95.8289 43.3059 94.981 42.4526 93.9349 42.4526H82.052C81.006 42.4526 80.158 43.3059 80.158 44.3584V94.6835C80.158 95.7361 81.006 96.5893 82.052 96.5893Z" fill="#8C9DF4"/>
<path d="M91.6665 84.9135C91.6668 84.1823 91.4515 83.4674 91.048 82.8593C90.6444 82.2511 90.0706 81.7771 89.3993 81.4971C88.7279 81.2172 87.9891 81.1439 87.2764 81.2865C86.5636 81.429 85.9089 81.7811 85.395 82.2982C84.8812 82.8153 84.5312 83.4741 84.3895 84.1913C84.2478 84.9085 84.3207 85.6519 84.5989 86.3274C84.8771 87.0029 85.3482 87.5803 85.9526 87.9864C86.5569 88.3924 87.2674 88.6091 87.9941 88.6088C88.968 88.6084 89.9019 88.219 90.5905 87.5261C91.2791 86.8331 91.6662 85.8935 91.6665 84.9135V84.9135Z" fill="#505ABA"/>
<path d="M87.9941 89.0243C87.1908 89.0243 86.4054 88.7846 85.7375 88.3355C85.0695 87.8864 84.5489 87.248 84.2414 86.5012C83.934 85.7543 83.8535 84.9325 84.0103 84.1397C84.167 83.3468 84.5539 82.6186 85.1219 82.047C85.69 81.4753 86.4138 81.0861 87.2017 80.9284C87.9896 80.7707 88.8064 80.8516 89.5486 81.1609C90.2908 81.4703 90.9252 81.9942 91.3715 82.6663C91.8178 83.3385 92.0561 84.1287 92.0561 84.9371C92.055 86.0207 91.6267 87.0597 90.8652 87.8259C90.1036 88.5922 89.0711 89.0232 87.9941 89.0243V89.0243ZM87.9941 81.6324C87.3445 81.6321 86.7094 81.8257 86.1691 82.1886C85.6289 82.5516 85.2077 83.0676 84.9589 83.6714C84.7101 84.2753 84.6449 84.9398 84.7715 85.5809C84.898 86.2221 85.2107 86.811 85.67 87.2733C86.1292 87.7356 86.7144 88.0505 87.3515 88.1781C87.9887 88.3058 88.6491 88.2404 89.2493 87.9903C89.8495 87.7402 90.3625 87.3167 90.7234 86.7732C91.0843 86.2297 91.277 85.5907 91.277 84.9371C91.277 84.0606 90.9313 83.2199 90.3157 82.5998C89.7002 81.9796 88.8652 81.6307 87.9941 81.6296V81.6324Z" fill="white"/>
<path d="M84.1015 75.3609H91.8799C92.2661 75.3609 92.5791 75.0459 92.5791 74.6573V45.634C92.5791 45.2454 92.2661 44.9304 91.8799 44.9304H84.1015C83.7153 44.9304 83.4023 45.2454 83.4023 45.634V74.6573C83.4023 75.0459 83.7153 75.3609 84.1015 75.3609Z" fill="#AEC3FF"/>
<path d="M85.0348 47.2517H90.7594C91.0673 47.2517 91.3169 47.0006 91.3169 46.6908V46.5925C91.3169 46.2827 91.0673 46.0315 90.7594 46.0315H85.0348C84.7269 46.0315 84.4773 46.2827 84.4773 46.5925V46.6908C84.4773 47.0006 84.7269 47.2517 85.0348 47.2517Z" fill="#F99746"/>
<path d="M89.1641 65.4787V71.7502C89.1641 71.8311 89.196 71.9088 89.2527 71.9661C89.3095 72.0235 89.3865 72.0559 89.4669 72.0563V72.0563C89.5068 72.0563 89.5463 72.0483 89.5831 72.0329C89.62 72.0175 89.6534 71.995 89.6816 71.9665C89.7097 71.9381 89.732 71.9043 89.7471 71.8672C89.7622 71.8301 89.7699 71.7903 89.7698 71.7502V65.4787C89.7699 65.4386 89.7622 65.3988 89.7471 65.3617C89.732 65.3246 89.7097 65.2908 89.6816 65.2624C89.6534 65.2339 89.62 65.2114 89.5831 65.196C89.5463 65.1806 89.5068 65.1727 89.4669 65.1727V65.1727C89.3865 65.173 89.3095 65.2054 89.2527 65.2628C89.196 65.3202 89.1641 65.3978 89.1641 65.4787Z" fill="#505ABA"/>
<path d="M89.1641 56.8486V63.1242C89.1641 63.205 89.196 63.2825 89.2528 63.3397C89.3096 63.3968 89.3866 63.4289 89.4669 63.4289C89.5071 63.4297 89.547 63.4223 89.5843 63.4073C89.6216 63.3923 89.6556 63.37 89.6842 63.3416C89.7128 63.3132 89.7354 63.2793 89.7508 63.242C89.7662 63.2047 89.7741 63.1646 89.7739 63.1242V56.8486C89.7739 56.8086 89.7661 56.769 89.7508 56.732C89.7356 56.6951 89.7133 56.6615 89.6852 56.6332C89.6571 56.6049 89.6237 56.5824 89.587 56.5671C89.5502 56.5518 89.5108 56.5439 89.4711 56.5439C89.431 56.5436 89.3913 56.5512 89.3541 56.5663C89.317 56.5814 89.2832 56.6038 89.2547 56.6321C89.2262 56.6604 89.2035 56.6941 89.1879 56.7313C89.1724 56.7684 89.1643 56.8083 89.1641 56.8486V56.8486Z" fill="#505ABA"/>
<path d="M85.6858 65.4787V71.7502C85.6858 71.8314 85.7179 71.9092 85.7749 71.9666C85.832 72.024 85.9093 72.0563 85.99 72.0563C86.0705 72.0559 86.1475 72.0235 86.2042 71.9661C86.261 71.9088 86.2928 71.8311 86.2928 71.7502V65.4787C86.2928 65.3978 86.261 65.3202 86.2042 65.2628C86.1475 65.2054 86.0705 65.173 85.99 65.1727C85.9501 65.1727 85.9105 65.1806 85.8736 65.196C85.8367 65.2113 85.8032 65.2339 85.7749 65.2623C85.7467 65.2907 85.7243 65.3245 85.709 65.3616C85.6937 65.3988 85.6858 65.4386 85.6858 65.4787Z" fill="#505ABA"/>
<path d="M85.6858 56.8486V63.1242C85.6858 63.1643 85.6937 63.2041 85.709 63.2411C85.7243 63.2782 85.7467 63.3118 85.775 63.3402C85.8033 63.3685 85.8368 63.3909 85.8737 63.4061C85.9106 63.4213 85.9501 63.4291 85.99 63.4289C86.0703 63.4289 86.1474 63.3968 86.2041 63.3397C86.2609 63.2825 86.2928 63.205 86.2928 63.1242V56.8486C86.2925 56.7679 86.2605 56.6906 86.2037 56.6336C86.147 56.5765 86.0702 56.5443 85.99 56.5439V56.5439C85.9096 56.5439 85.8324 56.576 85.7754 56.6331C85.7184 56.6902 85.6862 56.7677 85.6858 56.8486V56.8486Z" fill="#505ABA"/>
<path d="M87.4959 63.7087V71.7502C87.4959 71.8311 87.5277 71.9088 87.5845 71.9661C87.6412 72.0235 87.7182 72.0559 87.7987 72.0563V72.0563C87.8794 72.0563 87.9567 72.024 88.0138 71.9666C88.0708 71.9092 88.1029 71.8314 88.1029 71.7502V63.7087C88.1029 63.6275 88.0708 63.5496 88.0138 63.4922C87.9567 63.4348 87.8794 63.4026 87.7987 63.4026C87.7182 63.403 87.6412 63.4354 87.5845 63.4927C87.5277 63.5501 87.4959 63.6277 87.4959 63.7087V63.7087Z" fill="#505ABA"/>
<path d="M87.4959 52.8597V60.9082C87.4962 60.9889 87.5282 61.0661 87.585 61.1232C87.6417 61.1803 87.7185 61.2125 87.7987 61.2129V61.2129C87.8791 61.2129 87.9563 61.1808 88.0133 61.1237C88.0703 61.0666 88.1025 60.9891 88.1029 60.9082V52.8597C88.1029 52.8196 88.095 52.7799 88.0797 52.7428C88.0644 52.7057 88.042 52.6721 88.0137 52.6438C87.9854 52.6155 87.9519 52.5931 87.915 52.5778C87.8781 52.5626 87.8386 52.5548 87.7987 52.555V52.555C87.7589 52.555 87.7195 52.5629 87.6828 52.5782C87.6461 52.5935 87.6127 52.616 87.5846 52.6443C87.5564 52.6726 87.5341 52.7062 87.5189 52.7431C87.5037 52.7801 87.4959 52.8197 87.4959 52.8597V52.8597Z" fill="#505ABA"/>
<path d="M114.444 96.5893H102.56C102.058 96.5893 101.576 96.3887 101.222 96.0315C100.867 95.6744 100.667 95.19 100.667 94.6849V44.3584C100.667 43.853 100.867 43.3682 101.222 43.0108C101.577 42.6534 102.059 42.4526 102.561 42.4526H114.444C114.946 42.4526 115.428 42.6534 115.783 43.0108C116.139 43.3682 116.338 43.853 116.338 44.3584V94.6849C116.338 95.1901 116.138 95.6745 115.783 96.0316C115.428 96.3887 114.946 96.5893 114.444 96.5893V96.5893Z" fill="#8C9DF4"/>
<path d="M104.612 75.3609H112.39C112.777 75.3609 113.09 75.0459 113.09 74.6573V45.634C113.09 45.2454 112.777 44.9304 112.39 44.9304H104.612C104.226 44.9304 103.913 45.2454 103.913 45.634V74.6573C103.913 75.0459 104.226 75.3609 104.612 75.3609Z" fill="#AEC3FF"/>
<path d="M105.545 47.2517H111.27C111.578 47.2517 111.827 47.0006 111.827 46.6908V46.5925C111.827 46.2827 111.578 46.0315 111.27 46.0315H105.545C105.237 46.0315 104.988 46.2827 104.988 46.5925V46.6908C104.988 47.0006 105.237 47.2517 105.545 47.2517Z" fill="#F99746"/>
<path d="M122.356 96.5893H134.239C135.285 96.5893 136.133 95.7361 136.133 94.6835V44.3584C136.133 43.3059 135.285 42.4526 134.239 42.4526H122.356C121.31 42.4526 120.462 43.3059 120.462 44.3584V94.6835C120.462 95.7361 121.31 96.5893 122.356 96.5893Z" fill="#8C9DF4"/>
<path d="M124.407 75.3609H132.185C132.571 75.3609 132.885 75.0459 132.885 74.6573V45.634C132.885 45.2454 132.571 44.9304 132.185 44.9304H124.407C124.021 44.9304 123.708 45.2454 123.708 45.634V74.6573C123.708 75.0459 124.021 75.3609 124.407 75.3609Z" fill="#AEC3FF"/>
<path d="M125.339 47.2517H131.063C131.371 47.2517 131.621 47.0006 131.621 46.6908V46.5925C131.621 46.2827 131.371 46.0315 131.063 46.0315H125.339C125.031 46.0315 124.781 46.2827 124.781 46.5925V46.6908C124.781 47.0006 125.031 47.2517 125.339 47.2517Z" fill="#F99746"/>
<path d="M54.4747 157.822H42.5917C42.0894 157.822 41.6076 157.621 41.2524 157.263C40.8973 156.906 40.6977 156.421 40.6977 155.916L40.6977 105.586C40.6977 105.081 40.8971 104.597 41.252 104.24C41.607 103.883 42.0884 103.682 42.5903 103.682H54.4747C54.9767 103.682 55.4583 103.883 55.8134 104.24C56.1686 104.597 56.3683 105.081 56.3687 105.586L56.3687 155.917C56.3683 156.422 56.1686 156.907 55.8134 157.264C55.4583 157.621 54.9767 157.822 54.4747 157.822V157.822Z" fill="#8C9DF4"/>
<path d="M48.5339 149.842C50.5621 149.842 52.2063 148.188 52.2063 146.147C52.2063 144.106 50.5621 142.452 48.5339 142.452C46.5057 142.452 44.8615 144.106 44.8615 146.147C44.8615 148.188 46.5057 149.842 48.5339 149.842Z" fill="#505ABA"/>
<path d="M48.5339 150.254C47.7304 150.254 46.945 150.014 46.277 149.565C45.609 149.116 45.0884 148.477 44.781 147.73C44.4736 146.983 44.3932 146.162 44.5501 145.369C44.7069 144.576 45.0939 143.847 45.6621 143.276C46.2303 142.704 46.9542 142.315 47.7423 142.158C48.5303 142 49.3471 142.081 50.0893 142.391C50.8314 142.7 51.4657 143.224 51.9119 143.897C52.3581 144.569 52.5961 145.359 52.5958 146.168C52.5943 147.251 52.1659 148.29 51.4044 149.056C50.6429 149.822 49.6106 150.253 48.5339 150.254V150.254ZM48.5339 142.863C47.8843 142.863 47.2493 143.057 46.7092 143.42C46.1692 143.783 45.7482 144.299 45.4996 144.903C45.2511 145.507 45.186 146.172 45.3127 146.813C45.4395 147.454 45.7523 148.043 46.2116 148.505C46.6709 148.967 47.2561 149.282 47.8931 149.409C48.5302 149.537 49.1906 149.471 49.7907 149.221C50.3908 148.971 50.9037 148.547 51.2646 148.004C51.6255 147.46 51.8181 146.822 51.8181 146.168C51.8174 145.292 51.4711 144.452 50.8554 143.832C50.2396 143.212 49.4047 142.864 48.5339 142.863V142.863Z" fill="white"/>
<path d="M44.6426 136.593H52.421C52.8072 136.593 53.1202 136.278 53.1202 135.89L53.1202 106.866C53.1202 106.478 52.8072 106.163 52.421 106.163H44.6426C44.2564 106.163 43.9434 106.478 43.9434 106.866V135.89C43.9434 136.278 44.2564 136.593 44.6426 136.593Z" fill="#AEC3FF"/>
<path d="M45.5759 108.485H51.3005C51.6084 108.485 51.858 108.234 51.858 107.924V107.826C51.858 107.516 51.6084 107.265 51.3005 107.265H45.5759C45.268 107.265 45.0184 107.516 45.0184 107.826V107.924C45.0184 108.234 45.268 108.485 45.5759 108.485Z" fill="#F99746"/>
<path d="M49.7052 126.712V132.984C49.7051 133.024 49.7128 133.064 49.7279 133.101C49.7431 133.138 49.7654 133.171 49.7935 133.2C49.8217 133.228 49.8551 133.25 49.892 133.266C49.9288 133.281 49.9682 133.289 50.0081 133.289C50.0478 133.289 50.0872 133.281 50.1239 133.265C50.1607 133.25 50.1941 133.228 50.2222 133.199C50.2503 133.171 50.2726 133.137 50.2878 133.1C50.3031 133.063 50.3109 133.024 50.3109 132.984V126.712C50.3109 126.631 50.279 126.554 50.2223 126.496C50.1655 126.439 50.0885 126.407 50.0081 126.406V126.406C49.9682 126.406 49.9287 126.414 49.8919 126.43C49.855 126.445 49.8216 126.468 49.7935 126.496C49.7653 126.524 49.743 126.558 49.7279 126.595C49.7128 126.632 49.7051 126.672 49.7052 126.712Z" fill="#505ABA"/>
<path d="M49.7052 118.082V124.355C49.7052 124.395 49.7131 124.435 49.7283 124.472C49.7435 124.509 49.7658 124.542 49.7939 124.571C49.8221 124.599 49.8554 124.621 49.8922 124.637C49.9289 124.652 49.9683 124.66 50.0081 124.66C50.0883 124.659 50.1651 124.627 50.2218 124.57C50.2785 124.513 50.3105 124.436 50.3109 124.355V118.082C50.3109 118.042 50.3031 118.003 50.2878 117.966C50.2726 117.929 50.2503 117.895 50.2222 117.867C50.1941 117.838 50.1607 117.816 50.1239 117.801C50.0872 117.785 50.0478 117.778 50.0081 117.778V117.778C49.9682 117.777 49.9288 117.785 49.892 117.8C49.8551 117.816 49.8217 117.838 49.7935 117.866C49.7654 117.895 49.7431 117.928 49.7279 117.965C49.7128 118.002 49.7051 118.042 49.7052 118.082Z" fill="#505ABA"/>
<path d="M46.2269 126.712V132.984C46.2269 133.024 46.2348 133.063 46.25 133.1C46.2652 133.137 46.2875 133.171 46.3156 133.199C46.3437 133.228 46.3771 133.25 46.4139 133.265C46.4506 133.281 46.49 133.289 46.5297 133.289V133.289C46.5696 133.289 46.6092 133.281 46.6461 133.266C46.683 133.25 46.7165 133.228 46.7448 133.2C46.773 133.171 46.7955 133.138 46.8108 133.101C46.8261 133.064 46.8339 133.024 46.8339 132.984V126.712C46.8339 126.631 46.8019 126.553 46.7448 126.496C46.6878 126.439 46.6104 126.406 46.5297 126.406C46.4493 126.407 46.3723 126.439 46.3155 126.496C46.2588 126.554 46.2269 126.631 46.2269 126.712Z" fill="#505ABA"/>
<path d="M46.2269 118.082V124.355C46.2273 124.436 46.2593 124.513 46.316 124.57C46.3727 124.627 46.4495 124.659 46.5297 124.66C46.6102 124.66 46.6874 124.628 46.7444 124.571C46.8014 124.513 46.8336 124.436 46.8339 124.355V118.082C46.8339 118.042 46.8261 118.002 46.8108 117.965C46.7955 117.928 46.773 117.895 46.7448 117.866C46.7165 117.838 46.683 117.816 46.6461 117.8C46.6092 117.785 46.5696 117.777 46.5297 117.778C46.4494 117.778 46.3724 117.81 46.3156 117.867C46.2588 117.924 46.2269 118.001 46.2269 118.082Z" fill="#505ABA"/>
<path d="M48.037 124.942V132.984C48.0368 133.024 48.0445 133.064 48.0597 133.101C48.0748 133.138 48.0971 133.171 48.1253 133.2C48.1534 133.228 48.1869 133.25 48.2237 133.266C48.2605 133.281 48.3 133.289 48.3398 133.288V133.288C48.3796 133.289 48.4191 133.281 48.4559 133.266C48.4927 133.25 48.5262 133.228 48.5543 133.2C48.5825 133.171 48.6048 133.138 48.6199 133.101C48.6351 133.064 48.6428 133.024 48.6426 132.984V124.942C48.6428 124.902 48.6351 124.862 48.62 124.825C48.6048 124.788 48.5825 124.754 48.5544 124.726C48.5263 124.698 48.4928 124.675 48.456 124.66C48.4192 124.644 48.3797 124.636 48.3398 124.636V124.636C48.2999 124.636 48.2604 124.644 48.2236 124.66C48.1868 124.675 48.1533 124.698 48.1252 124.726C48.097 124.754 48.0748 124.788 48.0596 124.825C48.0445 124.862 48.0368 124.902 48.037 124.942V124.942Z" fill="#505ABA"/>
<path d="M48.037 114.093V122.135C48.0368 122.175 48.0445 122.215 48.0597 122.252C48.0748 122.289 48.0971 122.322 48.1253 122.351C48.1534 122.379 48.1869 122.401 48.2237 122.417C48.2605 122.432 48.3 122.44 48.3398 122.44V122.44C48.3796 122.44 48.4191 122.432 48.4559 122.417C48.4927 122.401 48.5262 122.379 48.5543 122.351C48.5825 122.322 48.6048 122.289 48.6199 122.252C48.6351 122.215 48.6428 122.175 48.6426 122.135V114.093C48.6428 114.053 48.6351 114.013 48.62 113.976C48.6048 113.939 48.5825 113.905 48.5544 113.877C48.5263 113.849 48.4928 113.826 48.456 113.811C48.4192 113.795 48.3797 113.787 48.3398 113.787V113.787C48.2999 113.787 48.2604 113.795 48.2236 113.811C48.1868 113.826 48.1533 113.849 48.1252 113.877C48.097 113.905 48.0748 113.939 48.0596 113.976C48.0445 114.013 48.0368 114.053 48.037 114.093V114.093Z" fill="#505ABA"/>
<path d="M74.0176 157.822H62.1333C61.6309 157.822 61.1492 157.621 60.794 157.263C60.4388 156.906 60.2393 156.421 60.2393 155.916L60.2393 105.586C60.2393 105.081 60.4387 104.597 60.7936 104.24C61.1485 103.883 61.6299 103.682 62.1319 103.682H74.0176C74.5197 103.682 75.0012 103.883 75.3564 104.24C75.7115 104.597 75.9112 105.081 75.9116 105.586V155.917C75.9112 156.422 75.7115 156.907 75.3564 157.264C75.0012 157.621 74.5197 157.822 74.0176 157.822Z" fill="#8C9DF4"/>
<path d="M71.7506 146.146C71.7506 145.415 71.5351 144.7 71.1313 144.092C70.7276 143.484 70.1537 143.01 69.4824 142.73C68.811 142.451 68.0723 142.377 67.3596 142.52C66.6469 142.663 65.9923 143.015 65.4786 143.532C64.9648 144.049 64.6151 144.708 64.4735 145.425C64.3319 146.143 64.4048 146.886 64.6831 147.561C64.9614 148.237 65.4325 148.814 66.0368 149.22C66.6411 149.626 67.3515 149.843 68.0782 149.842C69.0523 149.842 69.9864 149.452 70.675 148.759C71.3637 148.066 71.7506 147.126 71.7506 146.146V146.146Z" fill="#505ABA"/>
<path d="M68.0782 150.254C67.2747 150.254 66.4892 150.015 65.821 149.566C65.1528 149.117 64.6319 148.478 64.3243 147.731C64.0167 146.984 63.9362 146.162 64.0929 145.369C64.2495 144.577 64.6364 143.848 65.2046 143.276C65.7727 142.705 66.4966 142.315 67.2847 142.158C68.0728 142 68.8896 142.081 69.6319 142.391C70.3741 142.7 71.0085 143.224 71.4547 143.897C71.901 144.569 72.139 145.359 72.1387 146.168C72.1376 147.251 71.7095 148.29 70.9482 149.056C70.187 149.822 69.1548 150.253 68.0782 150.254ZM68.0782 142.863C67.4286 142.863 66.7935 143.057 66.2532 143.42C65.7129 143.782 65.2918 144.298 65.043 144.902C64.7942 145.506 64.7289 146.171 64.8555 146.812C64.9821 147.453 65.2948 148.042 65.754 148.504C66.2133 148.966 66.7985 149.281 67.4356 149.409C68.0727 149.537 68.7331 149.471 69.3333 149.221C69.9335 148.971 70.4465 148.548 70.8074 148.004C71.1684 147.461 71.361 146.822 71.361 146.168C71.3603 145.292 71.0142 144.452 70.3988 143.832C69.7833 143.213 68.9488 142.864 68.0782 142.863V142.863Z" fill="white"/>
<path d="M64.1856 136.593H71.9639C72.3501 136.593 72.6631 136.278 72.6631 135.89V106.866C72.6631 106.478 72.3501 106.163 71.9639 106.163H64.1856C63.7994 106.163 63.4863 106.478 63.4863 106.866V135.89C63.4863 136.278 63.7994 136.593 64.1856 136.593Z" fill="#AEC3FF"/>
<path d="M65.1188 108.485H70.8435C71.1514 108.485 71.4009 108.234 71.4009 107.924V107.826C71.4009 107.516 71.1514 107.265 70.8435 107.265H65.1188C64.8109 107.265 64.5613 107.516 64.5613 107.826V107.924C64.5613 108.234 64.8109 108.485 65.1188 108.485Z" fill="#F99746"/>
<path d="M69.2482 126.712V132.984C69.248 133.024 69.2557 133.064 69.2708 133.101C69.286 133.138 69.3083 133.171 69.3365 133.2C69.3646 133.228 69.3981 133.25 69.4349 133.266C69.4717 133.281 69.5112 133.289 69.551 133.289C69.5908 133.289 69.6303 133.281 69.6671 133.266C69.7039 133.25 69.7374 133.228 69.7655 133.2C69.7937 133.171 69.816 133.138 69.8311 133.101C69.8463 133.064 69.854 133.024 69.8538 132.984V126.712C69.854 126.672 69.8463 126.632 69.8312 126.595C69.816 126.558 69.7937 126.524 69.7656 126.496C69.7375 126.468 69.704 126.445 69.6672 126.43C69.6304 126.414 69.5909 126.406 69.551 126.406V126.406C69.5111 126.406 69.4716 126.414 69.4348 126.43C69.398 126.445 69.3645 126.468 69.3364 126.496C69.3082 126.524 69.286 126.558 69.2708 126.595C69.2557 126.632 69.248 126.672 69.2482 126.712V126.712Z" fill="#505ABA"/>
<path d="M69.2482 118.082V124.355C69.2482 124.436 69.2801 124.513 69.3369 124.571C69.3937 124.628 69.4707 124.66 69.551 124.66V124.66C69.6313 124.66 69.7083 124.628 69.7651 124.571C69.8219 124.513 69.8538 124.436 69.8538 124.355V118.082C69.854 118.042 69.8463 118.002 69.8311 117.965C69.816 117.928 69.7937 117.895 69.7655 117.866C69.7374 117.838 69.7039 117.816 69.6671 117.8C69.6303 117.785 69.5908 117.777 69.551 117.778V117.778C69.5112 117.777 69.4717 117.785 69.4349 117.8C69.3981 117.816 69.3646 117.838 69.3365 117.866C69.3083 117.895 69.286 117.928 69.2708 117.965C69.2557 118.002 69.248 118.042 69.2482 118.082Z" fill="#505ABA"/>
<path d="M65.7699 126.712V132.984C65.7699 133.024 65.7777 133.063 65.7929 133.1C65.8081 133.137 65.8304 133.171 65.8586 133.199C65.8867 133.228 65.9201 133.25 65.9568 133.265C65.9935 133.281 66.0329 133.289 66.0727 133.289V133.289C66.1126 133.289 66.1521 133.281 66.189 133.266C66.2259 133.25 66.2594 133.228 66.2877 133.2C66.316 133.171 66.3384 133.138 66.3537 133.101C66.369 133.064 66.3769 133.024 66.3769 132.984V126.712C66.3769 126.631 66.3448 126.553 66.2878 126.496C66.2307 126.439 66.1534 126.406 66.0727 126.406C65.9922 126.407 65.9152 126.439 65.8585 126.496C65.8017 126.554 65.7699 126.631 65.7699 126.712V126.712Z" fill="#505ABA"/>
<path d="M65.7699 118.082V124.355C65.7702 124.436 65.8023 124.513 65.859 124.57C65.9157 124.627 65.9925 124.659 66.0727 124.66C66.1531 124.66 66.2303 124.628 66.2873 124.571C66.3443 124.513 66.3765 124.436 66.3769 124.355V118.082C66.3769 118.042 66.369 118.002 66.3537 117.965C66.3384 117.928 66.316 117.895 66.2877 117.866C66.2594 117.838 66.2259 117.816 66.189 117.8C66.1521 117.785 66.1126 117.777 66.0727 117.778V117.778C66.0329 117.778 65.9935 117.785 65.9568 117.801C65.9201 117.816 65.8867 117.838 65.8586 117.867C65.8304 117.895 65.8081 117.929 65.7929 117.966C65.7777 118.003 65.7699 118.042 65.7699 118.082V118.082Z" fill="#505ABA"/>
<path d="M67.5799 124.942V132.984C67.5799 133.024 67.5877 133.063 67.603 133.1C67.6182 133.137 67.6405 133.171 67.6686 133.199C67.6967 133.228 67.7301 133.25 67.7668 133.265C67.8036 133.281 67.843 133.288 67.8827 133.288V133.288C67.9226 133.289 67.962 133.281 67.9988 133.266C68.0357 133.25 68.0691 133.228 68.0973 133.2C68.1254 133.171 68.1477 133.138 68.1629 133.101C68.178 133.064 68.1857 133.024 68.1855 132.984V124.942C68.1857 124.902 68.178 124.862 68.1629 124.825C68.1478 124.788 68.1255 124.754 68.0973 124.726C68.0692 124.698 68.0358 124.675 67.9989 124.66C67.9621 124.644 67.9226 124.636 67.8827 124.636V124.636C67.8023 124.637 67.7253 124.669 67.6685 124.726C67.6118 124.784 67.5799 124.861 67.5799 124.942V124.942Z" fill="#505ABA"/>
<path d="M67.5799 114.093V122.135C67.5799 122.216 67.6118 122.293 67.6686 122.35C67.7254 122.407 67.8024 122.44 67.8827 122.44V122.44C67.9226 122.44 67.962 122.432 67.9988 122.417C68.0357 122.401 68.0691 122.379 68.0973 122.351C68.1254 122.322 68.1477 122.289 68.1629 122.252C68.178 122.215 68.1857 122.175 68.1855 122.135V114.093C68.1857 114.053 68.178 114.013 68.1629 113.976C68.1478 113.939 68.1255 113.905 68.0973 113.877C68.0692 113.849 68.0358 113.826 67.9989 113.811C67.9621 113.795 67.9226 113.787 67.8827 113.787V113.787C67.8023 113.788 67.7253 113.82 67.6685 113.877C67.6118 113.935 67.5799 114.012 67.5799 114.093Z" fill="#505ABA"/>
<path d="M93.9349 157.822H82.0506C81.5485 157.822 81.067 157.621 80.7118 157.264C80.3567 156.907 80.157 156.422 80.1566 155.917V105.586C80.1566 105.081 80.356 104.597 80.7109 104.24C81.0659 103.883 81.5473 103.682 82.0492 103.682H93.9349C94.437 103.682 94.9185 103.883 95.2737 104.24C95.6289 104.597 95.8286 105.081 95.8289 105.586V155.917C95.8286 156.422 95.6289 156.907 95.2737 157.264C94.9185 157.621 94.437 157.822 93.9349 157.822V157.822Z" fill="#8C9DF4"/>
<path d="M114.444 157.822H102.56C102.058 157.822 101.576 157.621 101.222 157.264C100.867 156.907 100.667 156.422 100.667 155.917V105.586C100.667 105.081 100.867 104.597 101.222 104.24C101.576 103.883 102.058 103.682 102.56 103.682H114.444C114.946 103.682 115.428 103.883 115.783 104.24C116.138 104.597 116.338 105.081 116.338 105.586V155.917C116.338 156.422 116.138 156.907 115.783 157.264C115.428 157.621 114.946 157.822 114.444 157.822V157.822Z" fill="#8C9DF4"/>
<path d="M134.239 157.822H122.362C121.859 157.822 121.377 157.621 121.022 157.263C120.667 156.906 120.468 156.421 120.468 155.916V105.586C120.468 105.081 120.667 104.597 121.022 104.24C121.377 103.883 121.858 103.682 122.36 103.682H134.244C134.744 103.685 135.223 103.887 135.575 104.244C135.928 104.601 136.126 105.083 136.126 105.586V155.917C136.126 156.421 135.927 156.904 135.573 157.261C135.22 157.618 134.74 157.82 134.239 157.822V157.822Z" fill="#8C9DF4"/>
<path d="M36.5052 189.536C36.0056 189.535 35.5268 189.335 35.174 188.979C34.8212 188.623 34.6232 188.141 34.6235 187.639V36.8501C34.6235 36.3477 34.8217 35.8659 35.1745 35.5104C35.5273 35.1549 36.0059 34.9548 36.5052 34.954V34.954C36.7527 34.9539 36.9979 35.0028 37.2267 35.098C37.4555 35.1932 37.6634 35.3328 37.8385 35.5089C38.0136 35.685 38.1525 35.8941 38.2473 36.1242C38.3421 36.3544 38.3909 36.601 38.3909 36.8501V187.639C38.3911 187.888 38.3424 188.135 38.2477 188.365C38.153 188.595 38.0141 188.804 37.839 188.981C37.6638 189.157 37.4559 189.297 37.227 189.392C36.9981 189.487 36.7528 189.536 36.5052 189.536V189.536Z" fill="#BDD1F9"/>
<path d="M34.622 98.1184L143.478 98.1184V96.5963L34.622 96.5963V98.1184Z" fill="#BDD1F9"/>
<path d="M34.622 159.322L150.236 159.322V157.799H34.622V159.322Z" fill="#BDD1F9"/>
</g>
<path d="M265.96 87.185C265.96 87.185 255.611 96.2251 257.402 98.0588C259.192 99.8926 268.211 87.149 268.211 87.149C268.211 87.149 281.762 90.2196 285.317 93.6586C285.317 93.6586 271.067 99.1821 273.25 100.516C275.433 101.85 290.53 96.7957 290.53 96.7957C290.53 96.7957 302.066 102.938 298.96 110.23C295.853 117.523 290.883 118.438 289.097 117.625C287.312 116.812 277.846 109.064 277.11 110.513C276.373 111.962 281.26 119.1 285.747 120.854C285.747 120.854 274.002 127.56 269.177 122.902C264.353 118.244 265.297 113.708 262.265 110.884C259.232 108.06 256.183 107.055 257.11 109.222C258.036 111.39 263.963 115.152 264.818 119.462C265.673 123.772 266.7 126.829 261.068 123.969C255.437 121.109 247.235 113.555 248.446 108.419C248.5 108.195 248.55 107.981 248.599 107.776C248.521 107.983 248.469 108.199 248.446 108.419C247.14 108.231 243.831 109.665 241.391 110.843C241.001 111.063 240.435 111.348 239.641 111.714C239.297 111.89 239.016 112.037 238.815 112.139C233.722 115.078 228.785 123.219 228.785 123.219L227.531 122.674C231.126 113.363 239.987 110.423 239.987 110.423C246.431 107.628 249.652 103.279 249.652 103.279C249.652 103.279 244.468 90.606 254.423 86.9453C254.431 86.9467 261.352 85.3401 265.96 87.185Z" fill="#D2E2F9"/>
<path d="M303.45 161.693H312.351V132.798H303.45V161.693Z" fill="#35488B"/>
<path d="M281.985 161.693H303.451V132.798H281.985V161.693Z" fill="#2C3A64"/>
<path d="M309.388 136.406C309.388 136.111 309.3 135.822 309.137 135.576C308.974 135.33 308.742 135.139 308.471 135.026C308.199 134.912 307.901 134.883 307.613 134.94C307.325 134.998 307.06 135.14 306.852 135.349C306.644 135.558 306.503 135.825 306.446 136.115C306.388 136.405 306.418 136.705 306.53 136.978C306.643 137.251 306.833 137.485 307.077 137.649C307.321 137.813 307.609 137.901 307.902 137.901C308.296 137.901 308.674 137.743 308.953 137.463C309.231 137.183 309.388 136.803 309.388 136.406V136.406Z" fill="#DDE7FE"/>
<path d="M308.953 136.406C308.953 136.197 308.891 135.993 308.776 135.819C308.66 135.645 308.496 135.51 308.304 135.43C308.112 135.35 307.901 135.329 307.698 135.37C307.494 135.41 307.307 135.511 307.16 135.659C307.013 135.807 306.913 135.995 306.872 136.2C306.832 136.405 306.853 136.618 306.932 136.811C307.012 137.004 307.146 137.169 307.319 137.285C307.492 137.401 307.695 137.463 307.902 137.463C308.181 137.463 308.448 137.352 308.645 137.153C308.842 136.955 308.953 136.686 308.953 136.406V136.406Z" fill="#6C7AFF"/>
<path d="M305.776 147.618H309.963V140.007H305.776V147.618Z" fill="#8FADEF"/>
<path d="M286.845 161.693H295.747V132.798H286.845V161.693Z" fill="#35488B"/>
<path d="M265.379 161.693H286.845V132.798H265.379V161.693Z" fill="#2C3A64"/>
<path d="M292.782 136.406C292.782 136.111 292.695 135.822 292.532 135.576C292.369 135.33 292.137 135.139 291.865 135.026C291.594 134.912 291.295 134.883 291.007 134.94C290.719 134.998 290.454 135.14 290.247 135.349C290.039 135.558 289.897 135.825 289.84 136.115C289.783 136.405 289.812 136.705 289.925 136.978C290.037 137.251 290.227 137.485 290.472 137.649C290.716 137.813 291.003 137.901 291.297 137.901C291.691 137.901 292.068 137.743 292.347 137.463C292.626 137.183 292.782 136.803 292.782 136.406V136.406Z" fill="#DDE7FE"/>
<path d="M292.347 136.406C292.347 136.197 292.285 135.993 292.17 135.819C292.055 135.645 291.891 135.51 291.699 135.43C291.507 135.35 291.296 135.329 291.092 135.37C290.888 135.41 290.701 135.511 290.554 135.659C290.407 135.807 290.307 135.995 290.267 136.2C290.226 136.405 290.247 136.618 290.326 136.811C290.406 137.004 290.541 137.169 290.713 137.285C290.886 137.401 291.089 137.463 291.297 137.463C291.435 137.463 291.571 137.436 291.699 137.383C291.826 137.33 291.942 137.252 292.04 137.154C292.137 137.056 292.215 136.939 292.267 136.811C292.32 136.683 292.347 136.545 292.347 136.406V136.406Z" fill="#6C7AFF"/>
<path d="M289.169 147.618H293.356V140.007H289.169V147.618Z" fill="#8FADEF"/>
<path d="M271.662 161.693H280.563V132.798H271.662V161.693Z" fill="#35488B"/>
<path d="M250.197 161.693H271.663V132.798H250.197V161.693Z" fill="#2C3A64"/>
<path d="M277.6 136.406C277.6 136.11 277.513 135.821 277.35 135.575C277.187 135.329 276.955 135.137 276.683 135.023C276.411 134.91 276.112 134.88 275.824 134.938C275.535 134.995 275.27 135.137 275.062 135.347C274.854 135.556 274.713 135.822 274.655 136.112C274.598 136.403 274.627 136.704 274.74 136.977C274.852 137.25 275.043 137.484 275.287 137.648C275.532 137.813 275.819 137.901 276.113 137.901C276.507 137.901 276.885 137.743 277.164 137.463C277.443 137.183 277.599 136.803 277.6 136.406Z" fill="#DDE7FE"/>
<path d="M277.165 136.406C277.165 136.197 277.104 135.992 276.988 135.818C276.873 135.644 276.709 135.508 276.517 135.428C276.324 135.347 276.113 135.326 275.909 135.367C275.705 135.407 275.517 135.508 275.37 135.656C275.223 135.804 275.123 135.993 275.082 136.198C275.041 136.403 275.062 136.616 275.141 136.809C275.221 137.003 275.356 137.168 275.529 137.285C275.702 137.401 275.905 137.463 276.113 137.463C276.251 137.463 276.388 137.436 276.515 137.383C276.643 137.33 276.759 137.252 276.857 137.154C276.954 137.056 277.032 136.939 277.085 136.811C277.138 136.683 277.165 136.545 277.165 136.406V136.406Z" fill="#6C7AFF"/>
<path d="M273.987 147.618H278.174V140.007H273.987V147.618Z" fill="#8FADEF"/>
<path d="M248.859 189.003H299.151V151.614H248.859V189.003Z" fill="#F77D48"/>
<path d="M275.809 189.003H315.684V151.614H275.809V189.003Z" fill="#FF8C64"/>
<path d="M292.856 157.718H303.184C303.826 157.718 304.347 157.194 304.347 156.547V156.396C304.347 155.75 303.826 155.226 303.184 155.226H292.856C292.214 155.226 291.693 155.75 291.693 156.396V156.547C291.693 157.194 292.214 157.718 292.856 157.718Z" fill="#2C3A64"/>
<path d="M173.106 102.749L166.305 184.119C166.305 184.119 165.592 189.051 169.238 189.06C175.233 189.075 199.078 189.06 199.078 189.06C199.078 189.06 194.565 188.033 194.62 185.723C194.685 183 202.569 101.978 202.569 101.978L173.106 102.749Z" fill="#798EE8"/>
<path d="M201.322 187.58C200.144 187.58 177.059 187.623 171.22 187.548C168.677 187.517 168.231 185.272 168.209 183.819C168.2 183.414 168.226 183.009 168.286 182.608L168.463 180.493L168.913 175.103L169.312 170.341L169.823 164.22L170.254 159.056L175.087 101.236L204.551 100.467C204.551 100.467 201.23 134.374 198.881 159.054C198.619 161.804 198.369 164.441 198.14 166.902C198.063 167.688 197.991 168.455 197.922 169.204C197.705 171.539 197.509 173.684 197.332 175.575C197.241 176.572 197.157 177.5 197.08 178.345C196.781 181.669 196.605 183.799 196.602 184.204C196.601 184.424 196.62 184.645 196.66 184.862C197.138 187.464 200.88 187.58 201.322 187.58Z" fill="#AEC3FF"/>
<path d="M101.549 58.4359L118.117 125.392L120.385 134.563L128.1 165.749H271.446L243.007 58.4359H101.549Z" fill="#AEC3FF"/>
<path d="M101.549 58.4359L99.2536 59.2059L125.048 168.079L128.1 165.749L101.549 58.4359Z" fill="#798EE8"/>
<path d="M125.048 168.079H267.512L271.446 165.749H128.1L125.048 168.079Z" fill="#849DEF"/>
<path d="M175.077 189.057H205.922V187.582H175.077V189.057Z" fill="#AEC3FF"/>
<path d="M198.08 168.079L197.922 169.207L168.913 175.103L169.311 170.341L169.501 168.079H198.08Z" fill="#8C9DF4"/>
<g opacity="0.5">
<path d="M201.322 187.58C200.144 187.58 177.059 187.623 171.22 187.548C168.677 187.517 168.231 185.271 168.209 183.819L197.08 178.359C196.781 181.683 196.605 183.813 196.602 184.217C196.601 184.438 196.62 184.658 196.66 184.875C197.138 187.464 200.88 187.58 201.322 187.58Z" fill="#8C9DF4"/>
</g>
<path d="M101.549 58.4359H243.007L265.958 144.682H122.887L101.549 58.4359Z" fill="#8C9DF4"/>
<path d="M259.286 140.945H126.84L122.107 121.973L120.276 114.632L119.529 111.639L114.664 92.142L114.412 91.1268L111.841 80.8207L110.691 76.21L109.709 72.2765L108.908 69.0674L107.409 63.0563H237.947L239.594 69.0674L240.473 72.2765L241.55 76.21L242.814 80.8207L251.137 111.2V111.201L251.841 113.775L252.17 114.97L257.916 135.942L259.286 140.945Z" fill="#505ABA"/>
<path d="M93.6527 104.768C93.6527 104.768 93.9982 100.98 89.7987 100.98C89.7987 100.98 91.0733 101.328 91.7257 102.023C91.7257 102.023 89.043 100.438 86.1235 102.875C83.2041 105.311 85.0224 111.417 84.129 112.57C83.2357 113.722 79.7836 113.955 80.2061 117.711C80.6287 121.467 91.1793 126.16 90.502 129.259C90.502 129.259 94.6314 123.143 91.6803 120.352C91.6803 120.352 93.1214 121.718 93.2687 123.343C93.2687 123.343 93.6596 120.172 91.6555 119.158C89.8813 118.261 88.4277 114.98 88.5819 114.393C88.736 113.805 93.6527 104.768 93.6527 104.768Z" fill="#2C3A64"/>
<path d="M89.511 122.958C89.511 122.958 92.6534 136.041 95.7395 138.655C97.5936 140.228 103.106 143.834 103.106 143.834L100.813 144.665C100.813 144.665 93.1669 142.067 91.4532 140.041C89.7395 138.014 85.054 127.866 85.054 127.866L89.511 122.958Z" fill="#FFB27D"/>
<path d="M107.657 148.615L106.918 146.78C106.531 145.815 105.866 144.989 105.009 144.407C104.152 143.825 103.142 143.514 102.108 143.514H88.4814V189.349H144.838V152.208H112.949C111.812 152.208 110.7 151.866 109.757 151.226C108.814 150.586 108.083 149.677 107.657 148.615V148.615Z" fill="#F99746"/>
<path d="M59.9764 145.939C60.0039 145.989 60.0328 146.042 60.0631 146.093C60.7513 147.295 62.3273 150.248 64.0658 153.468C64.8917 154.992 65.7478 156.59 66.5641 158.09C67.9708 160.676 69.2509 162.979 69.997 164.197C70.7568 165.435 71.3156 166.305 71.5413 166.653C71.6049 166.761 71.6311 166.887 71.6157 167.011C71.5384 168.092 71.555 169.177 71.6652 170.255C72.7127 180.747 79.745 186.37 79.745 186.37L81.8345 186.68C81.8345 186.68 78.8765 175.651 78.0052 169.417C77.8579 168.36 77.7932 167.503 77.8455 166.945C77.9997 165.32 77.7079 162.935 77.1697 160.197C76.2062 155.331 74.4347 149.359 72.8958 144.578C72.798 144.273 69.8579 133.572 69.8579 133.572C67.39 135.741 58.3893 136.638 58.3893 136.638C58.3893 136.638 56.8656 140.373 59.9764 145.939Z" fill="#2F539B"/>
<path d="M86.224 189.343H77.4987C77.4987 189.343 77.2894 188.006 77.745 186.989C78.1827 186.019 78.8049 185.983 77.8249 184.457C78.3755 185.032 80.1649 185.269 81.4229 185.098C81.5771 185.35 82.4195 187.037 82.937 187.416C83.5055 187.828 86.0478 187.681 86.224 189.343Z" fill="#233862"/>
<path d="M59.9763 145.939C60.0039 145.989 60.0328 146.042 60.0631 146.093C60.7513 147.295 64.4677 154.208 66.2076 157.432C64.1938 149.097 65.5937 140.762 65.5937 140.762L59.9763 145.939Z" fill="#233862"/>
<path d="M92.4621 104.235C92.5199 104.005 87.4793 106.528 87.2233 106.814C84.8599 109.445 85.5344 112.895 86.8861 112.927C87.7546 112.949 87.5853 114.399 87.5853 114.399L97.2508 110.286C97.2508 110.286 96.0863 103.459 92.4621 104.235Z" fill="#2C3A64"/>
<path d="M89.2151 120.992C89.2151 120.992 90.6851 123.948 90.5021 126.348C90.5021 126.348 88.7292 129.164 84.1291 129.877C84.1304 129.883 88.0836 120.989 89.2151 120.992Z" fill="#6385DB"/>
<path d="M66.7774 137.293L66.8077 135.65C63.5565 136.065 55.5965 131.741 55.5965 131.741C55.5965 131.741 52.1952 134.017 51.73 140.518C51.5029 143.691 50.0645 157.111 49.9062 161.119C49.847 162.571 49.8277 163.612 49.8222 164.028C49.8144 164.153 49.766 164.271 49.6846 164.366C49.02 165.218 48.4305 166.128 47.9227 167.083C42.9606 176.371 45.5552 188.992 45.5552 188.992L46.7073 188.697C46.7073 188.697 50.9028 175.614 53.6447 169.954C54.1099 168.995 54.5325 168.248 54.8835 167.816C55.9144 166.556 57.0005 164.416 58.0727 161.841C60.1002 156.971 66.7774 137.293 66.7774 137.293Z" fill="#2F539B"/>
<path d="M52.4939 189.344H43.7686C43.7686 189.344 43.5594 188.006 44.015 186.989C44.4513 186.019 45.1354 185.572 44.9716 184.393C45.5222 184.968 46.4306 185.611 47.6915 185.44C47.8456 185.693 48.6894 187.042 49.2056 187.416C49.7754 187.828 52.3178 187.681 52.4939 189.344Z" fill="#233862"/>
<path d="M83.5399 131.762C82.3686 131.964 83.7313 132.901 82.1194 133.078C79.8262 133.33 77.4574 133.502 76.2158 134C75.7629 134.182 75.4601 134.406 75.3665 134.693C74.8283 136.32 71.4216 139.117 71.4216 139.117C56.2283 138.424 55.2496 131.607 55.2496 131.607C65.1105 121.971 73.5 116.718 80.4388 116.068C82.1263 115.911 84.4016 116.122 85.4683 116.6C87.8937 117.686 89.2219 120.992 89.2219 120.992C89.2219 120.992 87.9941 130.999 83.5399 131.762Z" fill="#739AF0"/>
<path d="M82.1194 133.078C79.8263 133.33 77.4574 133.502 76.2158 134C75.7093 126.383 79.2853 120.64 79.2853 120.64C79.2853 120.64 81.617 130.193 82.1194 133.078Z" fill="#6385DB"/>
<path d="M84.0988 119.356C84.0988 119.356 78.33 119.039 77.3046 122.681C76.2791 126.322 79.2316 140.874 79.8634 142.376C81.0196 145.11 86.8531 153.251 86.8531 153.251L88.7237 152.281C88.7237 152.281 84.9687 140.362 84.129 139.182C82.8131 137.323 85.8262 120.935 84.0988 119.356Z" fill="#FFB27D"/>
<path d="M88.7237 152.275C89.0349 152.553 89.3256 152.853 89.5936 153.173C89.9817 153.65 89.6404 153.823 90.7553 155.984C90.7553 155.984 90.6975 156.283 90.4552 156.229C90.213 156.175 89.3733 155.335 88.9411 155.398C88.9411 155.398 88.6328 155.653 88.5998 156.506C88.5681 157.297 88.5654 159.05 88.4277 159.378C88.2901 159.707 87.2963 157.999 86.7966 156.752C86.3644 155.669 86.7856 152.017 86.7856 152.017L88.7237 152.275Z" fill="#FFB27D"/>
<path d="M76.1662 127.552C76.1814 127.638 81.6266 128.56 85.032 126.82C85.032 126.82 87.8771 117.852 83.8111 118.282C79.745 118.711 77.3417 119.999 77.2357 121.958C77.1298 123.916 76.1662 127.552 76.1662 127.552Z" fill="#739AF0"/>
<path d="M85.3321 117.229C85.3913 117.955 85.4821 118.804 86.4263 119.783C87.1504 120.532 88.1951 121.117 88.9287 120.379C89.3574 119.961 89.7382 119.496 90.0643 118.994C90.6989 117.897 91.4545 116.778 91.4545 116.778L88.1896 113.899L87.9941 113.728C87.3997 114.825 86.5686 115.773 85.5619 116.505C85.339 116.674 85.3087 116.951 85.3321 117.229Z" fill="#FFB27D"/>
<path d="M91.4546 116.78C91.4546 116.78 90.6989 117.899 90.0643 118.996C88.0354 117.737 88.0327 115.21 88.1896 113.899L91.4546 116.78Z" fill="#ED985F"/>
<path d="M91.5454 118.224C91.5454 118.224 86.6163 115.463 88.3713 112.406C90.1263 109.35 90.6727 106.926 93.8936 108.559C97.1145 110.192 97.0498 111.711 96.7112 112.876C96.3726 114.041 92.8723 118.862 91.5454 118.224Z" fill="#FFB27D"/>
<path d="M97.544 111.086C97.3183 109.726 96.6314 109.598 96.1538 109.688C94.3327 106.66 91.3596 107.841 91.3596 107.841C90.3745 109.053 89.0013 109.883 87.4752 110.189C87.4752 110.189 88.0478 111.26 90.4043 111.923C91.1242 112.125 91.9404 112.002 92.7278 111.736C91.6759 112.31 90.551 112.736 89.3843 113.003C92.4896 113.29 95.4408 110.433 95.7505 110.128C95.8881 110.57 96.1441 111.498 95.9941 112.175C95.789 113.095 94.9769 114.764 95.4738 114.978C95.4738 114.978 97.8826 113.124 97.544 111.086Z" fill="#2C3A64"/>
<path d="M104.008 143.84C104.008 143.84 102.631 144.877 103.669 145.556C104.707 146.234 106.56 146.417 106.56 145.971C106.59 144.478 105.85 143.416 104.008 143.84Z" fill="#FFB27D"/>
<path d="M336.18 189.066H15.3089C15.0991 189.066 14.929 189.238 14.929 189.449V189.616C14.929 189.827 15.0991 189.999 15.3089 189.999H336.18C336.39 189.999 336.56 189.827 336.56 189.616V189.449C336.56 189.238 336.39 189.066 336.18 189.066Z" fill="#233862"/>
<path d="M136.94 85.9841L135.717 84.1698C134.408 82.2238 132.185 80.9496 130.099 80.9496H116.663L118.995 89.5284L128.246 123.57C128.447 124.312 128.886 124.967 129.494 125.434C130.101 125.901 130.845 126.154 131.61 126.154H179.961C180.497 126.154 181.026 126.029 181.506 125.79C181.987 125.551 182.406 125.204 182.731 124.775C183.057 124.346 183.28 123.848 183.383 123.318C183.485 122.789 183.466 122.243 183.325 121.722L174.576 89.5312H143.123C140.828 89.5284 138.381 88.1268 136.94 85.9841Z" fill="#F99746"/>
<path d="M138.334 75.7723C138.236 75.8788 138.172 76.0115 138.147 76.1542C138.123 76.297 138.14 76.4438 138.196 76.577V76.577C138.389 77.113 139.022 77.7127 139.765 78.3097C139.857 78.3872 139.941 78.4579 140.017 78.5216L140.075 78.5728L140.118 78.613C140.806 79.2529 140.549 79.3997 141.787 80.6989C143.201 82.1795 144.174 82.2058 144.451 82.0714C144.685 81.9565 144.209 81.1711 143.683 80.2889L143.606 80.1601L143.395 79.8055C142.778 78.7432 142.937 78.246 143.084 76.6656C143.204 75.3817 145.072 69.4926 145.072 69.4926L142.363 69.023C142.363 69.023 141.545 73.7114 140.646 74.4344C140.166 74.818 139.628 74.8236 139.165 75.1089L139.07 75.1698C138.799 75.3368 138.552 75.5395 138.334 75.7723V75.7723Z" fill="#FFB27D"/>
<path d="M138.334 75.7723C138.236 75.8788 138.172 76.0115 138.147 76.1542C138.123 76.297 138.14 76.4438 138.196 76.577V76.577C138.433 77.113 139.054 77.7086 139.768 78.3055C139.862 78.3831 139.944 78.4551 140.017 78.5216L140.075 78.5728L140.118 78.613C140.806 79.2529 140.549 79.3997 141.787 80.6989C143.201 82.1795 144.174 82.2058 144.451 82.0714C144.685 81.9565 144.209 81.1711 143.683 80.2889C142.694 79.9002 141.824 79.2551 141.163 78.4191C140.337 77.3665 139.786 76.0244 139.229 75.1989L139.07 75.1698C138.799 75.3368 138.552 75.5395 138.334 75.7723Z" fill="#233862"/>
<path d="M160.177 74.0784C160.345 74.9191 161.535 74.7792 162.868 74.4524C164.2 74.1255 163.884 74.5147 165.778 74.3042C167.672 74.0936 168.248 73.3831 168.306 73.0992C168.357 72.8485 167.421 72.7585 166.416 72.6421L166.036 72.5964C164.902 72.4579 164.072 71.7155 163.043 71.1103C162.067 70.5383 160.612 68.2017 160.612 68.2017L158.013 68.4081C158.013 68.4081 159.376 70.4926 159.903 71.3998C160.213 71.933 160.196 72.638 160.158 73.1823C160.124 73.4805 160.13 73.7819 160.177 74.0784Z" fill="#FFB27D"/>
<path d="M162.864 74.4524C164.196 74.1255 163.88 74.5147 165.774 74.3042C167.668 74.0936 168.244 73.3831 168.302 73.0992C168.353 72.8485 167.417 72.7585 166.412 72.6421L166.403 72.6615C165.591 73.1866 164.654 73.4805 163.69 73.5119C162.403 73.5438 161.041 73.1726 160.154 73.1864C160.12 73.4842 160.127 73.7851 160.173 74.0812C160.345 74.9191 161.535 74.7792 162.864 74.4524Z" fill="#233862"/>
<path d="M150.222 57.3514L147.79 63.9303L144.616 72.5175C144.05 72.5595 143.48 72.5067 142.931 72.361C142.171 72.1407 141.302 71.5632 141.302 71.5632C141.302 71.5632 142.185 62.3403 143.83 57.0467C144.251 55.688 144.723 54.5883 145.245 53.9691C147.793 50.9428 150.222 57.3514 150.222 57.3514Z" fill="#ED7D2B"/>
<path d="M147.756 46.9027C146.379 46.454 142.765 46.8944 138.85 47.6063C138.322 47.7021 137.777 47.6342 137.287 47.4117C136.798 47.1891 136.387 46.8223 136.11 46.3598V46.3598L126.258 45.5814C126.258 45.5814 123.006 52.8348 124.784 57.4566C125.046 58.1353 125.62 58.5647 126.505 58.5744C126.505 58.5744 132.458 58.5854 134.361 58.5854C139.26 58.5854 144.73 55.2004 145.438 55.0592C146.595 54.8265 147.058 57.1561 148.214 59.6034C149.37 62.0508 159.088 70.4441 159.088 70.4441C159.088 70.4441 160.584 70.4593 161.201 70.2266C161.866 69.9759 162.108 69.6505 162.108 69.6505C162.108 69.6505 151.346 48.0703 147.756 46.9027Z" fill="#F99746"/>
<path d="M135.073 17.2533C134.505 16.9133 133.852 16.7419 133.191 16.7589C132.888 16.7675 132.584 16.7489 132.283 16.7035C128.523 16.1495 126.257 21.6425 126.125 23.3018C125.88 26.3488 124.276 26.8142 122.02 28.7228C117.496 32.5482 118.821 36.997 121.293 38.6507C122.777 39.6424 125.392 38.6507 125.392 38.6507C125.43 38.677 132.55 34.6507 136.056 32.7075C141.315 31.961 137.185 18.5262 135.073 17.2533Z" fill="#233862"/>
<path d="M133.116 31.0538C133.132 31.0649 131.39 31.6618 130.225 31.1424C129.124 30.6549 128.298 28.8419 128.316 28.8405C128.814 28.817 129.362 28.3793 129.785 25.5026L129.997 25.5801L133.563 26.8724C133.563 26.8724 133.304 28.0247 133.138 29.1217C132.995 30.0413 132.922 30.9236 133.116 31.0538Z" fill="#FFB27D"/>
<path d="M133.564 26.8724C133.564 26.8724 133.427 27.4943 133.215 28.6549C131.165 28.2837 130.286 26.6951 129.998 25.5801L133.564 26.8724Z" fill="#ED975D"/>
<path d="M134.096 28.0164C134.096 28.0164 129.215 27.3557 129.67 24.3031C130.126 21.2505 129.808 19.1107 132.94 19.4029C136.071 19.6951 136.505 20.9514 136.6 22.0081C136.695 23.0649 135.377 28.1092 134.096 28.0164Z" fill="#FFB27D"/>
<path d="M136.422 20.335C136.422 20.335 133.296 23.0428 131.171 23.2616C129.046 23.4804 128.24 22.7921 128.24 22.7921C129.089 22.0288 129.773 21.0976 130.249 20.0566C130.358 19.811 130.53 19.5992 130.748 19.4433C130.966 19.2875 131.221 19.1931 131.487 19.1702C132.995 19.04 135.876 18.9805 136.422 20.335Z" fill="#233862"/>
<path d="M134.469 20.0913C134.469 20.0913 135.514 21.1093 135.845 21.8627C136.163 22.5912 136.258 24.3322 136.004 25.0234C136.004 25.0234 137.633 21.8378 136.712 20.2893C135.732 18.6467 134.469 20.0913 134.469 20.0913Z" fill="#233862"/>
<path d="M137.224 38.2906C137.073 48.2323 137.18 46.1548 136.1 47.098C135.838 47.3251 135.108 47.4609 134.143 47.5246C131.114 47.7254 125.788 47.2213 125.585 46.6575C124.887 44.7088 125.381 44.1022 124.799 41.1174C124.739 40.8003 124.662 40.4568 124.575 40.0828C124.09 38.033 123.611 37.3349 125.343 34.0427C126.908 31.0607 128.534 28.6411 128.679 28.7269C132.809 31.1937 133.138 29.1217 133.138 29.1217C133.138 29.1217 137.297 33.4416 137.224 38.2906Z" fill="#2F539B"/>
<path d="M147.79 63.9303L144.616 72.5175C144.05 72.5595 143.48 72.5067 142.931 72.361C142.171 72.1407 141.302 71.5632 141.302 71.5632C141.302 71.5632 142.185 62.3403 143.83 57.0467L147.79 63.9303Z" fill="#F99746"/>
<path d="M133.139 29.1217C133.139 29.1217 137.384 29.8474 137.882 31.6868C138.381 33.5261 140.017 44.6922 140.017 44.6922C140.017 44.6922 138.82 45.8681 137.823 44.8639C136.827 43.8598 134.689 34.4167 134.689 34.4167L133.139 29.1217Z" fill="#2F539B"/>
<path d="M134.143 47.5246C131.114 47.7254 125.788 47.2213 125.585 46.6576C124.887 44.7088 125.381 44.1022 124.799 41.1174L126.262 36.9776C126.262 36.9776 126.019 41.5883 127.364 42.7947C128.708 44.0011 132.896 45.1382 133.558 46.1506C133.843 46.564 134.042 47.0315 134.143 47.5246V47.5246Z" fill="#233862"/>
<path d="M130.673 45.5841C130.673 45.5841 133.662 44.9152 134.144 45.1825C134.626 45.4498 135.805 46.4221 135.953 46.76C136.1 47.098 134.879 46.5024 134.481 46.3958C134.224 46.3251 133.547 46.562 133.212 46.6728C131.801 47.1465 130.937 46.9027 130.937 46.9027L130.673 45.5841Z" fill="#FFB27D"/>
<path d="M128.677 28.7256C128.677 28.7256 124.663 28.9721 123.273 30.9222C121.317 33.666 117.432 45.3612 119.655 46.9221C122.159 48.6811 131.052 47.3861 131.052 47.3861C131.052 47.3861 131.348 46.0011 130.937 45.321C130.525 44.641 123.836 43.5579 123.526 43.2435C123.216 42.9291 127.388 37.1853 127.388 36.2532C127.388 35.3211 128.677 28.7256 128.677 28.7256Z" fill="#2F539B"/>
<path d="M134.289 46.0191C134.289 46.0191 134.915 46.8321 135.114 46.929C135.218 46.9853 135.335 47.0107 135.452 47.0024L135.03 46.2379L134.289 46.0191Z" fill="#FFB27D"/>
<path d="M134.144 45.1825L135.965 46.0717C135.929 46.1162 135.883 46.1505 135.83 46.1712C135.777 46.1918 135.72 46.1981 135.664 46.1894C135.394 46.142 135.129 46.0687 134.874 45.9706L134.144 45.1825Z" fill="#FFB27D"/>
<path d="M149.691 47.2794L130.671 47.2725V47.6949L149.523 47.7019L149.691 47.2794Z" fill="#233862"/>
<path d="M135.119 47.6977L149.523 47.7019L153.859 36.8612L139.478 36.8571L135.119 47.6977Z" fill="#233862"/>
<path d="M145.889 42.2795C145.998 41.8986 145.779 41.587 145.401 41.587C145.201 41.5977 145.009 41.6699 144.851 41.7937C144.693 41.9175 144.576 42.087 144.517 42.2795C144.408 42.6604 144.627 42.972 145.006 42.972C145.205 42.9608 145.397 42.8886 145.555 42.7648C145.713 42.641 145.83 42.4717 145.889 42.2795V42.2795Z" fill="white"/>
<g opacity="0.5">
<path d="M216.934 83.5396L212.95 78.4191L212.762 78.1781L212.537 78.1352L194.151 74.7321L187.963 108.573L211.8 112.985L217.092 84.0368L217.136 83.7999L216.934 83.5396Z" fill="#8C9DF4"/>
</g>
<path d="M204.974 73.0396L204.983 73.2806L206.118 102.693L181.899 103.639L180.573 69.2557L199.255 68.5272L199.483 68.5175L199.718 68.7128L204.72 72.8319L204.974 73.0396Z" fill="#8C9DF4"/>
<path d="M189.044 81.462L148.627 83.7279C148.588 83.7308 148.552 83.7489 148.526 83.7785C148.5 83.808 148.487 83.8466 148.489 83.8858L151.439 137.14C151.442 137.179 151.459 137.216 151.489 137.242C151.518 137.268 151.556 137.281 151.595 137.279L191.954 135.016C191.993 135.013 192.029 134.995 192.055 134.966C192.08 134.937 192.094 134.898 192.091 134.859L189.139 81.5451C189.137 81.5216 189.126 81.4998 189.108 81.4843C189.09 81.4688 189.067 81.4608 189.044 81.462V81.462Z" fill="#233862"/>
<path d="M188.97 133.336L154.734 135.498C154.49 135.513 154.246 135.48 154.014 135.4C153.783 135.32 153.569 135.195 153.386 135.033C153.202 134.87 153.053 134.672 152.945 134.451C152.838 134.23 152.774 133.99 152.759 133.744L149.84 86.9301C149.81 86.4358 149.976 85.9499 150.302 85.5786C150.627 85.2072 151.086 84.9806 151.577 84.9481L185.816 82.7916C186.309 82.7605 186.795 82.9278 187.165 83.2566C187.536 83.5854 187.762 84.0489 187.793 84.5451L190.712 131.352C190.742 131.848 190.575 132.334 190.248 132.706C189.921 133.078 189.462 133.304 188.97 133.336V133.336Z" fill="#EBF3FA"/>
<path d="M175.458 90.5077L153.917 91.8664C153.914 91.8668 153.912 91.8666 153.909 91.8659C153.907 91.8652 153.904 91.8639 153.902 91.8622C153.9 91.8605 153.899 91.8583 153.898 91.856C153.897 91.8536 153.896 91.851 153.896 91.8484L153.862 91.3068C153.862 91.3014 153.864 91.2961 153.867 91.292C153.871 91.288 153.876 91.2853 153.881 91.2847L175.417 89.9259C175.42 89.9255 175.422 89.9257 175.425 89.9264C175.427 89.9271 175.43 89.9284 175.432 89.9301C175.433 89.9318 175.435 89.934 175.436 89.9363C175.437 89.9387 175.438 89.9413 175.438 89.9439L175.472 90.4855C175.472 90.4902 175.471 90.4948 175.469 90.4988C175.466 90.5028 175.463 90.5059 175.458 90.5077Z" fill="#BDD1F9"/>
<path d="M175.749 95.16L154.213 96.5187C154.21 96.5191 154.208 96.5189 154.205 96.5182C154.203 96.5175 154.2 96.5162 154.198 96.5145C154.196 96.5128 154.195 96.5107 154.194 96.5083C154.193 96.5059 154.192 96.5033 154.192 96.5007L154.158 95.9591C154.158 95.9539 154.16 95.9488 154.163 95.9449C154.167 95.9411 154.172 95.9387 154.177 95.9384L175.713 94.5783C175.715 94.5781 175.718 94.5784 175.72 94.5792C175.723 94.58 175.725 94.5813 175.727 94.5829C175.729 94.5846 175.73 94.5867 175.732 94.5889C175.733 94.5912 175.733 94.5937 175.734 94.5963L175.768 95.1378C175.768 95.1432 175.766 95.1485 175.763 95.1526C175.759 95.1567 175.754 95.1593 175.749 95.16Z" fill="#BDD1F9"/>
<path d="M183.831 92.3137L154.068 94.1932C154.063 94.1933 154.058 94.1913 154.054 94.1877C154.049 94.1842 154.047 94.1792 154.046 94.1738L154.013 93.6323C154.013 93.6297 154.013 93.627 154.014 93.6245C154.014 93.622 154.016 93.6197 154.017 93.6177C154.019 93.6157 154.021 93.6142 154.023 93.6131C154.026 93.612 154.028 93.6115 154.031 93.6115L183.796 91.732C183.801 91.732 183.806 91.734 183.81 91.7376C183.814 91.7412 183.816 91.7461 183.816 91.7514L183.851 92.2929C183.851 92.2982 183.849 92.3033 183.845 92.3072C183.841 92.311 183.837 92.3134 183.831 92.3137V92.3137Z" fill="#BDD1F9"/>
<path d="M170.544 109.951L155.892 110.876C155.887 110.876 155.883 110.874 155.88 110.871C155.876 110.868 155.874 110.864 155.874 110.859L155.84 110.305C155.84 110.301 155.841 110.297 155.845 110.294C155.848 110.29 155.852 110.289 155.856 110.289L170.509 109.363C170.511 109.363 170.513 109.364 170.515 109.364C170.517 109.365 170.519 109.366 170.52 109.367C170.522 109.369 170.523 109.371 170.524 109.373C170.525 109.374 170.525 109.377 170.525 109.379L170.56 109.933C170.56 109.937 170.558 109.941 170.555 109.945C170.552 109.948 170.549 109.95 170.544 109.951V109.951Z" fill="#BDD1F9"/>
<path d="M175.999 107.271L155.746 108.553C155.742 108.553 155.738 108.552 155.735 108.549C155.732 108.546 155.73 108.542 155.73 108.538L155.695 107.984C155.695 107.982 155.695 107.98 155.696 107.978C155.697 107.975 155.698 107.973 155.699 107.972C155.7 107.97 155.702 107.969 155.704 107.968C155.706 107.967 155.708 107.966 155.71 107.966L175.964 106.688C175.966 106.687 175.968 106.688 175.97 106.688C175.972 106.689 175.974 106.69 175.975 106.692C175.977 106.693 175.978 106.695 175.979 106.697C175.98 106.699 175.98 106.701 175.98 106.703L176.014 107.257C176.014 107.261 176.012 107.264 176.009 107.266C176.006 107.269 176.003 107.27 175.999 107.271V107.271Z" fill="#BDD1F9"/>
<path d="M177.493 112.111L155.957 113.471C155.951 113.472 155.946 113.47 155.942 113.466C155.938 113.462 155.935 113.457 155.935 113.452L155.902 112.911C155.901 112.908 155.901 112.905 155.902 112.903C155.903 112.9 155.904 112.898 155.906 112.896C155.907 112.894 155.91 112.892 155.912 112.891C155.914 112.89 155.917 112.89 155.92 112.89L177.456 111.53C177.461 111.529 177.466 111.531 177.47 111.534C177.474 111.538 177.477 111.542 177.478 111.548L177.511 112.091C177.511 112.093 177.51 112.096 177.51 112.098C177.509 112.101 177.508 112.103 177.506 112.105C177.504 112.107 177.502 112.108 177.5 112.109C177.498 112.111 177.495 112.111 177.493 112.111Z" fill="#BDD1F9"/>
<path d="M180.046 114.286L156.096 115.797C156.093 115.797 156.091 115.797 156.089 115.796C156.087 115.795 156.084 115.794 156.083 115.793C156.081 115.791 156.079 115.789 156.078 115.787C156.077 115.785 156.077 115.783 156.076 115.78L156.042 115.235C156.042 115.23 156.044 115.225 156.047 115.222C156.05 115.218 156.054 115.216 156.059 115.215L180.009 113.704C180.011 113.704 180.013 113.704 180.016 113.705C180.018 113.706 180.02 113.707 180.021 113.709C180.023 113.71 180.025 113.712 180.025 113.714C180.026 113.716 180.027 113.718 180.027 113.721L180.061 114.266C180.062 114.271 180.06 114.276 180.057 114.279C180.055 114.283 180.051 114.285 180.046 114.286V114.286Z" fill="#BDD1F9"/>
<path d="M171.896 118.901L156.48 119.87C156.477 119.871 156.475 119.87 156.473 119.869C156.471 119.869 156.469 119.868 156.467 119.866C156.465 119.864 156.464 119.863 156.463 119.86C156.462 119.858 156.462 119.856 156.462 119.854L156.427 119.307C156.427 119.304 156.427 119.302 156.428 119.3C156.429 119.298 156.43 119.296 156.431 119.294C156.433 119.293 156.434 119.291 156.436 119.29C156.438 119.289 156.44 119.289 156.443 119.289L171.859 118.319C171.861 118.319 171.863 118.319 171.866 118.32C171.868 118.321 171.87 118.322 171.871 118.323C171.873 118.325 171.874 118.327 171.875 118.329C171.876 118.331 171.877 118.333 171.877 118.336L171.911 118.883C171.911 118.885 171.911 118.887 171.91 118.889C171.91 118.891 171.909 118.893 171.907 118.895C171.906 118.897 171.904 118.898 171.902 118.899C171.9 118.9 171.898 118.901 171.896 118.901Z" fill="#BDD1F9"/>
<path d="M172.186 123.553L156.77 124.523C156.766 124.522 156.762 124.521 156.758 124.518C156.755 124.515 156.753 124.51 156.752 124.506L156.719 123.952C156.719 123.95 156.719 123.948 156.719 123.945C156.72 123.943 156.721 123.941 156.723 123.939C156.724 123.938 156.726 123.936 156.728 123.935C156.73 123.934 156.732 123.934 156.734 123.934L172.151 122.964C172.153 122.964 172.155 122.965 172.157 122.965C172.16 122.966 172.162 122.967 172.163 122.969C172.165 122.97 172.166 122.972 172.167 122.974C172.168 122.977 172.169 122.979 172.169 122.981L172.203 123.535C172.203 123.537 172.203 123.54 172.202 123.542C172.201 123.544 172.2 123.546 172.199 123.548C172.197 123.549 172.195 123.551 172.193 123.552C172.191 123.553 172.189 123.553 172.186 123.553Z" fill="#BDD1F9"/>
<path d="M177.932 120.855L156.63 122.2C156.628 122.2 156.625 122.2 156.623 122.199C156.621 122.199 156.619 122.197 156.618 122.196C156.616 122.195 156.615 122.193 156.614 122.191C156.613 122.189 156.612 122.187 156.612 122.185L156.577 121.631C156.578 121.626 156.58 121.622 156.583 121.619C156.586 121.615 156.59 121.613 156.594 121.613L177.896 120.268C177.901 120.268 177.905 120.27 177.908 120.273C177.912 120.276 177.914 120.28 177.914 120.284L177.948 120.838C177.948 120.843 177.947 120.847 177.944 120.85C177.94 120.853 177.936 120.855 177.932 120.855V120.855Z" fill="#BDD1F9"/>
<path d="M178.032 79.1421L159.184 80.1989C157.946 80.2681 156.982 81.2667 157.051 82.4274L157.209 85.293C157.215 85.3594 157.235 85.424 157.266 85.4829C157.297 85.5419 157.339 85.5941 157.39 85.6366C157.441 85.679 157.5 85.7109 157.564 85.7304C157.627 85.7499 157.694 85.7565 157.76 85.7501L180.067 84.5035C180.2 84.5006 180.327 84.4448 180.419 84.3483C180.512 84.2518 180.563 84.1224 180.561 83.9883L180.401 81.1227C180.335 79.9565 179.275 79.0714 178.032 79.1421Z" fill="#FF8C64"/>
<path d="M212.086 102.16C212.086 102.16 211.694 101.273 211.44 100.854C211.187 100.434 210.102 99.2043 209.918 99.4826C209.733 99.761 208.996 101.635 209.388 102.16C209.78 102.685 209.362 103.598 211.315 104.15L212.086 102.16Z" fill="#FFB27D"/>
<path d="M233.751 96.563C233.751 96.563 223.772 104.952 219.881 104.17C216.837 103.563 212.027 102.027 212.027 102.027C212.027 102.027 210.756 103.243 211.115 104.7C211.115 104.7 217.245 110.503 221.612 110.541C228.438 110.599 231.66 107.136 231.66 107.136L233.751 96.563Z" fill="#ED7D2B"/>
<path d="M251.258 184.992C251.258 184.992 250.969 189.701 250.065 189.763C249.945 189.771 245.479 189.771 245.479 189.771L239.777 189.738C239.777 189.738 239.815 188.353 241.481 188.064C243.148 187.774 245.937 186.594 246.946 184.377C248.009 182.046 251.258 184.992 251.258 184.992Z" fill="#113C68"/>
<path d="M251.587 185.319C251.587 185.319 249.854 185.902 248.501 185.902C247.527 185.888 246.559 185.749 245.62 185.486C245.62 185.486 245.294 182.31 243.498 175.315C242.556 171.647 241.212 166.932 239.3 161.074C234.011 144.883 232.402 135.41 232.256 134.513C232.248 134.466 232.245 134.442 232.245 134.442L232.262 134.434L248.521 127.251C248.521 127.251 246.511 149.567 249.071 158.137C249.461 159.486 249.771 160.856 250.002 162.241C251.625 171.543 251.587 185.319 251.587 185.319Z" fill="#2A4E96"/>
<path d="M243.498 175.312C242.556 171.644 241.212 166.93 239.3 161.071C234.011 144.88 232.402 135.408 232.256 134.51C232.256 134.484 232.256 134.457 232.256 134.431L248.521 127.251C248.521 127.251 246.511 149.567 249.071 158.137C249.435 159.333 243.498 175.312 243.498 175.312Z" fill="#233862"/>
<path d="M238.561 184.992C238.561 184.992 238.27 189.701 237.366 189.763C237.246 189.771 232.779 189.771 232.779 189.771L227.078 189.738C227.078 189.738 227.115 188.353 228.782 188.064C230.449 187.774 233.238 186.594 234.248 184.377C235.309 182.046 238.561 184.992 238.561 184.992Z" fill="#15447C"/>
<path d="M229.347 127.78C229.347 127.78 229.135 142.24 231.622 159.996C234.109 177.752 233.261 185.284 233.261 185.284C233.261 185.284 234.969 185.838 235.659 185.896C237.415 186.035 239.216 185.481 239.216 185.481C239.216 185.481 242.775 167.719 241.755 158.831C240.735 149.944 246.628 128.336 246.628 128.336L229.347 127.78Z" fill="#2A4E96"/>
<path d="M240.87 93.9384L237.704 96.0325L234.814 95.2098C234.285 94.4522 234.146 92.9938 234.138 91.7223C234.135 90.9466 234.173 90.1713 234.252 89.3996L238.533 87.4994L240.131 86.7902C240.131 86.8152 240.007 88.1102 239.994 88.2999C239.684 91.6558 240.87 93.9384 240.87 93.9384Z" fill="#FFB27D"/>
<path d="M229.27 131.8C233.22 135.638 248.17 134.992 249.091 130.764C250.011 126.535 248.086 94.768 241.338 92.7736C239.938 92.3581 232.452 94.7943 232.452 94.7943C231.627 97.0836 230.976 99.433 230.507 101.822C230.357 102.589 229.921 110.707 229.594 118.304C229.442 121.856 229.319 125.294 229.248 127.812C229.187 130.167 229.184 131.716 229.27 131.8Z" fill="#F99746"/>
<path d="M239.662 88.3595C238.793 89.8373 235.744 91.1295 234.13 91.7223C234.127 90.9466 234.165 90.1713 234.244 89.3996L238.525 87.4994C239.472 87.4869 240.049 87.6988 239.662 88.3595Z" fill="#FCA56B"/>
<path d="M232.628 89.1379C232.628 89.1379 239.527 91.3041 240.801 86.9592C242.076 82.6144 243.83 79.969 239.473 78.4025C235.117 76.836 233.776 78.239 233.004 79.5853C232.232 80.9315 230.861 88.4703 232.628 89.1379Z" fill="#FFB27D"/>
<path d="M233.271 79.167C233.271 79.167 233.711 84.221 234.751 84.0022C235.79 83.7833 236.932 83.3097 236.781 84.8332C236.629 86.3567 237.791 88.9689 239.289 88.962C242.503 88.9495 245.993 80.6518 245.114 79.0798C242.576 74.5452 229.604 73.6297 233.271 79.167Z" fill="#163560"/>
<path d="M234.287 92.883C234.376 92.8456 239.422 90.5672 240.013 90.7625C240.603 90.9578 241.338 92.7736 241.338 92.7736L232.452 94.7943C232.452 94.7943 233.151 93.3636 234.287 92.883Z" fill="#ED7D2B"/>
<path d="M202.866 117.485L231.157 144.287C231.707 144.812 232.411 144.98 232.711 144.66L233.666 143.639C233.966 143.317 233.758 142.625 233.203 142.1L204.912 115.297C204.361 114.772 203.658 114.604 203.358 114.926L202.402 115.947C202.102 116.266 202.312 116.959 202.866 117.485Z" fill="#1F4D84"/>
<path d="M218.748 132.525L231.162 144.287C231.713 144.812 232.416 144.98 232.716 144.66L233.671 143.639C233.972 143.317 233.764 142.625 233.209 142.1L220.795 130.338L218.748 132.525Z" fill="#739AF0"/>
<path d="M204.305 85.5617C202.31 83.4277 199.916 81.7101 197.261 80.5069C194.606 79.3038 191.742 78.6386 188.831 78.5495C185.921 78.4604 183.022 78.949 180.299 79.9875C177.576 81.026 175.083 82.5939 172.963 84.6019C172.844 84.7127 172.727 84.8249 172.615 84.9384C169.5 88.0172 167.359 91.9524 166.458 96.2509C165.557 100.549 165.937 105.02 167.55 109.102C169.164 113.184 171.938 116.696 175.527 119.198C179.116 121.699 183.358 123.08 187.723 123.166C192.088 123.251 196.381 122.039 200.064 119.68C203.747 117.321 206.656 113.921 208.427 109.906C210.198 105.89 210.751 101.438 210.018 97.1076C209.284 92.777 207.297 88.7606 204.305 85.5617V85.5617ZM202.151 115.819C199.208 118.605 195.511 120.45 191.527 121.121C187.543 121.793 183.45 121.26 179.767 119.591C176.083 117.922 172.974 115.191 170.833 111.744C168.692 108.297 167.615 104.288 167.738 100.225C167.861 96.1621 169.179 92.227 171.524 88.9175C173.87 85.6079 177.138 83.0726 180.916 81.6322C184.694 80.1918 188.811 79.9109 192.747 80.825C196.683 81.7392 200.262 83.8074 203.03 86.7681C204.871 88.7325 206.309 91.043 207.261 93.5672C208.213 96.0914 208.661 98.7798 208.579 101.479C208.498 104.177 207.888 106.833 206.785 109.294C205.682 111.756 204.107 113.974 202.151 115.822V115.819Z" fill="#1F4D84"/>
<g opacity="0.5">
<path d="M173.281 114.935C176.049 117.896 179.627 119.964 183.563 120.878C187.499 121.792 191.616 121.511 195.393 120.071C199.171 118.63 202.439 116.095 204.784 112.786C207.13 109.477 208.447 105.542 208.57 101.479C208.693 97.4162 207.616 93.408 205.475 89.9612C203.334 86.5143 200.226 83.7837 196.543 82.1147C192.859 80.4456 188.767 79.913 184.783 80.5843C180.799 81.2555 177.102 83.1005 174.16 85.8858C172.197 87.7289 170.615 89.945 169.507 92.4063C168.399 94.8677 167.787 97.5254 167.705 100.226C167.623 102.927 168.074 105.617 169.031 108.142C169.988 110.667 171.432 112.976 173.281 114.935V114.935Z" fill="#B3CFF9"/>
</g>
<path d="M229.248 127.805C244.836 116.627 243.539 101.713 243.539 101.713C237.842 104.945 232.189 112.1 229.594 118.297C229.442 121.85 229.314 125.291 229.248 127.805Z" fill="#ED7D2B"/>
<path d="M213.861 122.719C212.76 122.463 212.024 121.627 211.871 121.481C211.871 121.481 211.402 121.513 211.947 122.52C211.994 122.604 212.094 122.82 212.171 122.973C212.178 122.987 212.181 123.003 212.18 123.019C212.18 123.035 212.175 123.051 212.167 123.064C212.159 123.078 212.147 123.089 212.134 123.098C212.12 123.106 212.104 123.111 212.089 123.111C211.455 123.16 210.817 122.908 209.594 123.164C209.427 123.2 209.377 123.606 209.384 123.779C209.395 124.073 209.374 124.401 209.713 124.851C209.91 125.111 210.459 125.392 211.683 125.888C212.148 126.078 213.482 125.935 214.73 125.503L215.728 125.038L215.418 123.172L215.168 123.225C214.77 123.311 214.277 122.819 213.861 122.719Z" fill="#FFB27D"/>
<path d="M238.707 94.7943C238.707 94.7943 252.709 97.473 234.577 117.888C231.677 121.153 216.014 125.402 216.014 125.402C216.014 125.402 214.424 124.042 215.226 122.941C215.226 122.941 226.01 115.06 228.384 113.808C229.451 113.244 232.526 101.229 234.267 98.3358C236.009 95.4425 238.707 94.7943 238.707 94.7943Z" fill="#F99746"/>
<path d="M211.706 102.408C211.706 102.408 211.248 101.527 211.155 101.062C211.063 100.596 210.489 99.2417 210.251 99.0034C210.156 98.9079 209.838 99.0311 209.805 99.4411C209.79 99.6212 209.877 99.9453 210.031 100.333C210.281 100.965 210.24 101.819 210.327 102.105C210.547 102.815 211.706 102.408 211.706 102.408Z" fill="#FFB27D"/>
</g>
<defs>
<clipPath id="clip0_1_8">
<rect width="340" height="190" fill="white"/>
</clipPath>
</defs>
</svg>
