<svg width="342" height="191" viewBox="0 0 342 191" fill="none" xmlns="http://www.w3.org/2000/svg">
<g clip-path="url(#clip0_19_755)">
<path d="M49.595 17.7061C96.3095 0.446482 143.791 15.7064 175.988 48.9409C208.184 82.1754 275.767 26.0013 311.607 59.1821C336.066 81.8263 324.863 140.046 291.324 165.264C245.74 199.537 107.109 182.145 77.1168 176.313C42.5678 169.592 17.3105 149.204 7.04854 124.458C-17.6748 64.833 28.952 25.3388 49.595 17.7061Z" fill="#E7F3FE"/>
<path d="M209.265 41.6841C209.426 40.2615 209.507 38.8311 209.508 37.3995C209.508 36.6352 209.482 35.8765 209.438 35.1234L202.323 32.8362C201.893 29.9035 201.045 27.0469 199.804 24.353L204.526 18.5755C203.438 16.67 202.188 14.861 200.79 13.1685L193.674 15.4792C191.592 13.3607 189.22 11.5453 186.628 10.0867L187.033 2.64645C185.03 1.73867 182.952 1.00558 180.822 0.455437L176.428 6.49024C173.493 5.99737 170.503 5.91939 167.546 6.25861L163.478 0C161.321 0.436801 159.207 1.05868 157.158 1.85867L157.167 9.31014C154.502 10.6293 152.037 12.3166 149.846 14.3222L142.867 11.6366C141.378 13.2543 140.032 14.9963 138.844 16.8433L143.249 22.8624C141.865 25.4873 140.865 28.2952 140.279 31.2013L133.054 33.1148C132.893 34.5374 132.812 35.9678 132.811 37.3995C132.811 38.1637 132.837 38.9224 132.881 39.6755L139.996 41.9673C140.426 44.8999 141.275 47.7564 142.516 50.4504L137.793 56.2279C138.881 58.1334 140.131 59.9424 141.53 61.6349L148.646 59.3242C150.727 61.4411 153.099 63.2549 155.69 64.7122L155.285 72.1525C157.288 73.0603 159.366 73.7933 161.496 74.3435L165.893 68.3087C168.828 68.8016 171.819 68.8795 174.776 68.5403L178.843 74.7989C181.001 74.3623 183.117 73.7404 185.167 72.9403L185.158 65.4888C187.822 64.1693 190.286 62.4816 192.475 60.4756L199.455 63.1612C200.942 61.5448 202.287 59.8043 203.476 57.959L199.07 51.9398C200.454 49.3152 201.454 46.5072 202.04 43.601L209.265 41.6841ZM171.16 52.3684C168.185 52.3686 165.276 51.4908 162.803 49.846C160.329 48.2011 158.401 45.8631 157.262 43.1277C156.124 40.3922 155.826 37.3821 156.406 34.4781C156.986 31.5741 158.419 28.9066 160.523 26.8129C162.626 24.7192 165.306 23.2934 168.224 22.7159C171.142 22.1383 174.167 22.4348 176.915 23.568C179.664 24.7012 182.013 26.6201 183.666 29.0821C185.318 31.5441 186.2 34.4386 186.2 37.3995C186.2 41.3695 184.615 45.1769 181.795 47.9841C178.974 50.7913 175.149 52.3684 171.16 52.3684V52.3684Z" fill="#9EC8FF"/>
<path d="M191.673 54.4722C191.567 54.4721 191.462 54.4418 191.372 54.3847C191.282 54.3277 191.21 54.2462 191.165 54.1499C191.119 54.0537 191.102 53.9465 191.116 53.8411C191.13 53.7356 191.173 53.6363 191.242 53.5546C194.028 50.2123 195.904 46.2131 196.689 41.941C197.474 37.669 197.143 33.2678 195.726 29.1602C195.699 29.0902 195.687 29.0157 195.69 28.9411C195.693 28.8664 195.711 28.7931 195.743 28.7255C195.775 28.6579 195.821 28.5974 195.876 28.5475C195.932 28.4976 195.998 28.4593 196.069 28.4349C196.14 28.4106 196.215 28.4006 196.29 28.4056C196.365 28.4106 196.438 28.4305 196.505 28.4641C196.572 28.4977 196.631 28.5443 196.68 28.6012C196.729 28.6581 196.765 28.7242 196.788 28.7954C198.268 33.0846 198.615 37.6804 197.795 42.1414C196.975 46.6024 195.016 50.7785 192.106 54.2685C192.054 54.3321 191.988 54.3833 191.913 54.4185C191.838 54.4537 191.756 54.472 191.673 54.4722V54.4722Z" fill="white"/>
<path d="M189.496 19.1406C189.353 19.1404 189.215 19.086 189.111 18.9884C186.595 16.6235 183.618 14.798 180.365 13.625C180.295 13.5999 180.232 13.5614 180.177 13.5118C180.123 13.4621 180.079 13.4023 180.047 13.3357C179.984 13.2012 179.978 13.0472 180.029 12.9078C180.08 12.7683 180.184 12.6547 180.319 12.5919C180.454 12.5292 180.609 12.5224 180.749 12.5732C184.147 13.7991 187.255 15.7065 189.881 18.1772C189.963 18.254 190.02 18.3536 190.045 18.4631C190.069 18.5725 190.06 18.6867 190.018 18.7909C189.977 18.8951 189.905 18.9845 189.811 19.0474C189.718 19.1104 189.608 19.144 189.496 19.144V19.1406Z" fill="white"/>
<path d="M165.325 12.901C165.188 12.9012 165.056 12.8513 164.953 12.7609C164.85 12.6706 164.784 12.5458 164.767 12.4103C164.75 12.2748 164.784 12.1378 164.861 12.0252C164.939 11.9125 165.055 11.832 165.188 11.7988C167.318 11.2657 169.505 10.9966 171.7 10.9976C171.85 10.9976 171.993 11.0566 172.098 11.1615C172.203 11.2664 172.263 11.4087 172.263 11.5571C172.263 11.7055 172.203 11.8478 172.098 11.9527C171.993 12.0577 171.85 12.1166 171.7 12.1166C169.597 12.1157 167.502 12.3736 165.463 12.8843C165.418 12.8953 165.372 12.9009 165.325 12.901V12.901Z" fill="white"/>
<path d="M88.3761 136.469C88.4876 135.483 88.5435 134.492 88.5436 133.501C88.5436 132.971 88.5275 132.446 88.4953 131.924L83.5684 130.337C83.2705 128.306 82.6829 126.327 81.8234 124.46L85.0907 120.454C84.3381 119.135 83.4729 117.882 82.5047 116.71L77.5756 118.31C76.1343 116.844 74.4919 115.587 72.697 114.579L72.977 109.424C71.5898 108.796 70.1505 108.288 68.6752 107.907L65.6316 112.086C63.5985 111.746 61.5274 111.692 59.4792 111.926L56.6616 107.591C55.1681 107.895 53.7036 108.326 52.2845 108.879L52.2912 114.04C50.4454 114.953 48.7383 116.121 47.2204 117.509L42.3857 115.653C41.3555 116.772 40.4237 117.978 39.6007 119.256L42.6522 123.424C41.6939 125.243 41.0011 127.188 40.5946 129.201L35.5901 130.525C35.4792 131.511 35.4232 132.502 35.4226 133.494C35.4226 134.024 35.4406 134.549 35.471 135.071L40.399 136.658C40.6967 138.689 41.2843 140.668 42.144 142.534L38.8766 146.535C39.6292 147.855 40.4944 149.108 41.4626 150.28L46.3906 148.679C47.8325 150.146 49.4753 151.403 51.2703 152.412L50.9892 157.56C52.3765 158.189 53.8163 158.696 55.2921 159.077L58.3402 154.91C59.5454 155.112 60.7654 155.214 61.9876 155.214C62.8247 155.213 63.661 155.166 64.4926 155.071L67.3103 159.405C68.8039 159.103 70.2685 158.672 71.6874 158.118V152.956C73.5334 152.043 75.2406 150.875 76.7582 149.487L81.5929 151.343C82.6227 150.224 83.5541 149.019 84.3768 147.741L81.3264 143.572C82.2807 141.754 82.9694 139.81 83.3716 137.799L88.3761 136.469ZM61.982 143.87C59.9215 143.87 57.9072 143.262 56.1939 142.122C54.4807 140.983 53.1453 139.363 52.3568 137.469C51.5683 135.574 51.362 133.489 51.7639 131.478C52.1659 129.467 53.1582 127.619 54.6152 126.169C56.0722 124.719 57.9286 123.732 59.9495 123.331C61.9704 122.931 64.0652 123.137 65.9689 123.921C67.8725 124.706 69.4996 126.035 70.6444 127.74C71.7892 129.445 72.4002 131.45 72.4002 133.501C72.3999 136.251 71.3022 138.888 69.3484 140.832C67.3947 142.777 64.745 143.869 61.982 143.87V143.87Z" fill="#9EC8FF"/>
<path d="M76.1915 145.498C76.0847 145.498 75.9801 145.467 75.89 145.41C75.7998 145.353 75.7279 145.272 75.6826 145.176C75.6373 145.079 75.6205 144.972 75.6342 144.867C75.6478 144.761 75.6914 144.662 75.7598 144.58C77.6698 142.288 78.9558 139.545 79.4943 136.616C80.0328 133.686 79.8057 130.668 78.8349 127.851C78.7908 127.712 78.8029 127.561 78.8688 127.431C78.9347 127.301 79.0491 127.201 79.1876 127.154C79.3261 127.106 79.4778 127.114 79.6104 127.176C79.743 127.239 79.8459 127.35 79.8974 127.486C80.9314 130.485 81.1735 133.698 80.6004 136.817C80.0272 139.936 78.6581 142.856 76.6244 145.296C76.5715 145.36 76.5053 145.41 76.4305 145.445C76.3557 145.48 76.2741 145.498 76.1915 145.498V145.498Z" fill="white"/>
<path d="M74.6826 121.026C74.5397 121.026 74.4022 120.972 74.2981 120.874C72.5728 119.252 70.5312 118 68.2997 117.196C68.1611 117.144 68.0486 117.04 67.9866 116.906C67.9247 116.772 67.9182 116.62 67.9687 116.481C68.0192 116.343 68.1225 116.23 68.2563 116.166C68.39 116.103 68.5434 116.095 68.6831 116.144C71.0586 117 73.232 118.333 75.0683 120.061C75.1507 120.137 75.208 120.237 75.2326 120.347C75.2573 120.456 75.2483 120.571 75.2067 120.675C75.165 120.78 75.0928 120.869 74.9993 120.932C74.9059 120.995 74.7955 121.029 74.6826 121.028V121.026Z" fill="white"/>
<path d="M57.9411 116.705C57.8039 116.705 57.6713 116.655 57.5685 116.565C57.4656 116.474 57.3995 116.349 57.3827 116.214C57.3658 116.078 57.3993 115.941 57.4769 115.829C57.5545 115.716 57.6708 115.636 57.8039 115.602C59.2928 115.23 60.8223 115.042 62.3575 115.043C62.5066 115.043 62.6496 115.102 62.755 115.207C62.8605 115.312 62.9197 115.454 62.9197 115.602C62.9197 115.751 62.8605 115.893 62.755 115.998C62.6496 116.103 62.5066 116.162 62.3575 116.162C60.9151 116.161 59.4782 116.338 58.0794 116.688C58.0342 116.699 57.9877 116.705 57.9411 116.705Z" fill="white"/>
<path d="M232.23 70.1931C232.23 69.9044 232.222 69.6172 232.206 69.3315L235.899 66.3806C235.613 64.9278 235.163 63.5119 234.557 62.1597L229.79 61.8005C228.706 60.0994 227.305 58.6204 225.662 57.4431L225.647 52.7142C224.305 52.0133 222.887 51.4689 221.42 51.0916L218.16 54.5818C216.195 54.3685 214.208 54.5234 212.301 55.0384L208.565 52.0943C207.165 52.7006 205.841 53.4659 204.618 54.3748L205.325 59.0623C203.922 60.4519 202.793 62.0913 201.997 63.8953L197.349 64.9685C196.949 66.4238 196.719 67.92 196.662 69.4277L200.756 71.7776C200.959 73.7916 201.554 75.747 202.508 77.5349L200.458 81.8129C201.336 83.0087 202.347 84.1029 203.47 85.0748L207.855 83.3638C209.612 84.5045 211.58 85.2831 213.644 85.6533L215.713 89.8932C215.959 89.9022 216.207 89.9089 216.456 89.9089C217.674 89.9077 218.889 89.7953 220.086 89.5732L221.483 85.0815C223.493 84.4081 225.345 83.3379 226.93 81.9348L231.539 82.9666C232.49 81.8564 233.314 80.645 233.997 79.3544L231.322 75.4446C231.924 73.7585 232.231 71.9823 232.23 70.1931ZM216.279 77.1119C214.964 77.1119 213.679 76.724 212.586 75.9972C211.493 75.2704 210.642 74.2373 210.139 73.0287C209.636 71.8201 209.504 70.4901 209.76 69.2071C210.017 67.924 210.65 66.7454 211.579 65.8203C212.509 64.8953 213.693 64.2653 214.982 64.0101C216.271 63.7549 217.608 63.8859 218.822 64.3865C220.036 64.8871 221.074 65.7349 221.805 66.8227C222.535 67.9104 222.925 69.1893 222.925 70.4975C222.925 71.3661 222.753 72.2262 222.419 73.0287C222.085 73.8312 221.595 74.5604 220.978 75.1746C220.361 75.7888 219.628 76.276 218.822 76.6084C218.016 76.9408 217.151 77.1119 216.279 77.1119V77.1119Z" fill="#9EC8FF"/>
<g opacity="0.8">
<path d="M293.666 32.0886H287.955C286.894 32.0875 285.877 31.6676 285.127 30.9212C284.377 30.1748 283.956 29.1628 283.954 28.1072V22.4227C283.956 21.3673 284.378 20.3556 285.128 19.6094C285.878 18.8632 286.894 18.4435 287.955 18.4424H293.666C294.727 18.4435 295.744 18.8632 296.493 19.6094C297.243 20.3556 297.665 21.3673 297.667 22.4227V28.1072C297.666 29.1628 297.244 30.1748 296.494 30.9212C295.744 31.6676 294.727 32.0875 293.666 32.0886V32.0886ZM287.955 20.009C287.312 20.0096 286.695 20.264 286.24 20.7165C285.785 21.169 285.529 21.7826 285.528 22.4227V28.1072C285.529 28.7475 285.785 29.3614 286.24 29.8141C286.695 30.2668 287.311 30.5214 287.955 30.522H293.666C294.31 30.5214 294.927 30.2668 295.381 29.8141C295.836 29.3614 296.092 28.7475 296.093 28.1072V22.4227C296.092 21.7826 295.836 21.169 295.381 20.7165C294.926 20.264 294.31 20.0096 293.666 20.009H287.955Z" fill="#9EC8FF"/>
</g>
<g opacity="0.8">
<path d="M266.788 32.0886H261.075C260.015 32.0872 258.998 31.6672 258.248 30.9208C257.499 30.1744 257.077 29.1626 257.076 28.1072V22.4227C257.077 21.3674 257.499 20.3557 258.248 19.6095C258.998 18.8633 260.015 18.4435 261.075 18.4424H266.788C267.848 18.4435 268.865 18.8633 269.614 19.6095C270.364 20.3557 270.786 21.3674 270.787 22.4227V28.1072C270.786 29.1626 270.364 30.1744 269.614 30.9208C268.865 31.6672 267.848 32.0872 266.788 32.0886V32.0886ZM261.075 20.009C260.432 20.0099 259.816 20.2644 259.361 20.7169C258.906 21.1694 258.651 21.7828 258.65 22.4227V28.1072C258.65 28.7473 258.906 29.361 259.361 29.8137C259.815 30.2664 260.432 30.5211 261.075 30.522H266.788C267.431 30.5211 268.047 30.2664 268.502 29.8137C268.957 29.361 269.212 28.7473 269.213 28.1072V22.4227C269.212 21.7828 268.956 21.1694 268.502 20.7169C268.047 20.2644 267.431 20.0099 266.788 20.009H261.075Z" fill="#9EC8FF"/>
</g>
<path d="M264.288 28.7786H264.256C264.158 28.7738 264.062 28.7477 263.975 28.7023C263.889 28.6569 263.813 28.5932 263.753 28.5157L259.648 23.1869C259.544 23.0453 259.5 22.8689 259.525 22.6954C259.55 22.5218 259.643 22.3649 259.782 22.2582C259.922 22.1516 260.098 22.1035 260.273 22.1244C260.448 22.1453 260.608 22.2335 260.719 22.3701L264.339 27.0699L273.791 16.991C273.852 16.9257 273.924 16.8729 274.005 16.8356C274.086 16.7984 274.173 16.7775 274.262 16.774C274.351 16.7706 274.44 16.7848 274.524 16.8157C274.607 16.8466 274.684 16.8937 274.749 16.9542C274.814 17.0148 274.866 17.0875 274.903 17.1683C274.94 17.2491 274.96 17.3363 274.963 17.4249C274.965 17.5136 274.95 17.6018 274.919 17.6847C274.887 17.7675 274.839 17.8432 274.777 17.9075L264.782 28.566C264.719 28.6332 264.642 28.6868 264.557 28.7234C264.472 28.76 264.381 28.7788 264.288 28.7786V28.7786Z" fill="#F37168"/>
<path d="M312.543 178.896C289.157 177.758 209.614 179.686 185.421 180.437C161.228 181.187 133.147 179.445 118.559 176.883C103.972 174.32 19.6536 177.106 23.4798 183.992C27.3059 190.877 61.0477 187.073 99.3115 189.843C137.575 192.612 223.631 189.497 243.042 189.843C262.452 190.189 280.257 189.151 305.269 187.766C330.28 186.381 326.098 179.555 312.543 178.896Z" fill="#CCE2FF"/>
<path d="M73.5347 34.8045H24.6547V114.542H73.5347V34.8045Z" fill="#99BBEB"/>
<path d="M71.928 36.4293H27.2149V111.502H71.928V36.4293Z" fill="white"/>
<path d="M40.589 66.5351C42.2755 62.9307 45.1201 61.777 49.7974 61.777C55.3675 61.777 58.2593 63.7913 59.0789 66.7085C49.1048 66.845 40.589 66.5351 40.589 66.5351Z" fill="#9BD6E8"/>
<path d="M47.8534 44.25C45.4923 44.908 45.5991 46.2273 44.8177 47.4504C44.0363 48.6735 42.3239 49.4903 42.1192 50.3061C41.9146 51.1218 42.6454 52.8216 41.7819 53.775C40.9184 54.7284 40.6205 55.2017 40.9623 56.154C41.3041 57.1063 42.0552 58.6013 42.1237 58.8061C42.1923 59.0108 43.148 60.4376 44.3095 60.6412C45.4709 60.8449 47.6567 61.1851 48.7495 61.6607C49.8424 62.1362 53.3594 61.0519 55.3079 61.1202C57.2564 61.1884 58.5865 59.7572 58.4504 58.8061C58.3144 57.8549 59.8885 55.9504 59.8851 54.3188C59.8851 52.5665 57.8354 51.2595 57.289 50.1035C56.7425 48.9476 57.3486 46.9088 55.3045 45.7047C54.0092 44.9404 53.1188 45.0087 52.0945 44.6685C51.0702 44.3283 49.3556 43.8326 47.8534 44.25Z" fill="#3A384D"/>
<path d="M50.7216 64.654C50.1887 65.4373 49.7974 65.4698 49.2195 64.654C48.7585 64.005 47.8534 62.5279 47.8534 61.7837V54.3211C47.8543 53.9608 47.9985 53.6155 48.2545 53.3607C48.5105 53.1059 48.8575 52.9624 49.2195 52.9615H50.7216C51.0839 52.9621 51.4311 53.1055 51.6873 53.3603C51.9436 53.6151 52.088 53.9606 52.0889 54.3211V61.7849C52.0889 62.5312 51.2006 63.9513 50.7216 64.654Z" fill="#F09959"/>
<path d="M50.7216 52.9604H49.2195C48.8573 52.9613 48.5102 53.105 48.2541 53.36C47.9981 53.615 47.854 53.9606 47.8534 54.3211V60.9792C49.5399 61.5141 51.0803 60.451 52.0889 59.2537V54.3211C52.0883 53.9604 51.944 53.6146 51.6877 53.3596C51.4315 53.1045 51.0841 52.961 50.7216 52.9604V52.9604Z" fill="#E38540"/>
<path d="M49.9706 59.1955C52.4793 59.1955 54.5129 56.4375 54.5129 53.0354C54.5129 49.6332 52.4793 46.8752 49.9706 46.8752C47.4619 46.8752 45.4282 49.6332 45.4282 53.0354C45.4282 56.4375 47.4619 59.1955 49.9706 59.1955Z" fill="#F09959"/>
<path d="M52.0888 48.133C49.2195 52.9604 44.9841 52.4837 44.9841 52.4837C44.9841 52.4837 45.0864 46.093 48.4504 45.7529C51.8145 45.4127 53.7956 46.76 54.4792 48.9745C55.1628 51.189 54.4792 52.6538 54.4792 52.6538C53.7646 52.0567 53.2028 51.2992 52.8399 50.4437C52.5305 49.6937 52.2794 48.9212 52.0888 48.133V48.133Z" fill="#3A384D"/>
<path d="M45.5854 55.0549C46.1816 54.773 46.3204 53.8227 45.8954 52.9323C45.4704 52.042 44.6426 51.5487 44.0464 51.8306C43.4501 52.1125 43.3113 53.0628 43.7363 53.9532C44.1613 54.8435 44.9891 55.3368 45.5854 55.0549Z" fill="#F09959"/>
<path d="M53.8428 52.9402C53.419 53.8354 53.5572 54.781 54.1543 55.0663C54.7513 55.3517 55.5777 54.8549 56.0027 53.9652C56.4277 53.0756 56.2894 52.1245 55.6924 51.8391C55.0954 51.5538 54.2678 52.0506 53.8428 52.9402Z" fill="#F09959"/>
<path d="M51.6785 56.3767C51.6785 56.3767 50.9139 57.3626 49.9706 57.3626C49.0272 57.3626 48.2627 56.3767 48.2627 56.3767H51.6785Z" fill="white"/>
<path d="M55.3787 76.3073H43.9103C43.5632 76.2973 43.2337 76.153 42.9918 75.9051C42.7498 75.6572 42.6145 75.3252 42.6145 74.9796C42.6145 74.634 42.7498 74.3021 42.9918 74.0542C43.2337 73.8063 43.5632 73.662 43.9103 73.6519H55.3787C55.7258 73.662 56.0553 73.8063 56.2973 74.0542C56.5392 74.3021 56.6746 74.634 56.6746 74.9796C56.6746 75.3252 56.5392 75.6572 56.2973 75.9051C56.0553 76.153 55.7258 76.2973 55.3787 76.3073V76.3073Z" fill="#99BBEB"/>
<path d="M57.479 80.3861H41.8055C41.4584 80.3761 41.1289 80.2318 40.887 79.9839C40.645 79.736 40.5097 79.404 40.5097 79.0584C40.5097 78.7128 40.645 78.3808 40.887 78.1329C41.1289 77.885 41.4584 77.7408 41.8055 77.7307H57.479C57.8261 77.7408 58.1556 77.885 58.3975 78.1329C58.6395 78.3808 58.7748 78.7128 58.7748 79.0584C58.7748 79.404 58.6395 79.736 58.3975 79.9839C58.1556 80.2318 57.8261 80.3761 57.479 80.3861V80.3861Z" fill="#99BBEB"/>
<path d="M68.7045 95.053H30.58C30.3798 95.0454 30.1904 94.9609 30.0514 94.8172C29.9125 94.6736 29.8349 94.4819 29.8349 94.2825C29.8349 94.0831 29.9125 93.8915 30.0514 93.7478C30.1904 93.6042 30.3798 93.5197 30.58 93.5121H68.7045C68.9047 93.5197 69.0941 93.6042 69.2331 93.7478C69.372 93.8915 69.4496 94.0831 69.4496 94.2825C69.4496 94.4819 69.372 94.6736 69.2331 94.8172C69.0941 94.9609 68.9047 95.0454 68.7045 95.053V95.053Z" fill="#99BBEB"/>
<path d="M68.7045 98.6338H30.58C30.3798 98.6262 30.1904 98.5417 30.0514 98.398C29.9125 98.2544 29.8349 98.0627 29.8349 97.8633C29.8349 97.6639 29.9125 97.4723 30.0514 97.3286C30.1904 97.185 30.3798 97.1005 30.58 97.0929H68.7045C68.9047 97.1005 69.0941 97.185 69.2331 97.3286C69.372 97.4723 69.4496 97.6639 69.4496 97.8633C69.4496 98.0627 69.372 98.2544 69.2331 98.398C69.0941 98.5417 68.9047 98.6262 68.7045 98.6338V98.6338Z" fill="#99BBEB"/>
<path d="M68.7045 102.215H30.58C30.3798 102.207 30.1904 102.123 30.0514 101.979C29.9125 101.835 29.8349 101.644 29.8349 101.444C29.8349 101.245 29.9125 101.053 30.0514 100.909C30.1904 100.766 30.3798 100.681 30.58 100.674H68.7045C68.9047 100.681 69.0941 100.766 69.2331 100.909C69.372 101.053 69.4496 101.245 69.4496 101.444C69.4496 101.644 69.372 101.835 69.2331 101.979C69.0941 102.123 68.9047 102.207 68.7045 102.215Z" fill="#99BBEB"/>
<path d="M63.3717 67.4202H35.9128C35.5464 67.4199 35.1951 67.2749 34.9361 67.0171C34.677 66.7592 34.5313 66.4096 34.531 66.0449V40.8572C34.5313 40.4925 34.677 40.1429 34.9361 39.8851C35.1951 39.6272 35.5464 39.4822 35.9128 39.4819H63.3717C63.7373 39.4834 64.0874 39.6289 64.3455 39.8866C64.6037 40.1444 64.7487 40.4933 64.749 40.8572V66.0449C64.7487 66.4088 64.6037 66.7578 64.3455 67.0155C64.0874 67.2732 63.7373 67.4187 63.3717 67.4202V67.4202ZM35.9128 40.6009C35.8448 40.6018 35.7798 40.6291 35.7317 40.677C35.6836 40.7248 35.6562 40.7895 35.6554 40.8572V66.0449C35.6562 66.1126 35.6836 66.1773 35.7317 66.2252C35.7798 66.273 35.8448 66.3003 35.9128 66.3012H63.3717C63.4397 66.3003 63.5047 66.273 63.5528 66.2252C63.6009 66.1773 63.6283 66.1126 63.6292 66.0449V40.8572C63.6283 40.7895 63.6009 40.7248 63.5528 40.677C63.5047 40.6291 63.4397 40.6018 63.3717 40.6009H35.9128Z" fill="#99BBEB"/>
<path d="M39.875 83.8495L40.6699 85.453L42.4475 85.7092L41.1613 86.9581L41.4649 88.7194L39.875 87.888L38.2852 88.7194L38.5888 86.9581L37.3025 85.7092L39.0801 85.453L39.875 83.8495Z" fill="#99BBEB"/>
<path d="M46.3861 83.8495L47.1811 85.453L48.9587 85.7092L47.6724 86.9581L47.976 88.7194L46.3861 87.888L44.7963 88.7194L45.0999 86.9581L43.8136 85.7092L45.5912 85.453L46.3861 83.8495Z" fill="#99BBEB"/>
<path d="M52.8984 83.8495L53.6933 85.453L55.4709 85.7092L54.1846 86.9581L54.4882 88.7194L52.8984 87.888L51.3074 88.7194L51.6121 86.9581L50.3259 85.7092L52.1035 85.453L52.8984 83.8495Z" fill="#99BBEB"/>
<path d="M59.4095 83.8495L60.2044 85.453L61.982 85.7092L60.6957 86.9581L60.9993 88.7194L59.4095 87.888L57.8197 88.7194L58.1232 86.9581L56.837 85.7092L58.6146 85.453L59.4095 83.8495Z" fill="#99BBEB"/>
<path d="M182.509 34.8045H133.629V114.542H182.509V34.8045Z" fill="#99BBEB"/>
<path d="M180.901 36.4293H136.188V111.502H180.901V36.4293Z" fill="white"/>
<path d="M151.687 52.6292C151.687 56.1999 153.847 61.9628 158.944 61.7782C164.04 61.5935 165.168 56.1003 165.366 54.5505C165.564 53.0007 151.687 52.6292 151.687 52.6292Z" fill="#7A4E34"/>
<path d="M149.563 66.5351C151.25 62.9307 154.094 61.777 158.772 61.777C164.34 61.777 167.232 63.7913 168.052 66.7085C158.079 66.845 149.563 66.5351 149.563 66.5351Z" fill="#D54A41"/>
<path d="M159.696 64.654C159.162 65.4373 158.772 65.4698 158.193 64.654C157.733 64.005 156.826 62.5279 156.826 61.7837V54.3211C156.827 53.9608 156.972 53.6155 157.228 53.3607C157.484 53.1059 157.83 52.9624 158.193 52.9615H159.696C160.058 52.9624 160.405 53.1059 160.661 53.3607C160.917 53.6155 161.061 53.9608 161.062 54.3211V61.7849C161.062 62.5312 160.174 63.9513 159.696 64.654Z" fill="#F09959"/>
<path d="M159.696 52.9604H158.193C157.83 52.9613 157.483 53.105 157.227 53.36C156.971 53.615 156.827 53.9606 156.826 54.3211V60.9792C158.513 61.5141 160.054 60.451 161.062 59.2537V54.3211C161.061 53.9606 160.917 53.615 160.661 53.36C160.405 53.105 160.058 52.9613 159.696 52.9604V52.9604Z" fill="#E38540"/>
<path d="M158.944 59.1955C161.452 59.1955 163.486 56.4375 163.486 53.0354C163.486 49.6332 161.452 46.8752 158.944 46.8752C156.435 46.8752 154.401 49.6332 154.401 53.0354C154.401 56.4375 156.435 59.1955 158.944 59.1955Z" fill="#F09959"/>
<path d="M161.443 48.3534C160.903 50.2479 159.721 50.2255 158.07 50.8477C156.419 51.4699 155.632 52.0954 155.093 53.3095C154.403 54.8549 155.405 59.3611 155.405 59.3611C155.405 59.3611 151.228 56.2514 151.711 51.3591C152.193 46.4668 155.093 44.5723 157.819 44.5723C160.546 44.5723 161.585 46.2262 161.585 46.2262C161.585 46.2262 163.037 46.2329 164.411 47.8521C166.259 50.0297 165.69 55.3181 164.411 57.2126C163.133 59.1071 162.275 59.7002 162.309 59.6162C162.342 59.5323 163.502 55.1805 162.878 52.4904C162.254 49.8003 161.443 48.3534 161.443 48.3534Z" fill="#7A4E34"/>
<path d="M160.656 56.3767C160.656 56.3767 159.891 57.3626 158.948 57.3626C158.005 57.3626 157.241 56.3767 157.241 56.3767H160.656Z" fill="white"/>
<path d="M164.352 76.3073H152.883C152.705 76.3125 152.527 76.282 152.361 76.2176C152.194 76.1532 152.043 76.0562 151.915 75.9324C151.787 75.8086 151.685 75.6605 151.615 75.4968C151.546 75.3332 151.51 75.1573 151.51 74.9796C151.51 74.802 151.546 74.6261 151.615 74.4625C151.685 74.2988 151.787 74.1507 151.915 74.0269C152.043 73.9031 152.194 73.8061 152.361 73.7417C152.527 73.6773 152.705 73.6468 152.883 73.6519H164.352C164.699 73.662 165.028 73.8063 165.27 74.0542C165.512 74.3021 165.648 74.634 165.648 74.9796C165.648 75.3252 165.512 75.6572 165.27 75.9051C165.028 76.153 164.699 76.2973 164.352 76.3073V76.3073Z" fill="#99BBEB"/>
<path d="M166.452 80.3861H150.78C150.601 80.3913 150.424 80.3608 150.257 80.2964C150.091 80.2319 149.939 80.135 149.811 80.0112C149.683 79.8874 149.581 79.7393 149.512 79.5756C149.442 79.412 149.406 79.2361 149.406 79.0584C149.406 78.8807 149.442 78.7049 149.512 78.5412C149.581 78.3776 149.683 78.2295 149.811 78.1057C149.939 77.9819 150.091 77.8849 150.257 77.8205C150.424 77.7561 150.601 77.7256 150.78 77.7307H166.452C166.799 77.7408 167.129 77.885 167.371 78.1329C167.613 78.3808 167.748 78.7128 167.748 79.0584C167.748 79.404 167.613 79.736 167.371 79.9839C167.129 80.2318 166.799 80.3761 166.452 80.3861V80.3861Z" fill="#99BBEB"/>
<path d="M177.678 95.053H139.554C139.45 95.0569 139.346 95.0399 139.249 95.003C139.151 94.966 139.063 94.9099 138.987 94.838C138.912 94.7661 138.853 94.6798 138.812 94.5844C138.771 94.4889 138.75 94.3863 138.75 94.2825C138.75 94.1788 138.771 94.0762 138.812 93.9807C138.853 93.8853 138.912 93.799 138.987 93.7271C139.063 93.6551 139.151 93.599 139.249 93.5621C139.346 93.5252 139.45 93.5081 139.554 93.5121H177.678C177.782 93.5081 177.886 93.5252 177.983 93.5621C178.08 93.599 178.169 93.6551 178.244 93.7271C178.319 93.799 178.379 93.8853 178.42 93.9807C178.461 94.0762 178.482 94.1788 178.482 94.2825C178.482 94.3863 178.461 94.4889 178.42 94.5844C178.379 94.6798 178.319 94.7661 178.244 94.838C178.169 94.9099 178.08 94.966 177.983 95.003C177.886 95.0399 177.782 95.0569 177.678 95.053V95.053Z" fill="#99BBEB"/>
<path d="M177.678 98.6338H139.554C139.45 98.6377 139.346 98.6207 139.249 98.5838C139.151 98.5469 139.063 98.4907 138.987 98.4188C138.912 98.3469 138.853 98.2606 138.812 98.1652C138.771 98.0697 138.75 97.9671 138.75 97.8633C138.75 97.7596 138.771 97.657 138.812 97.5615C138.853 97.4661 138.912 97.3798 138.987 97.3079C139.063 97.236 139.151 97.1798 139.249 97.1429C139.346 97.106 139.45 97.089 139.554 97.0929H177.678C177.782 97.089 177.886 97.106 177.983 97.1429C178.08 97.1798 178.169 97.236 178.244 97.3079C178.319 97.3798 178.379 97.4661 178.42 97.5615C178.461 97.657 178.482 97.7596 178.482 97.8633C178.482 97.9671 178.461 98.0697 178.42 98.1652C178.379 98.2606 178.319 98.3469 178.244 98.4188C178.169 98.4907 178.08 98.5469 177.983 98.5838C177.886 98.6207 177.782 98.6377 177.678 98.6338V98.6338Z" fill="#99BBEB"/>
<path d="M177.678 102.215H139.554C139.45 102.219 139.346 102.202 139.249 102.165C139.151 102.128 139.063 102.072 138.987 102C138.912 101.928 138.853 101.841 138.812 101.746C138.771 101.651 138.75 101.548 138.75 101.444C138.75 101.34 138.771 101.238 138.812 101.142C138.853 101.047 138.912 100.961 138.987 100.889C139.063 100.817 139.151 100.761 139.249 100.724C139.346 100.687 139.45 100.67 139.554 100.674H177.678C177.782 100.67 177.886 100.687 177.983 100.724C178.08 100.761 178.169 100.817 178.244 100.889C178.319 100.961 178.379 101.047 178.42 101.142C178.461 101.238 178.482 101.34 178.482 101.444C178.482 101.548 178.461 101.651 178.42 101.746C178.379 101.841 178.319 101.928 178.244 102C178.169 102.072 178.08 102.128 177.983 102.165C177.886 102.202 177.782 102.219 177.678 102.215Z" fill="#99BBEB"/>
<path d="M172.349 67.4202H144.886C144.519 67.4199 144.168 67.2749 143.909 67.0171C143.65 66.7592 143.504 66.4096 143.504 66.0449V40.8572C143.504 40.4925 143.65 40.1429 143.909 39.8851C144.168 39.6272 144.519 39.4822 144.886 39.4819H172.349C172.716 39.4822 173.067 39.6272 173.326 39.8851C173.585 40.1429 173.731 40.4925 173.731 40.8572V66.0449C173.731 66.4096 173.585 66.7592 173.326 67.0171C173.067 67.2749 172.716 67.4199 172.349 67.4202V67.4202ZM144.886 40.6009C144.818 40.6018 144.753 40.6291 144.705 40.677C144.657 40.7248 144.629 40.7895 144.628 40.8572V66.0449C144.629 66.1126 144.657 66.1773 144.705 66.2252C144.753 66.273 144.818 66.3003 144.886 66.3012H172.349C172.417 66.3003 172.482 66.273 172.53 66.2252C172.578 66.1773 172.606 66.1126 172.607 66.0449V40.8572C172.606 40.7895 172.578 40.7248 172.53 40.677C172.482 40.6291 172.417 40.6018 172.349 40.6009H144.886Z" fill="#99BBEB"/>
<path d="M148.848 83.8495L149.643 85.453L151.421 85.7092L150.134 86.9581L150.438 88.7194L148.848 87.888L147.258 88.7194L147.562 86.9581L146.276 85.7092L148.053 85.453L148.848 83.8495Z" fill="#99BBEB"/>
<path d="M155.36 83.8495L156.155 85.453L157.933 85.7092L156.647 86.9581L156.95 88.7194L155.36 87.888L153.769 88.7194L154.074 86.9581L152.787 85.7092L154.565 85.453L155.36 83.8495Z" fill="#99BBEB"/>
<path d="M161.871 83.8495L162.666 85.453L164.444 85.7092L163.158 86.9581L163.461 88.7194L161.871 87.888L160.282 88.7194L160.585 86.9581L159.299 85.7092L161.076 85.453L161.871 83.8495Z" fill="#99BBEB"/>
<path d="M168.384 83.8495L169.179 85.453L170.956 85.7092L169.67 86.9581L169.973 88.7194L168.384 87.888L166.793 88.7194L167.096 86.9581L165.81 85.7092L167.588 85.453L168.384 83.8495Z" fill="#99BBEB"/>
<path opacity="0.2" d="M139.124 113.745H61.982L67.4385 35.101H141.905L139.124 113.745Z" fill="#99BBEB"/>
<path d="M136.848 20.2193H70.0852V129.128H136.848V20.2193Z" fill="#99BBEB"/>
<path d="M134.654 22.4383H73.5819V124.977H134.654V22.4383Z" fill="white"/>
<path d="M98.4267 43.9759C98.3839 43.8494 97.3147 37.7408 97.1899 35.3662C97.0651 32.9917 101.026 32.6515 101.026 32.6515C101.026 32.6515 104.264 30.9126 106.609 31.8033C108.953 32.694 110.544 34.1924 111.613 36.0555C112.682 37.9187 110.676 43.7375 110.676 43.7375L98.4267 43.9759Z" fill="#2E2D3D"/>
<path d="M91.0779 63.601C91.0633 63.5003 91.3522 61.0967 91.3623 60.9993C91.902 55.9381 98.1714 54.5091 104.426 54.5091C111.776 54.5091 116.763 55.8519 117.559 61.1112C117.582 61.2656 118.008 63.6749 117.985 63.8371C104.362 64.024 91.0779 63.601 91.0779 63.601Z" fill="#D5E1E8"/>
<path d="M105.689 58.4424C104.96 59.5122 104.426 59.5614 103.636 58.4424C103.007 57.5573 100.909 55.533 100.909 54.5136L101.77 44.3306C101.772 43.8386 101.969 43.3671 102.318 43.0191C102.668 42.6711 103.141 42.4748 103.636 42.473H105.689C106.183 42.4745 106.657 42.6707 107.007 43.0187C107.357 43.3668 107.554 43.8384 107.555 44.3306L107.955 54.5136C107.955 55.5352 106.342 57.4834 105.689 58.4424Z" fill="#F09959"/>
<path d="M105.689 42.4708H103.636C103.141 42.4726 102.668 42.6689 102.318 43.0169C101.969 43.3649 101.772 43.8363 101.77 44.3283L101.023 53.3643C103.328 54.095 106.44 52.6101 107.816 50.9752L107.555 44.3283C107.554 43.8361 107.357 43.3645 107.007 43.0165C106.657 42.6684 106.183 42.4723 105.689 42.4708V42.4708Z" fill="#E38540"/>
<path d="M97.6182 55.2566L100.909 61.3104C100.909 61.3104 102.67 59.868 102.841 60.1511C103.012 60.4342 102.528 64.0027 102.528 64.0027C102.528 64.0027 106.449 64.0553 106.62 63.8908C106.791 63.7263 105.824 60.0146 106.222 60.0146C106.62 60.0146 107.816 61.09 107.816 61.09L111.49 55.2622L110.683 55.0663L104.663 58.2846L98.2254 55.1312L97.6182 55.2566Z" fill="#BDCCD4"/>
<path d="M101.381 58.0463L103.826 59.6778L103.068 64.0095L106.363 63.8271L105.54 59.8859L107.566 58.0463L106.615 57.1533H102.333L101.381 58.0463Z" fill="#D54A41"/>
<path d="M101.079 52.2901L98.0567 55.1525C98.0567 55.1525 101.136 60.6032 101.306 60.6032C101.476 60.6032 103.92 57.5976 103.92 57.5976L105.484 57.5707L107.958 60.1511L110.828 55.0954L107.905 52.007C107.905 52.007 105.404 56.8187 104.95 56.9306C104.496 57.0425 104.493 57.1007 104.125 56.8187C103.757 56.5367 101.079 52.2901 101.079 52.2901Z" fill="#D5E1E8"/>
<path d="M104.662 50.9876C108.089 50.9876 110.866 47.2206 110.866 42.5738C110.866 37.9269 108.089 34.1599 104.662 34.1599C101.236 34.1599 98.4581 37.9269 98.4581 42.5738C98.4581 47.2206 101.236 50.9876 104.662 50.9876Z" fill="#F09959"/>
<path d="M99.0934 42.444C99.6736 43.6603 99.4835 44.9584 98.6684 45.3433C97.8532 45.7282 96.7233 45.0546 96.1431 43.8382C95.5629 42.6219 95.753 41.325 96.567 40.94C97.381 40.5551 98.5132 41.2287 99.0934 42.444Z" fill="#F09959"/>
<path d="M109.948 42.444C109.368 43.6603 109.558 44.9584 110.372 45.3433C111.186 45.7282 112.317 45.0546 112.897 43.8382C113.477 42.6219 113.288 41.325 112.473 40.94C111.658 40.5551 110.533 41.2287 109.948 42.444Z" fill="#F09959"/>
<path d="M107.415 46.027C107.415 46.027 106.178 48.0132 104.662 48.0132C103.147 48.0132 101.91 46.027 101.91 46.027H107.415Z" fill="white"/>
<path d="M101.023 36.85C103.58 35.0686 104.733 35.3662 106.645 38.2924C108.556 41.2186 110.864 41.2712 110.864 41.2712L111.162 38.2365C111.162 38.2365 108.305 32.7354 104.47 33.4572C100.635 34.1789 98.4548 37.6143 98.4548 37.6143C98.4548 37.6143 98.2681 44.0531 98.8033 44.2735C99.3385 44.494 99.3992 42.1944 99.7826 41.7278C100.166 41.2611 99.3992 39.0556 99.9108 38.035C100.422 37.0145 101.023 36.85 101.023 36.85Z" fill="#2E2D3D"/>
<path d="M109.247 40.1589C110.14 41.1314 109.802 44.9942 110.271 44.9516C110.739 44.9091 110.91 41.2589 110.782 40.8796C110.654 40.5002 109.247 40.1589 109.247 40.1589Z" fill="#2E2D3D"/>
<path d="M118.464 76.9049H89.9637C89.4883 76.8931 89.0363 76.6969 88.7043 76.3581C88.3722 76.0194 88.1864 75.5648 88.1864 75.0915C88.1864 74.6183 88.3722 74.1637 88.7043 73.8249C89.0363 73.4862 89.4883 73.2899 89.9637 73.2782H118.464C118.707 73.2722 118.949 73.3146 119.175 73.4031C119.401 73.4915 119.608 73.6241 119.782 73.7931C119.956 73.9621 120.094 74.164 120.188 74.387C120.283 74.61 120.332 74.8495 120.332 75.0915C120.332 75.3335 120.283 75.5731 120.188 75.7961C120.094 76.0191 119.956 76.221 119.782 76.39C119.608 76.559 119.401 76.6916 119.175 76.78C118.949 76.8685 118.707 76.9109 118.464 76.9049V76.9049Z" fill="#99BBEB"/>
<path d="M114.917 82.4764H93.511C93.2679 82.4824 93.0261 82.44 92.7997 82.3515C92.5734 82.2631 92.3671 82.1305 92.1931 81.9615C92.019 81.7926 91.8807 81.5906 91.7863 81.3676C91.6918 81.1446 91.6432 80.9051 91.6432 80.6631C91.6432 80.4211 91.6918 80.1815 91.7863 79.9585C91.8807 79.7355 92.019 79.5336 92.1931 79.3646C92.3671 79.1956 92.5734 79.063 92.7997 78.9746C93.0261 78.8862 93.2679 78.8437 93.511 78.8497H114.917C115.393 78.8615 115.845 79.0577 116.177 79.3965C116.509 79.7353 116.695 80.1898 116.695 80.6631C116.695 81.1364 116.509 81.5909 116.177 81.9297C115.845 82.2685 115.393 82.4647 114.917 82.4764V82.4764Z" fill="#99BBEB"/>
<path d="M130.25 102.512H78.1782C78.0394 102.512 77.902 102.485 77.7738 102.432C77.6455 102.379 77.529 102.302 77.4309 102.204C77.3328 102.107 77.2549 101.991 77.2018 101.863C77.1487 101.735 77.1213 101.599 77.1213 101.46C77.1213 101.322 77.1487 101.185 77.2018 101.058C77.2549 100.93 77.3328 100.814 77.4309 100.717C77.529 100.619 77.6455 100.541 77.7738 100.489C77.902 100.436 78.0394 100.409 78.1782 100.409H130.25C130.389 100.409 130.526 100.436 130.655 100.489C130.783 100.541 130.899 100.619 130.998 100.717C131.096 100.814 131.174 100.93 131.227 101.058C131.28 101.185 131.307 101.322 131.307 101.46C131.307 101.599 131.28 101.735 131.227 101.863C131.174 101.991 131.096 102.107 130.998 102.204C130.899 102.302 130.783 102.379 130.655 102.432C130.526 102.485 130.389 102.512 130.25 102.512V102.512Z" fill="#99BBEB"/>
<path d="M130.25 107.402H78.1782C77.8979 107.402 77.6291 107.291 77.4309 107.094C77.2327 106.897 77.1213 106.629 77.1213 106.35C77.1213 106.071 77.2327 105.804 77.4309 105.607C77.6291 105.409 77.8979 105.299 78.1782 105.299H130.25C130.531 105.299 130.799 105.409 130.998 105.607C131.196 105.804 131.307 106.071 131.307 106.35C131.307 106.629 131.196 106.897 130.998 107.094C130.799 107.291 130.531 107.402 130.25 107.402V107.402Z" fill="#99BBEB"/>
<path d="M130.25 112.293H78.1782C77.9038 112.285 77.6435 112.17 77.4525 111.973C77.2615 111.777 77.1547 111.514 77.1547 111.241C77.1547 110.968 77.2615 110.705 77.4525 110.509C77.6435 110.312 77.9038 110.198 78.1782 110.189H130.25C130.525 110.198 130.785 110.312 130.976 110.509C131.167 110.705 131.274 110.968 131.274 111.241C131.274 111.514 131.167 111.777 130.976 111.973C130.785 112.17 130.525 112.285 130.25 112.293V112.293Z" fill="#99BBEB"/>
<path d="M122.967 64.5623H85.4606C85.0133 64.5623 84.5844 64.3854 84.2681 64.0706C83.9518 63.7558 83.7741 63.3289 83.7741 62.8837V28.4855C83.7741 28.0403 83.9518 27.6134 84.2681 27.2986C84.5844 26.9838 85.0133 26.8069 85.4606 26.8069H122.967C123.414 26.8069 123.843 26.9838 124.159 27.2986C124.475 27.6134 124.653 28.0403 124.653 28.4855V62.8882C124.652 63.3326 124.474 63.7584 124.158 64.0722C123.841 64.386 123.413 64.5623 122.967 64.5623V64.5623ZM85.4606 27.9304C85.3115 27.9304 85.1685 27.9894 85.0631 28.0943C84.9577 28.1992 84.8985 28.3415 84.8985 28.4899V62.8882C84.8985 63.0366 84.9577 63.1789 85.0631 63.2838C85.1685 63.3888 85.3115 63.4477 85.4606 63.4477H122.967C123.116 63.4477 123.259 63.3888 123.364 63.2838C123.47 63.1789 123.529 63.0366 123.529 62.8882V28.4855C123.529 28.3371 123.47 28.1948 123.364 28.0898C123.259 27.9849 123.116 27.926 122.967 27.926L85.4606 27.9304Z" fill="#99BBEB"/>
<path d="M86.3556 87.2065L87.4418 89.3964L89.8692 89.7466L88.113 91.452L88.5279 93.8579L86.3556 92.7221L84.1845 93.8579L84.5983 91.452L82.842 89.7466L85.2695 89.3964L86.3556 87.2065Z" fill="#99BBEB"/>
<path d="M95.2492 87.2065L96.3354 89.3964L98.7628 89.7466L97.0066 91.452L97.4215 93.8579L95.2492 92.7221L93.0781 93.8579L93.493 91.452L91.7357 89.7466L94.1642 89.3964L95.2492 87.2065Z" fill="#99BBEB"/>
<path d="M104.143 87.2065L105.229 89.3964L107.658 89.7466L105.9 91.452L106.315 93.8579L104.143 92.7221L101.972 93.8579L102.387 91.452L100.629 89.7466L103.058 89.3964L104.143 87.2065Z" fill="#99BBEB"/>
<path d="M113.038 87.2065L114.123 89.3964L116.551 89.7466L114.794 91.452L115.209 93.8579L113.038 92.7221L110.865 93.8579L111.28 91.452L109.523 89.7466L111.951 89.3964L113.038 87.2065Z" fill="#99BBEB"/>
<path d="M122.072 87.2065L123.158 89.3964L125.586 89.7466L123.829 91.452L124.244 93.8579L122.072 92.7221L119.901 93.8579L120.315 91.452L118.558 89.7466L120.987 89.3964L122.072 87.2065Z" fill="#99BBEB"/>
<path d="M244.074 122.381H158.402C157.887 122.381 157.47 122.797 157.47 123.309V124.7C157.47 125.212 157.887 125.628 158.402 125.628H244.074C244.588 125.628 245.006 125.212 245.006 124.7V123.309C245.006 122.797 244.588 122.381 244.074 122.381Z" fill="#2E5B9A"/>
<path d="M266.132 78.8732C267.293 82.9453 264.458 87.1427 261.335 88.0245C258.211 88.9063 255.983 86.1389 254.822 82.0658C253.662 77.9926 255.252 73.9765 258.375 73.0947C261.499 72.2129 264.971 74.7989 266.132 78.8732Z" fill="#F09959"/>
<path d="M248.622 157.797C248.622 157.797 256.626 170.17 257.708 170.707C258.789 171.244 261.491 171.378 260.477 173.392C259.463 175.407 259.058 183.345 258.116 183.748C257.173 184.151 249.062 185.091 250.278 183.748C251.493 182.405 252.242 183.076 252.856 180.655C253.47 178.233 254.332 173.662 253.183 172.72C252.034 171.778 245.005 163.312 245.005 163.312L248.622 157.797Z" fill="#F09959"/>
<path d="M208.336 163.11C208.336 163.11 198.607 179.07 196.805 180.505C195.003 181.939 189.057 184.086 193.922 184.449C198.787 184.813 201.129 182.836 204.192 181.939C207.255 181.043 211.039 180.505 209.598 178.173C208.156 175.841 208.754 170.753 211.862 167.525C214.97 164.298 208.336 163.11 208.336 163.11Z" fill="#F09959"/>
<path d="M257.989 126.101C257.989 126.101 233.903 125.474 224.354 133.274C218.768 141.702 205.256 166.57 204.204 169.306C204.925 170.023 208.979 171.32 210.782 171.139C216.097 164.831 223.123 159.378 225.917 154.43C229.359 148.333 230.421 145.284 236.006 144.746C241.592 144.208 254.205 142.415 257.989 142.415C261.772 142.415 257.989 126.101 257.989 126.101Z" fill="#6791C9"/>
<path d="M278.993 184.493H277.73L268.677 146.899H271.454L278.993 184.493Z" fill="#2E5B9A"/>
<path d="M241.172 184.493H242.434L252.823 145.569H250.046L241.172 184.493Z" fill="#2E5B9A"/>
<path d="M271.71 124.459L257.708 126.865C257.708 126.865 239.098 127.035 230.593 128.612C222.854 130.047 221.71 138.795 230.593 150.848C235.637 157.694 239.901 163.157 248.622 169.311C250.84 167.691 251.689 167.073 252.302 163.177C251.671 162.315 250.037 156.925 249.53 155.87C244.706 145.835 238.268 142.186 238.174 141.197C239.256 139.45 266.81 150.311 272.288 143.922C277.523 137.82 271.71 124.459 271.71 124.459Z" fill="#75A1DE"/>
<path d="M272.291 92.9078C268.604 92.392 264.848 93.0902 261.335 95.6214C258.265 98.7356 254.792 103.871 255.005 112.343C255.274 123.102 253.332 123.792 255.359 126.751C263.813 130.22 278.271 145.153 274.866 129.15C272.401 117.562 280.273 108.924 273.923 96.0701C273.406 95.0239 272.759 94.0089 272.291 92.9078Z" fill="#F37168"/>
<path d="M255.002 116.391C254.838 122.001 254.042 123.653 254.65 125.412C258.097 125.762 264.401 127.134 265.976 129.328C267.775 131.838 269.581 132.197 268.74 130.344C267.899 128.491 265.676 125.861 269.099 116.836C272.523 107.81 274.144 101.712 270.786 95.4357L255.002 116.391Z" fill="#D54A41"/>
<path d="M272.291 92.9078C270.021 87.5567 269.464 81.5454 269.464 81.5454L263.517 83.2933C263.517 83.2933 266.896 90.8253 263.653 93.5143C262.845 94.1768 262.071 94.8801 261.335 95.6214C264.848 93.0902 268.604 92.392 272.291 92.9078Z" fill="#F09959"/>
<path d="M269.642 82.9677C269.291 82.6555 268.855 82.2672 268.387 81.8599L263.534 83.2877L263.524 83.3146C263.636 83.5809 264.873 86.4478 265.038 89.2084C266.483 88.3367 268.066 86.9133 269.873 84.428C269.781 83.8763 269.703 83.3851 269.642 82.9677Z" fill="#E38540"/>
<path d="M268.112 94.5908C261.988 96.7169 262.667 103.142 257.032 112.607C254.109 117.508 251.41 117.434 251.41 117.434C246.358 117.408 241.312 117.091 236.297 116.482C231.114 115.852 230.787 117.387 234.385 118.668C241.652 121.255 249.194 124.04 255.274 123.368C261.355 122.697 271.756 107.255 272.291 103.235C273.034 97.6782 271.196 93.5166 268.112 94.5908Z" fill="#F09959"/>
<path d="M264.958 148.465C264.577 148.465 264.188 148.465 263.788 148.451C258.797 148.329 255.399 147.642 252.67 147.089C249.483 146.444 247.723 146.09 245.684 147.061C245.497 147.154 245.293 147.209 245.084 147.223C244.876 147.237 244.666 147.209 244.469 147.141C244.271 147.074 244.089 146.968 243.933 146.829C243.777 146.691 243.65 146.523 243.56 146.335C243.47 146.147 243.418 145.944 243.408 145.736C243.398 145.528 243.429 145.32 243.501 145.125C243.572 144.929 243.682 144.75 243.824 144.597C243.965 144.444 244.136 144.321 244.327 144.234C247.321 142.81 249.828 143.317 253.297 144.018C255.905 144.547 259.152 145.203 263.866 145.319C269.141 145.45 272.357 144.671 273.985 142.871C275.437 141.268 275.862 138.574 275.323 134.395C275.138 132.964 274.953 131.774 274.79 130.725C274.33 127.763 274.025 125.801 274.402 122.78C274.752 119.971 275.686 116.23 277.851 108.975C277.91 108.777 278.008 108.594 278.138 108.434C278.269 108.274 278.429 108.142 278.611 108.044C278.793 107.946 278.993 107.885 279.198 107.863C279.404 107.842 279.612 107.862 279.81 107.92C280.008 107.979 280.193 108.076 280.353 108.206C280.514 108.336 280.647 108.496 280.745 108.677C280.844 108.858 280.905 109.056 280.926 109.261C280.948 109.466 280.928 109.673 280.869 109.87C276.835 123.39 277.04 124.706 277.901 130.248C278.067 131.317 278.255 132.527 278.445 133.998C279.111 139.152 278.437 142.64 276.323 144.972C274.149 147.372 270.617 148.465 264.958 148.465Z" fill="#2E5B9A"/>
<path d="M209.003 176.561C202.547 179.704 199.072 181.505 197.002 181.333C196.514 181.293 196.109 181.243 195.765 181.19C193.462 182.545 189.787 184.145 193.922 184.449C198.787 184.809 201.129 182.836 204.192 181.939C207.255 181.043 211.039 180.505 209.598 178.173C209.305 177.675 209.104 177.129 209.003 176.561Z" fill="#D54A41"/>
<path d="M258.411 170.97C258.253 176.057 257.55 181.098 254.424 182.048C253.698 182.276 252.931 182.345 252.176 182.248C251.683 182.854 251.084 182.86 250.278 183.75C249.062 185.093 257.17 184.154 258.116 183.75C259.061 183.346 259.465 175.412 260.477 173.395C261.31 171.74 259.635 171.354 258.411 170.97Z" fill="#D54A41"/>
<path d="M233.543 122.826H213.034C212.734 122.826 212.44 122.74 212.187 122.58C211.934 122.419 211.732 122.19 211.606 121.919L203.318 104.166C203.148 103.79 203.134 103.363 203.278 102.976C203.423 102.59 203.714 102.276 204.09 102.102C204.466 101.928 204.895 101.909 205.285 102.048C205.675 102.187 205.994 102.474 206.173 102.846L214.043 119.692H233.549C233.966 119.692 234.367 119.857 234.662 120.151C234.957 120.445 235.123 120.843 235.123 121.259C235.123 121.674 234.957 122.073 234.662 122.367C234.367 122.661 233.966 122.826 233.549 122.826H233.543Z" fill="#75A1DE"/>
<path d="M237.835 116.664C233.69 116.605 229.58 114.147 227.538 114.505C225.496 114.863 218.83 119.466 219.667 119.645C220.505 119.824 225.793 117.099 225.973 117.057C226.153 117.016 227.295 118.945 230.117 119.654C232.939 120.364 230.137 117.548 238.887 120.179C244.581 121.889 237.835 116.664 237.835 116.664Z" fill="#F09959"/>
<path d="M271.682 88.0245L272.291 92.9078C272.291 92.9078 266.929 93.2256 264.26 94.7195C261.591 96.2134 257.654 100.536 257.654 100.536L260.871 95.0227L261.335 91.4956L271.682 88.0245Z" fill="#F2E5DE"/>
<path d="M269.4 94.0022C265.417 93.2592 263.574 96.812 260.992 102.61C258.409 108.407 254.001 115.45 253.121 116.358C252.242 117.265 238.346 116.358 238.346 116.358C238.346 116.358 237.926 120.363 238.346 120.842C238.767 121.321 241.17 121.259 241.17 121.259C241.17 121.259 242.131 122.023 243.031 122.628C243.932 123.232 251.56 124.368 255.104 124.189C258.648 124.01 261.89 123.711 262.37 123.172C262.85 122.634 272.529 107.81 273.124 102.49C273.718 97.1701 271.432 94.3815 269.4 94.0022Z" fill="#F2E5DE"/>
<path d="M257.654 69.6146C250.12 69.9726 251.302 81.2522 251.302 81.2522C251.302 81.2522 253.259 81.8532 257.358 81.1806C257.043 79.9699 257.178 76.8769 257.178 76.8769C257.178 76.8769 257.654 79.3869 258.258 80.9121C259.125 81.3071 260.106 80.9568 261.772 80.5551C262.629 84.1359 265.047 85.6533 266.702 86.1714C268.533 86.7443 270.469 87.4269 272.631 86.3516C274.793 85.2762 273.605 74.2764 272.456 72.0652C270.733 68.7451 267.868 65.7741 262.913 67.343C260.428 68.1296 257.654 69.6146 257.654 69.6146Z" fill="#303C60"/>
<path d="M270.754 83.0091L273.834 87.4851C273.834 87.4851 270.421 95.9739 280.349 99.8188C288.123 102.831 287.207 108.137 283.695 113.471C280.182 118.804 285.796 123.476 285.796 123.476C285.796 123.476 286.653 117.564 294.207 116.448C304.507 114.927 307.424 101.164 299.73 94.282C293.364 88.5862 291.427 93.3028 287.117 88.1923C282.808 83.0818 274.673 86.5339 274.673 86.5339L271.691 82.2056L270.754 83.0091Z" fill="#303C60"/>
<path d="M303.274 108.145C303.226 108.145 303.18 108.133 303.138 108.11C303.097 108.086 303.062 108.052 303.038 108.012C303.014 107.971 303.001 107.924 303 107.877C302.999 107.83 303.011 107.783 303.033 107.741C305.619 103.03 303.51 97.3234 302.448 95.7769C302.335 95.6136 302.223 95.4413 302.11 95.2712C301.066 93.6497 299.766 91.6299 292.83 90.3878C291.16 90.0879 289.808 89.0998 288.376 88.0536C285.418 85.8928 282.067 83.4444 274.783 86.7801C274.718 86.8025 274.647 86.8 274.585 86.7731C274.522 86.7462 274.471 86.6968 274.443 86.6346C274.415 86.5724 274.411 86.502 274.432 86.4372C274.454 86.3724 274.498 86.3179 274.558 86.2844C282.134 82.8155 285.625 85.3646 288.705 87.6149C290.084 88.622 291.386 89.5743 292.932 89.8529C300.102 91.1376 301.477 93.2681 302.576 94.9802C302.688 95.1514 302.792 95.3159 302.9 95.4715C304.013 97.0918 306.227 103.071 303.515 108.004C303.491 108.047 303.456 108.083 303.414 108.107C303.371 108.132 303.323 108.145 303.274 108.145Z" fill="#303C60"/>
<path d="M269.11 87.597C268.574 87.5937 268.039 87.551 267.51 87.4694C264.874 87.0756 261.338 85.585 261.061 77.2149C261.058 77.1779 261.063 77.1406 261.074 77.1054C261.086 77.0701 261.105 77.0376 261.129 77.0098C261.154 76.9821 261.184 76.9596 261.218 76.9438C261.252 76.928 261.288 76.9192 261.326 76.918C261.363 76.9168 261.4 76.9232 261.435 76.9367C261.47 76.9503 261.501 76.9707 261.528 76.9968C261.554 77.0229 261.575 77.0541 261.589 77.0885C261.603 77.123 261.61 77.1598 261.609 77.197C261.721 80.6469 262.411 83.2004 263.653 84.7849C264.596 85.9879 265.848 86.6705 267.588 86.9301C270.028 87.2938 271.645 86.845 272.394 85.5973C272.431 85.535 272.492 85.49 272.562 85.4721C272.633 85.4543 272.708 85.4651 272.77 85.5022C272.833 85.5393 272.878 85.5997 272.896 85.67C272.914 85.7403 272.903 85.8148 272.866 85.8771C272.179 87.0218 270.919 87.597 269.11 87.597Z" fill="#303C60"/>
<path d="M166.652 184.493H168.676L176.55 124.591H172.097L166.652 184.493Z" fill="#2E5B9A"/>
<path d="M235.333 184.493H233.309L225.435 124.591H229.889L235.333 184.493Z" fill="#2E5B9A"/>
<path d="M314.708 133.931C318.209 137.113 316.686 140.294 314.098 146.205C311.51 152.116 311.053 173.934 311.053 173.934L313.19 173.631C313.19 173.631 312.885 151.205 315.776 145.144C318.666 139.084 319.886 136.052 322.475 138.022C325.063 139.991 314.708 133.931 314.708 133.931Z" fill="#74B570"/>
<path d="M312.78 129.81C313.205 127.925 315.731 125.884 319.108 124.154C318.606 126.935 316.996 131.482 318.659 132.415C320.907 133.673 318.878 127.324 319.745 123.834C323.076 122.233 326.607 121.081 330.244 120.406L330.23 120.444C328.25 125.445 325.662 127.415 326.728 128.172C327.53 128.743 330.141 122.967 333.587 120.003C336.173 119.866 338.365 120.215 339.658 121.234C341.66 122.812 343.004 124.212 340.99 129.016C339.84 129.835 338.349 130.421 336.618 130.594C332.051 131.048 329.919 131.2 333.117 132.72C334.682 133.462 337.306 132.677 339.434 132.201C338.744 133.466 337.895 134.899 336.864 136.531C336.252 137.508 335.535 138.417 334.728 139.241C333.256 139.522 331.972 139.526 331.293 139.236C329.157 138.326 323.68 135.447 322.309 136.662C320.969 137.849 332.461 138.6 331.664 141.616C326.094 144.81 319.72 143.294 318.593 140.357C317.09 136.414 311.503 135.487 312.78 129.81Z" fill="#9CD499"/>
<path d="M324.299 151.357C318.209 146.81 311.966 151.054 308.77 155.902C305.573 160.751 307.856 171.661 307.856 171.661C307.856 171.661 309.073 171.661 309.073 171.207C309.073 170.753 305.724 158.327 313.642 152.72C318.594 149.213 322.168 150.901 322.624 152.569C323.081 154.236 320.645 157.269 320.645 157.269L324.299 151.357Z" fill="#74B570"/>
<path d="M310.292 142.012C316.382 142.012 318.362 151.412 316.686 156.862C315.011 162.313 312.728 172.469 312.728 172.469L311.206 170.954C311.206 170.954 316.992 156.71 315.622 150.346C314.251 143.983 310.899 142.921 310.293 142.921C309.687 142.921 310.292 142.012 310.292 142.012Z" fill="#9CD499"/>
<path d="M315.4 156.904C315.818 156.335 316.368 155.874 317.002 155.561C316.922 156 316.816 156.433 316.686 156.86C315.923 159.346 315.034 162.805 314.292 165.837C314.224 165.449 314.121 164.85 313.954 163.928C313.916 163.704 313.887 163.472 313.865 163.222C314.494 161.146 315.006 159.036 315.4 156.904V156.904Z" fill="#74B570"/>
<path d="M317.065 156.95C328.636 152.101 322.54 145.446 332.741 149.841C333.459 150.151 334.335 150.932 335.215 152.007C334.169 152.324 333.066 152.412 331.983 152.266C328.937 151.811 330.003 154.235 335.028 154.839C335.828 154.92 336.617 155.086 337.382 155.334C339.776 159.909 340.854 165.93 335.789 168.022C334.791 168.435 333.557 168.67 332.183 168.759C330.62 167.528 332.566 160.366 330.159 161.355C327.846 162.303 330.884 167.489 330.468 168.794C328.184 168.753 325.655 168.383 323.239 167.787C322.283 167.255 321.553 166.54 321.328 165.599C320.567 162.417 325.59 160.451 325.743 157.72C325.882 155.212 323.901 163.236 318.652 164.417C313.905 162.211 311.656 159.217 317.065 156.95Z" fill="#9CD499"/>
<path d="M308.82 148.376C310.038 145.802 306.84 145.195 306.993 147.164C307.128 148.91 307.143 153.153 305.344 154.308C302.242 153.972 298.021 152.729 294.831 150.839C294.79 150.568 294.837 150.291 294.965 150.049C296.336 147.321 305.166 145.048 302.425 144.139C300.243 143.415 296.418 147.689 293.336 149.846C291.485 148.449 290.245 146.782 290.245 144.923C290.245 142.405 293.319 139.551 297.294 138.193C299.082 138.373 300.743 139.347 303.339 140.81C307.173 142.972 306.286 139.476 302.665 137.402C305.794 137.563 308.914 138.893 311.215 142.073C311.215 142.073 310.997 143.431 312.442 145.534C316.385 151.267 311.835 154.615 306.396 154.397C306.701 152.877 307.978 150.156 308.82 148.376Z" fill="#9CD499"/>
<path d="M323.933 151.1C326.91 153.389 330.218 156.067 334.277 157.885C338.336 159.704 337.525 165.63 337.525 165.63C337.525 165.63 338.133 160.512 334.75 158.76C331.367 157.009 329.134 154.922 326.563 154.517C323.991 154.112 322.57 153.709 322.57 153.709C322.57 153.709 323.382 152.093 322.907 151.487C322.433 150.88 323.933 151.1 323.933 151.1Z" fill="#74B570"/>
<path d="M338.609 124.21C327.714 127.106 319.729 134.044 318.24 135.727C316.752 137.41 316.752 137.882 316.752 137.882L317.902 140.037L318.443 139.768C318.443 139.768 317.563 137.949 319.864 135.592C323.832 131.527 328.661 128.319 331.978 126.904C335.294 125.49 338.609 124.21 338.609 124.21Z" fill="#74B570"/>
<path d="M312.697 184.23H308.537C307.116 184.23 305.752 183.668 304.747 182.668C303.742 181.667 303.177 180.31 303.177 178.896V169.377H318.057V178.896C318.057 180.31 317.492 181.667 316.487 182.668C315.482 183.668 314.119 184.23 312.697 184.23Z" fill="#75A1DE"/>
<path d="M318.056 171.079H303.175V172.122H318.056V171.079Z" fill="white"/>
<path d="M318.056 172.981H303.175V173.594H318.056V172.981Z" fill="white"/>
<path d="M37.0777 171.272H40.6272C41.3773 171.272 41.9854 170.667 41.9854 169.92V167.011C41.9854 166.264 41.3773 165.659 40.6272 165.659H37.0777C36.3275 165.659 35.7194 166.264 35.7194 167.011V169.92C35.7194 170.667 36.3275 171.272 37.0777 171.272Z" fill="#9EC8FF"/>
<path d="M25.6846 171.272H29.2342C29.9843 171.272 30.5924 170.667 30.5924 169.92V167.011C30.5924 166.264 29.9843 165.659 29.2342 165.659H25.6846C24.9345 165.659 24.3264 166.264 24.3264 167.011V169.92C24.3264 170.667 24.9345 171.272 25.6846 171.272Z" fill="#9EC8FF"/>
<path d="M14.2905 171.272H17.84C18.5902 171.272 19.1983 170.667 19.1983 169.92V167.011C19.1983 166.264 18.5902 165.659 17.84 165.659H14.2905C13.5404 165.659 12.9323 166.264 12.9323 167.011V169.92C12.9323 170.667 13.5404 171.272 14.2905 171.272Z" fill="#9EC8FF"/>
<path d="M338.519 63.1422V66.676C338.519 67.0345 338.376 67.3784 338.121 67.6319C337.867 67.8854 337.521 68.0278 337.161 68.0278H334.238C333.877 68.0278 333.532 67.8854 333.277 67.6319C333.022 67.3784 332.879 67.0345 332.879 66.676V63.1422C332.88 62.7843 333.024 62.4413 333.278 62.1886C333.533 61.9358 333.878 61.7938 334.238 61.7938H337.161C337.521 61.7935 337.866 61.9354 338.12 62.1882C338.375 62.4411 338.518 62.7842 338.519 63.1422V63.1422Z" fill="#9EC8FF"/>
<path d="M338.519 74.4811V78.0149C338.519 78.1929 338.484 78.3691 338.416 78.5335C338.347 78.6978 338.247 78.8471 338.12 78.9727C337.993 79.0983 337.843 79.1978 337.678 79.2654C337.512 79.333 337.335 79.3675 337.156 79.3667H334.233C333.874 79.3644 333.531 79.2209 333.278 78.9677C333.026 78.7144 332.884 78.3719 332.884 78.0149V74.4811C332.885 74.1248 333.027 73.7831 333.28 73.5306C333.532 73.2781 333.875 73.1351 334.233 73.1327H337.156C337.335 73.132 337.512 73.1663 337.677 73.2337C337.842 73.3011 337.992 73.4003 338.119 73.5256C338.245 73.6508 338.346 73.7997 338.415 73.9637C338.483 74.1276 338.519 74.3035 338.519 74.4811V74.4811Z" fill="#9EC8FF"/>
<path d="M338.519 85.82V89.3538C338.519 89.712 338.376 90.0556 338.122 90.3089C337.867 90.5622 337.522 90.7045 337.162 90.7045H334.239C333.878 90.7045 333.533 90.5621 333.278 90.3086C333.024 90.0551 332.88 89.7113 332.88 89.3527V85.8189C332.881 85.4613 333.025 85.1186 333.279 84.866C333.534 84.6135 333.878 84.4716 334.238 84.4716H337.161C337.521 84.4713 337.866 84.6132 338.12 84.866C338.375 85.1189 338.518 85.462 338.519 85.82Z" fill="#9EC8FF"/>
</g>
<defs>
<clipPath id="clip0_19_755">
<rect width="342" height="191" fill="white"/>
</clipPath>
</defs>
</svg>
