<svg width="148" height="148" viewBox="0 0 148 148" fill="none" xmlns="http://www.w3.org/2000/svg">
<g clip-path="url(#clip0_76_150)">
<path d="M74.0872 2.90808e-05C88.7249 0.0159543 103.029 4.37227 115.191 12.5181C127.353 20.6638 136.826 32.2332 142.412 45.763C147.998 59.2928 149.447 74.1754 146.575 88.5285C143.702 102.882 136.638 116.061 126.276 126.399C115.913 136.737 102.717 143.77 88.3575 146.609C73.9976 149.447 59.1185 147.963 45.6019 142.345C32.0853 136.727 20.5383 127.227 12.4212 115.046C4.30405 102.865 -0.0185586 88.5506 -1.53611e-06 73.9129C0.0105576 64.1948 1.93536 54.574 5.66447 45.5999C9.39358 36.6257 14.8539 28.4741 21.7337 21.6105C28.6135 14.7469 36.778 9.30576 45.7609 5.5978C54.7438 1.88984 64.3691 -0.0123048 74.0872 2.90808e-05ZM59.2563 26.2155C59.2563 24.66 59.2563 23.0911 59.2563 21.549C59.3409 20.9873 59.2449 20.4132 58.9823 19.9095C58.7196 19.4058 58.3037 18.9986 57.7947 18.7464C57.2626 18.4826 56.6616 18.3913 56.0751 18.485C55.4887 18.5787 54.9461 18.8529 54.5228 19.2694C44.8948 26.886 35.2668 34.4846 25.6388 42.0654C23.9895 43.4064 23.9493 44.9217 25.6388 46.2358C35.3205 53.9596 45.0155 61.6611 54.7239 69.3402C55.1348 69.7319 55.656 69.9882 56.217 70.0745C56.7781 70.1608 57.3521 70.073 57.8617 69.823C58.3684 69.5744 58.7837 69.1722 59.0486 68.6739C59.3134 68.1755 59.4142 67.6063 59.3368 67.0472C59.3368 63.9362 59.3368 60.8253 59.3368 57.6606C59.3368 56.6415 59.5379 56.0649 60.6777 56.0649C71.5125 56.1454 82.3474 55.9979 93.1822 56.2929C100.607 56.2904 107.77 59.0317 113.296 63.9899C115.281 65.8002 117.105 67.7713 119.036 69.6352C119.448 70.0614 119.991 70.3387 120.578 70.4236C121.165 70.5085 121.764 70.3963 122.281 70.1046C122.81 69.881 123.239 69.4707 123.487 68.9516C123.734 68.4325 123.782 67.8407 123.622 67.2886C122.763 62.9708 122.08 58.6261 120.94 54.3887C119.587 48.3728 116.288 42.9712 111.553 39.0215C106.366 35.0304 100.022 32.8326 93.4772 32.7593C86.5177 32.4509 79.5314 32.5716 72.5585 32.5313C68.6966 32.5313 64.8347 32.5313 60.9861 32.5313C59.6452 32.5313 59.1624 32.1022 59.2429 30.7613C59.3234 29.4203 59.2563 27.7576 59.2563 26.2155ZM70.5739 115.576V115.388C76.0986 115.388 81.6099 115.388 87.1346 115.388C88.3548 115.388 88.8643 115.737 88.8241 117.038C88.7437 120.256 88.8241 123.474 88.8241 126.679C88.8241 127.886 89.1728 128.985 90.3126 129.24C91.3205 129.309 92.3327 129.2 93.3029 128.918C93.4906 128.918 93.6515 128.677 93.8259 128.556L122.281 105.975C124.104 104.527 124.131 103.065 122.281 101.617C112.653 93.9376 103.007 86.2719 93.3431 78.6196C92.9289 78.2339 92.409 77.9807 91.85 77.8923C91.291 77.8039 90.7183 77.8844 90.2053 78.1234C89.6971 78.346 89.2755 78.7283 89.0044 79.2124C88.7333 79.6964 88.6276 80.2558 88.7034 80.8053C88.7034 83.9163 88.7034 87.0273 88.7034 90.1249C88.7034 91.4658 88.2476 91.8279 87.0139 91.7742C84.8684 91.7072 82.7228 91.7742 80.5773 91.7742C72.2098 91.7742 63.8424 91.8547 55.4883 91.6268C47.1342 91.3988 39.8797 88.9449 33.8454 83.152C32.2229 81.5965 30.654 79.9874 29.0851 78.3782C28.6898 77.8961 28.1388 77.5668 27.527 77.4469C26.9152 77.327 26.2808 77.4239 25.7327 77.7211C25.1575 77.9705 24.6987 78.4294 24.4497 79.0047C24.2006 79.5801 24.1799 80.2287 24.3918 80.8187C25.1427 84.6538 25.7327 88.5292 26.6982 92.3106C30.1176 105.975 38.284 113.323 52.1761 114.839C58.3311 115.576 64.4726 115.361 70.5739 115.576Z" fill="#7371FC"/>
</g>
<defs>
<clipPath id="clip0_76_150">
<rect width="148" height="148" fill="white"/>
</clipPath>
</defs>
</svg>
