<svg width="20" height="22" viewBox="0 0 20 22" fill="none" xmlns="http://www.w3.org/2000/svg">
<path d="M10.5649 5.39844H9.43753C9.33441 5.39844 9.25003 5.48282 9.25003 5.58594V12.0383C9.25003 12.0992 9.27816 12.1555 9.32738 12.1906L13.2016 15.0195C13.286 15.0805 13.4032 15.0641 13.4641 14.9797L14.1344 14.0656C14.1977 13.9789 14.1789 13.8617 14.0946 13.8031L10.7524 11.3867V5.58594C10.7524 5.48282 10.668 5.39844 10.5649 5.39844ZM15.7164 7.16094L19.3914 8.0586C19.5086 8.08672 19.6235 7.99766 19.6235 7.87813L19.6422 4.09297C19.6422 3.93594 19.4617 3.84688 19.3399 3.94532L15.6461 6.83047C15.6182 6.85207 15.597 6.8811 15.5848 6.91424C15.5727 6.94738 15.5701 6.98328 15.5775 7.0178C15.5848 7.05232 15.6017 7.08407 15.6263 7.10939C15.6509 7.13471 15.6821 7.15258 15.7164 7.16094V7.16094ZM19.6469 14.218L18.318 13.7609C18.2717 13.7451 18.221 13.7479 18.1767 13.769C18.1325 13.79 18.0982 13.8275 18.0813 13.8734C18.0367 13.993 17.9899 14.1102 17.9407 14.2273C17.5235 15.2141 16.9258 16.1023 16.1618 16.8641C15.4062 17.622 14.5107 18.2261 13.525 18.643C12.5039 19.0747 11.4063 19.2963 10.2977 19.2945C9.17738 19.2945 8.09222 19.0766 7.07034 18.643C6.08466 18.2261 5.1892 17.622 4.43363 16.8641C3.67191 16.1023 3.07425 15.2141 2.65472 14.2273C2.22538 13.2057 2.00542 12.1082 2.00784 11C2.00784 9.87969 2.22581 8.79219 2.65941 7.77032C3.07659 6.7836 3.67425 5.89532 4.43831 5.1336C5.19389 4.37567 6.08934 3.77154 7.07503 3.35469C8.09222 2.9211 9.17972 2.70313 10.3 2.70313C11.4203 2.70313 12.5055 2.9211 13.5274 3.35469C14.5131 3.77154 15.4085 4.37567 16.1641 5.1336C16.4032 5.375 16.6282 5.62578 16.8344 5.89063L18.236 4.79375C16.3914 2.43594 13.5203 0.919534 10.2953 0.921878C4.67972 0.924221 0.170345 5.48516 0.226595 11.1031C0.282845 16.6227 4.77113 21.0781 10.3 21.0781C14.6477 21.0781 18.3508 18.3219 19.7617 14.4617C19.7969 14.3633 19.7453 14.2531 19.6469 14.218V14.218Z" fill="black"/>
</svg>
