<svg width="35" height="35" viewBox="0 0 35 35" fill="none" xmlns="http://www.w3.org/2000/svg">
<path d="M4.4 35C3.16667 35 2.12533 34.5753 1.276 33.726C0.425333 32.8753 0 31.8333 0 30.6V3.19998C0 2.23332 0.45 1.55798 1.35 1.17398C2.25 0.791318 3.03333 0.933318 3.7 1.59999L8.2 6.09999L5.5 8.79998L6.9 10.2L9.6 7.49998L14.8 12.7L12.1 15.4L13.5 16.8L16.2 14.1L21.4 19.3L18.7 22L20.1 23.4L22.8 20.7L28 25.9L25.3 28.6L26.7 30L29.4 27.3L33.4 31.3C34.0667 31.9667 34.2087 32.75 33.826 33.65C33.442 34.55 32.7667 35 31.8 35H4.4ZM6 29H22.6L6 12.4V29Z" fill="#7371FC"/>
</svg>
