<svg width="46" height="46" viewBox="0 0 46 46" fill="none" xmlns="http://www.w3.org/2000/svg">
<path d="M7.14512 45.2027C-1.64164 36.1434 -3.17767 19.6909 7.37842 8.4711C17.9345 -2.74875 35.0208 -2.42874 45.2806 7.10126L41.6904 10.6843C41.2444 10.226 40.7314 9.67989 40.1966 9.15653C40.0238 8.96831 39.8092 8.82334 39.5701 8.73329C39.1427 8.60735 38.736 8.71884 38.4862 9.11937C38.2198 9.54467 38.257 9.97926 38.5894 10.3581C39.1427 10.993 39.7104 11.6134 40.2534 12.2162L36.7272 15.7394C36.3421 15.3368 35.9209 14.8939 35.4967 14.4532C35.3408 14.2921 35.187 14.13 35.0187 13.9824C34.5573 13.5757 33.972 13.5829 33.5849 13.9886C33.2164 14.3757 33.2133 14.96 33.6128 15.3863C34.0587 15.8632 34.5325 16.3154 34.994 16.7789C35.1127 16.8986 35.2273 17.0235 35.315 17.1164L31.8156 20.6262C31.2994 20.0997 30.7668 19.5413 30.2186 18.9972C29.7355 18.5172 29.1172 18.4728 28.7063 18.8672C28.28 19.2801 28.3203 19.9129 28.8189 20.4156C29.3629 20.9637 29.9172 21.5026 30.4592 22.0383L26.9143 25.5533C26.5148 25.1403 26.0792 24.6841 25.6415 24.2319C25.4856 24.0719 25.3318 23.9068 25.1615 23.7633C24.7197 23.3927 24.1354 23.4164 23.7659 23.8087C23.5899 23.9906 23.4915 24.2338 23.4915 24.4869C23.4915 24.74 23.5899 24.9832 23.7659 25.1651C24.2211 25.6585 24.7083 26.12 25.1811 26.5969C25.2998 26.7166 25.4144 26.8415 25.498 26.9303L21.9986 30.4256C21.4959 29.9157 20.957 29.3603 20.4078 28.8163C19.9216 28.3342 19.3116 28.2836 18.8966 28.6769C18.4816 29.0702 18.4992 29.6948 18.9575 30.1923C19.4809 30.759 20.0146 31.3154 20.5204 31.8512L17.0209 35.3609C16.4862 34.819 15.9236 34.2471 15.359 33.6763C14.9904 33.3046 14.5621 33.2024 14.0913 33.4461C13.5102 33.7475 13.4049 34.5186 13.8993 35.0275C14.4722 35.6169 15.0834 36.1692 15.648 36.7101L12.0928 40.2643C11.6004 39.7584 11.0709 39.2052 10.53 38.6632C10.0138 38.1471 9.40788 38.0903 8.98155 38.498C8.55522 38.9058 8.59754 39.552 9.12813 40.0836C9.65872 40.6152 10.2017 41.1417 10.7106 41.6434C9.49562 42.8563 8.31986 44.03 7.14512 45.2027ZM34.2631 7.157C34.1124 7.11261 33.9957 7.08371 33.8832 7.04552C30.4127 5.8718 26.6962 5.62275 23.1 6.32292C11.0017 8.61045 3.43821 21.0443 7.01402 32.8432C7.25971 33.6546 7.333 34.2554 6.57118 34.7674C6.43782 34.8772 6.34068 35.0247 6.29246 35.1906C6.14588 35.6221 6.23775 36.0164 6.60215 36.2993C6.96654 36.5821 7.36706 36.5718 7.73765 36.291C7.85837 36.196 7.97221 36.0925 8.0783 35.9813C17.3778 26.6894 26.6728 17.3969 35.9633 8.1036C36.0887 7.9863 36.2047 7.85928 36.3101 7.72372C36.4668 7.51533 36.5363 7.25417 36.5039 6.99545C36.4716 6.73674 36.3399 6.50075 36.1367 6.33737C35.9299 6.17814 35.6687 6.10674 35.4096 6.13862C35.1506 6.17049 34.9145 6.30308 34.7524 6.5077C34.5872 6.70486 34.4417 6.91855 34.2631 7.157Z" fill="#7371FC"/>
<path d="M34.2631 7.157C34.4417 6.91854 34.5872 6.70486 34.7524 6.50873C34.9143 6.30395 35.1503 6.17116 35.4094 6.13909C35.6684 6.10702 35.9297 6.17825 36.1367 6.33737C36.3397 6.50057 36.4714 6.73629 36.504 6.99476C36.5365 7.25323 36.4674 7.51424 36.3111 7.72269C36.2057 7.85825 36.0897 7.98527 35.9643 8.10257C26.6738 17.3931 17.3808 26.686 8.08551 35.9813C7.97941 36.0925 7.86557 36.196 7.74485 36.291C7.37014 36.5718 6.97787 36.5883 6.60935 36.2993C6.24082 36.0102 6.14998 35.6221 6.29966 35.1906C6.34788 35.0247 6.44502 34.8772 6.57838 34.7674C7.3402 34.2512 7.26691 33.6546 7.02123 32.8432C3.44541 21.0442 11.0089 8.61045 23.1072 6.32292C26.7034 5.62274 30.4199 5.87179 33.8904 7.04551C33.9957 7.08371 34.1124 7.11261 34.2631 7.157ZM8.6801 32.3075L32.4081 8.58154C25.2451 6.73892 18.8501 8.32554 13.5772 13.4838C8.23209 18.7134 6.85296 25.1692 8.6801 32.3075Z" fill="white"/>
<path d="M8.68011 32.3075C6.85401 25.1692 8.2321 18.7134 13.5772 13.4838C18.8501 8.32244 25.242 6.73893 32.4081 8.58154L8.68011 32.3075Z" fill="#7371FC"/>
</svg>
