<svg width="39" height="53" viewBox="0 0 39 53" fill="none" xmlns="http://www.w3.org/2000/svg">
<path d="M19.5656 0.0169464C22.5934 0.0169464 25.6212 -0.021183 28.6531 0.0169464C35.923 0.127098 40.6857 7.1895 38.2362 14.2222C37.5216 16.277 36.7657 18.3233 35.8817 20.3018C35.0349 22.1913 35.1465 23.7842 36.2287 25.6314C38.5361 29.5621 39.4436 34.1916 38.7966 38.7315C38.1497 43.2714 35.9882 47.4409 32.6805 50.5298C31.8747 51.3463 30.9153 51.986 29.8608 52.4099C28.8062 52.8338 27.6785 53.0331 26.5464 52.9955C21.8003 52.8981 17.0459 52.9066 12.3039 52.9955C11.2051 53.0229 10.1122 52.8224 9.09084 52.4059C8.06944 51.9895 7.14056 51.3658 6.35992 50.5722C3.04674 47.4899 0.875092 43.327 0.213314 38.7896C-0.448463 34.2523 0.440381 29.6198 2.72908 25.678C3.79892 23.8435 4.00546 22.2675 3.14215 20.3611C2.27884 18.4546 1.5725 16.4592 0.853762 14.4807C-1.7692 7.27847 3.00996 0.0974416 10.4947 0.0169464C13.5018 -0.00847318 16.5379 0.0169464 19.5656 0.0169464ZM19.5945 6.82091C16.575 6.82091 13.5514 6.77855 10.536 6.82091C7.61151 6.88022 6.06664 9.18493 7.02908 12.0234C7.56607 13.6122 8.28894 15.1373 8.80114 16.7345C9.27203 18.1962 9.93294 18.3063 11.2465 17.6793C16.7196 15.0611 22.2629 15.078 27.7361 17.6793C29.0496 18.3021 29.7188 18.1877 30.1814 16.7345C30.6688 15.2009 31.338 13.7308 31.8708 12.2099C32.9531 9.12986 31.433 6.85481 28.2441 6.81244C25.3609 6.7955 22.4777 6.82091 19.5945 6.82091ZM27.3271 32.9437C26.8232 32.0964 26.5919 31.1432 26.1127 30.9822C24.0474 30.2874 22.0316 30.584 20.3711 32.1727C18.7106 33.7614 18.3801 36.5914 19.5078 38.5996C20.6355 40.6077 23.465 41.4932 26.1168 40.5738C28.5581 39.7265 27.0091 37.5701 27.4056 36.0492C27.4676 35.8204 27.2941 35.5281 27.2156 35.2018H23.5269L23.1428 35.6891C23.6839 36.2525 24.225 36.816 25.0264 37.6421C25.0635 39.0275 24.5761 39.4173 22.961 38.7902C21.3459 38.1632 21.1931 36.799 21.3088 35.3205C21.4244 33.7741 22.2795 32.8166 23.75 32.6684C24.7207 32.5667 25.741 32.8039 27.3271 32.9437ZM18.3471 31.0754C15.0963 29.851 15.1541 33.719 13.0764 34.7655V30.8975L11.1515 30.9949V40.6882L13.1135 40.5866C13.1755 39.3156 13.2292 38.1632 13.2912 36.888C17.5953 40.6416 17.5953 40.6416 19.2021 40.2773C14.9352 37.443 15.5052 34.3333 18.3471 31.0754Z" fill="#7371FC"/>
</svg>
