<svg width="39" height="50" viewBox="0 0 39 50" fill="none" xmlns="http://www.w3.org/2000/svg">
<path d="M27.0405 20.8509V43.3906H2.56958V42.547C2.56958 30.0761 2.56958 17.6047 2.56958 5.13272C2.56958 1.99911 4.58808 0 7.73301 0H21.8738C24.9994 0 26.9823 1.93931 27.0033 5.07454C27.0324 9.33134 27.0324 13.5871 27.0033 17.8417C27.0033 18.5867 27.1504 18.8695 27.973 18.8647C30.4359 18.8469 32.1199 20.5713 32.128 23.0391C32.1393 26.3521 32.128 29.6651 32.1377 32.9781C32.1377 34.0269 32.7566 34.8349 33.6778 35.1048C34.1069 35.2369 34.5677 35.2229 34.988 35.065C35.4082 34.907 35.7642 34.6141 36.0001 34.2321C36.23 33.8394 36.3552 33.3942 36.3638 32.9393C36.3842 26.6645 36.3842 20.3887 36.3638 14.1118C36.3638 13.7885 36.2021 13.3247 35.9517 13.1502C34.2063 11.9187 33.6148 10.2557 33.9412 8.20007C34.0754 7.36293 33.7796 6.73104 33.1332 6.15733C32.3251 5.44948 32.2977 4.51052 32.9296 3.90287C33.5614 3.29522 34.4374 3.37441 35.2034 4.13721C36.2151 5.14565 37.2591 6.12339 38.2158 7.1787C38.5373 7.55861 38.7327 8.02905 38.775 8.52491C38.8558 9.59638 39.019 10.7341 38.7604 11.7458C37.8635 15.277 38.4372 18.8421 38.3338 22.3878C38.2303 25.9335 38.3241 29.4986 38.3031 33.054C38.3095 33.5892 38.2091 34.1204 38.0076 34.6163C37.8061 35.1122 37.5076 35.5629 37.1296 35.9419C36.7517 36.3209 36.3018 36.6206 35.8065 36.8235C35.3112 37.0264 34.7803 37.1283 34.2451 37.1233C32.0019 37.1233 30.2355 35.3456 30.2194 33.0362C30.1984 29.8574 30.2097 26.6785 30.2113 23.5013C30.2048 21.3858 29.2885 20.5777 27.0405 20.8509ZM14.7663 14.7275C16.6765 14.7275 18.5883 14.742 20.4985 14.7275C21.8415 14.7129 22.6706 13.9049 22.6916 12.5651C22.7218 10.6571 22.7244 8.74685 22.6997 6.83447C22.6803 5.43493 21.8722 4.62042 20.4775 4.61234C16.6829 4.59402 12.8889 4.59671 9.09538 4.62042C7.69907 4.63011 6.90718 5.46241 6.89748 6.85548C6.88456 8.71076 6.88456 10.5671 6.89748 12.4245C6.90556 13.8984 7.72492 14.7194 9.19719 14.7291C11.0525 14.7372 12.9126 14.7275 14.7663 14.7275ZM8.08047 25.5117C8.2438 25.5186 8.40685 25.4926 8.5599 25.4351C8.71294 25.3777 8.85284 25.29 8.97124 25.1772C9.08964 25.0645 9.18412 24.9291 9.24903 24.779C9.31394 24.629 9.34795 24.4674 9.34904 24.304C9.35012 24.1405 9.31826 23.9785 9.25535 23.8276C9.19244 23.6767 9.09977 23.54 8.98288 23.4257C8.86599 23.3114 8.72727 23.2219 8.575 23.1624C8.42273 23.1029 8.26004 23.0747 8.09663 23.0795C7.78156 23.0887 7.48236 23.2198 7.26201 23.4451C7.04165 23.6705 6.91734 23.9726 6.91525 24.2878C6.91315 24.603 7.03344 24.9067 7.25078 25.135C7.46812 25.3633 7.76555 25.4983 8.08047 25.5117ZM8.11925 26.3731C7.79577 26.3818 7.48823 26.5154 7.26107 26.7459C7.03391 26.9764 6.90477 27.2858 6.90072 27.6094C6.90167 27.7699 6.93493 27.9286 6.99852 28.076C7.06212 28.2234 7.15473 28.3565 7.27086 28.4674C7.38698 28.5782 7.52424 28.6645 7.67444 28.7212C7.82464 28.7779 7.98471 28.8037 8.14511 28.7972C8.45523 28.7888 8.75044 28.6623 8.97056 28.4437C9.19068 28.2251 9.31913 27.9307 9.32971 27.6207C9.32508 27.2976 9.19719 26.9885 8.97218 26.7566C8.74717 26.5246 8.44206 26.3875 8.11925 26.3731ZM8.11117 22.1922C8.27165 22.1927 8.43061 22.1613 8.57888 22.0999C8.72714 22.0385 8.86175 21.9483 8.97492 21.8345C9.08809 21.7207 9.17758 21.5856 9.2382 21.437C9.29882 21.2884 9.32938 21.1293 9.32809 20.9688C9.31512 20.6595 9.18685 20.3662 8.96852 20.1467C8.75019 19.9272 8.45761 19.7973 8.14834 19.7826C7.98799 19.7783 7.82837 19.8058 7.67866 19.8634C7.52895 19.921 7.39212 20.0077 7.27602 20.1184C7.15992 20.229 7.06685 20.3616 7.00216 20.5084C6.93748 20.6552 6.90245 20.8133 6.8991 20.9737C6.89583 21.1341 6.92489 21.2935 6.98456 21.4423C7.04423 21.5912 7.13329 21.7266 7.24641 21.8403C7.35953 21.954 7.4944 22.0438 7.64298 22.1043C7.79155 22.1647 7.95078 22.1947 8.11117 22.1922ZM35.7206 11.5034C36.2361 10.1782 35.9064 8.76732 34.8107 8.12411C35.0967 9.33295 34.2725 10.6824 35.7206 11.5034Z" fill="#7371FC"/>
<path d="M0 49.076V44.3521H29.5842V49.076H0Z" fill="#7371FC"/>
</svg>
