<svg width="34" height="40" viewBox="0 0 34 40" fill="none" xmlns="http://www.w3.org/2000/svg">
<path d="M0.00843716 19.6413C0.00843716 16.735 0.016875 13.8288 0 10.9225C0 10.4088 0.123749 10.015 0.571874 9.73566C1.27406 9.29785 1.96125 8.8366 2.6625 8.39972C6.92812 5.74097 11.1947 3.08472 15.4622 0.430973C16.3416 -0.118402 17.1647 -0.162464 18.0769 0.414098C22.935 3.47972 27.7978 6.53785 32.6953 9.53972C33.5137 10.0413 33.795 10.5578 33.7697 11.5085C33.6928 14.3341 33.7425 17.1635 33.7425 19.9919C33.7425 22.7885 33.7294 25.585 33.7491 28.3825C33.7556 29.3641 33.39 30.07 32.5387 30.5903C27.7575 33.5097 22.9866 36.4535 18.2091 39.3822C17.3653 39.8997 16.5009 39.8988 15.6516 39.3738C10.8328 36.3925 6.01312 33.4128 1.1925 30.4347C0.379688 29.935 -2.86382e-08 29.2675 0.00656247 28.3132C0.0253125 25.4228 0.0131249 22.5316 0.0131249 19.6413H0.00843716ZM3.80719 14.8713C3.79688 15.026 3.7875 15.101 3.7875 15.1769C3.7875 19.2069 3.78469 23.2382 3.77906 27.2707C3.77906 27.5791 3.92531 27.7066 4.15406 27.8444C7.54656 29.9132 10.9403 31.9863 14.3353 34.0638C14.4628 34.1416 14.5978 34.2053 14.7694 34.2972C14.7825 34.1707 14.7966 34.0975 14.7966 34.0254C14.7966 30.011 14.7966 25.9966 14.8059 21.9822C14.8059 21.6653 14.64 21.5482 14.4216 21.4132C11.0359 19.3225 7.65125 17.2288 4.2675 15.1319C4.13344 15.0532 4.00125 14.9828 3.8025 14.8713H3.80719ZM18.7819 34.3647C18.9534 34.2775 19.0631 34.2307 19.1644 34.1678C22.6019 32.0353 26.0372 29.9035 29.4703 27.7722C29.7366 27.6082 29.8041 27.4188 29.8031 27.1263C29.795 23.1888 29.7928 19.2513 29.7966 15.3138C29.7966 15.1844 29.7759 15.055 29.7619 14.8816C29.5744 14.9885 29.4356 15.0588 29.3044 15.1403C25.9294 17.2253 22.5559 19.3082 19.1841 21.3888C18.8756 21.5763 18.7725 21.7778 18.7734 22.1332C18.7866 26.0388 18.7819 29.9453 18.7819 33.8519V34.3647ZM27.9881 11.261C26.7788 10.511 25.6331 9.81441 24.5053 9.09066C24.24 8.92097 24.0581 8.93128 23.7966 9.09066C20.3184 11.265 16.8359 13.4332 13.3491 15.595C13.2403 15.6625 13.1409 15.7441 13.0041 15.8416C14.175 16.5485 15.3019 17.215 16.4128 17.9041C16.6875 18.0747 16.8816 18.0775 17.1628 17.9041C19.7484 16.3047 22.3444 14.7222 24.9366 13.1341C25.9312 12.5247 26.925 11.9135 27.9881 11.261ZM5.59406 11.261C6.71062 11.9482 7.77656 12.5903 8.82469 13.2597C9.09094 13.4303 9.27281 13.4116 9.53156 13.2503C12.5884 11.3447 15.6509 9.44628 18.7191 7.55503L20.3503 6.54253C19.3716 5.93785 18.4163 5.40722 17.5294 4.77816C16.9866 4.39285 16.6125 4.43128 16.0594 4.77816C12.6131 6.94753 9.13969 9.0691 5.59406 11.2582V11.261Z" fill="#7371FC"/>
</svg>
