<svg width="48" height="47" viewBox="0 0 48 47" fill="none" xmlns="http://www.w3.org/2000/svg">
<path d="M48 26.4533C47.8528 26.9589 47.7269 27.4731 47.5563 27.9723C46.3723 31.4176 42.9077 33.4379 39.1893 32.864C35.84 32.3456 33.0795 29.1989 33.0667 25.8133C33.0788 25.2851 33.1753 24.7623 33.3525 24.2645C35.0229 19.2213 36.7125 14.1845 38.4555 8.96426H35.84C33.6021 8.96426 31.36 8.9792 29.1243 8.9536C28.5397 8.9536 28.2283 9.1136 27.8784 9.64053C27.4027 10.3531 26.6411 10.8693 26.0352 11.4987C25.7963 11.744 25.472 12.0725 25.472 12.3627C25.44 18.0864 25.4485 23.808 25.4549 29.5296C25.4675 29.6628 25.4939 29.7944 25.5339 29.9221C27.8443 30.4661 28.448 31.2469 28.4501 33.6576C28.4501 35.3941 28.4501 37.1307 28.4501 39.0229C29.696 39.0229 30.8501 39.04 32.0043 39.0229C34.0928 38.9867 35.5157 39.9915 36.3776 41.8261C36.7429 42.6366 37.062 43.4671 37.3333 44.3136C37.76 45.5936 37.12 46.4832 35.7355 46.5003C33.7792 46.5237 31.8251 46.5003 29.8709 46.5003H12.5867C10.7883 46.5003 10.208 45.7131 10.7371 44.0043C10.9248 43.3941 11.1061 42.784 11.3152 42.1803C12.0171 40.1941 13.6533 39.04 15.7739 39.04C16.9792 39.04 18.1824 39.04 19.5413 39.04V33.664C19.5413 31.2555 20.1515 30.464 22.496 29.92C22.5109 29.6277 22.5451 29.3163 22.5451 29.0048C22.5451 23.5669 22.5451 18.1248 22.5621 12.6912C22.5621 12.0405 22.368 11.7056 21.8005 11.3621C21.1861 10.9867 20.5205 10.4576 20.2325 9.83467C19.84 9.00267 19.2917 8.96 18.56 8.96C15.6117 8.98133 12.6635 8.96 9.5808 8.96C10.3403 11.264 11.0741 13.4763 11.7995 15.6864C12.6841 18.3431 13.5744 20.9977 14.4704 23.6501C15.5648 26.9013 14.2421 30.2891 11.2085 31.9936C10.1999 32.5661 9.07238 32.8971 7.91436 32.9607C6.75634 33.0243 5.59933 32.8187 4.5341 32.3601C3.46887 31.9014 2.52438 31.2022 1.77473 30.3173C1.02507 29.4324 0.49063 28.3859 0.213333 27.2597C0.1472 26.9888 0.0661333 26.7221 0 26.4533V24.96C0.139278 24.7213 0.261882 24.4732 0.366934 24.2176C2.22933 18.6453 4.1088 13.0795 5.9136 7.49227C6.26987 6.3872 6.87787 5.97333 7.99573 5.98613C11.4731 6.02027 14.9504 5.98613 18.4277 6.01173C19.2555 6.01173 19.8528 5.93707 20.2859 5.0624C20.5781 4.4736 21.2096 3.968 21.8069 3.63733C22.4043 3.30666 22.624 2.93974 22.5451 2.30187C22.4299 1.37387 22.6005 0.546133 23.4603 0H24.5269C25.3909 0.544 25.5552 1.37387 25.4421 2.30187C25.3653 2.94187 25.5957 3.2896 26.1781 3.63947C26.8463 4.0327 27.408 4.58348 27.8144 5.24373C28.1856 5.88373 28.5845 6.01387 29.2395 6.0096C32.8661 5.98614 36.4779 6.0096 40.096 5.98827C41.1285 5.98827 41.7195 6.38294 42.0437 7.38987C43.264 11.1616 44.5291 14.9184 45.7984 18.6731C46.5067 20.7744 47.2661 22.8651 48 24.96V26.4533ZM11.4219 23.9808L7.49867 12.2027L3.58187 23.9808H11.4219ZM44.4331 23.9979C43.1189 20.0619 41.8581 16.2859 40.4971 12.2048L36.576 23.9979H44.4331ZM33.7451 43.4645C33.5723 42.5067 33.0603 42.0032 32.0917 42.0032C26.6603 42.0032 21.2288 42.0032 15.7973 42.0032C14.8267 42.0032 14.3232 42.5024 14.0715 43.4688L33.7451 43.4645ZM3.34507 27.0165C4.032 28.9237 5.84747 30.1397 7.67573 30.0331C9.5488 29.9221 11.1957 28.6656 11.5925 27.0165H3.34507ZM36.3029 27.0165C37.1093 28.9856 38.9397 30.1888 40.7509 30.0309C42.6453 29.8645 44.2496 28.6165 44.5547 27.0165H36.3029ZM22.5109 33.0453V38.9525H25.4741V33.0453H22.5109ZM22.4768 7.392C22.455 7.7877 22.5881 8.17632 22.8479 8.4756C23.1077 8.77488 23.4737 8.96131 23.8686 8.99541C24.2634 9.02951 24.656 8.90861 24.9632 8.65831C25.2705 8.40801 25.4683 8.04797 25.5147 7.6544C25.5418 7.24363 25.4066 6.83862 25.138 6.52659C24.8695 6.21456 24.4892 6.02047 24.0789 5.98613C23.685 5.97985 23.3029 6.12028 23.0068 6.38012C22.7107 6.63995 22.5218 7.00062 22.4768 7.392Z" fill="#7371FC"/>
</svg>
