<svg width="43" height="44" viewBox="0 0 43 44" fill="none" xmlns="http://www.w3.org/2000/svg">
<path d="M20.9955 43.038C9.37947 43.0309 -0.00788537 33.6126 4.9704e-06 21.9699C0.0057434 10.3436 9.41461 0.953365 21.0507 0.961981C32.6581 0.968443 42.0412 10.3968 42.034 22.0438C42.0211 33.6434 32.6043 43.038 20.9955 43.038ZM3.38424 22C3.38424 31.7077 11.3018 39.6411 20.9969 39.6468C30.7157 39.6519 38.6426 31.7235 38.6426 21.9986C38.6426 12.2895 30.7257 4.35607 21.0306 4.35104C11.3133 4.34458 3.38424 12.2744 3.38424 22Z" fill="#7371FC"/>
<path d="M19.3112 16.0067C19.3112 14.0451 19.3055 12.0827 19.3112 10.1189C19.317 8.76186 20.6081 7.91818 21.7709 8.50983C22.4494 8.85592 22.7163 9.44326 22.7148 10.1914C22.7148 13.6846 22.7184 17.1778 22.7048 20.6746C22.7048 21.0142 22.8102 21.2095 23.0835 21.4026C25.4349 23.0656 27.778 24.7381 30.1131 26.4202C31.0492 27.0922 31.146 28.3466 30.3369 29.089C29.7272 29.6484 28.8758 29.6979 28.1642 29.1932C26.3164 27.8777 24.4703 26.5585 22.6259 25.2354C21.7996 24.6452 20.9804 24.0442 20.1455 23.4669C19.5616 23.0634 19.3062 22.5199 19.3084 21.8205C19.3163 19.8826 19.3112 17.9446 19.3112 16.0067Z" fill="#7371FC"/>
</svg>
