<svg width="63" height="36" viewBox="0 0 63 36" fill="none" xmlns="http://www.w3.org/2000/svg">
<path d="M39.5089 15.0507C38.2592 14.6158 37.1103 14.1352 35.9201 13.8147C34.7299 13.4943 33.526 13.357 32.2855 13.1144V0.169018C37.0695 0.325706 41.7536 1.57857 45.977 3.83107L39.5089 15.0507Z" fill="#7371FC"/>
<path d="M30.1889 0.173599V13.183C27.6907 13.3436 25.25 14.0036 23.0113 15.1239C20.8324 11.352 18.6764 7.61672 16.4883 3.83565C20.7173 1.58908 25.403 0.336639 30.1889 0.173599Z" fill="#7371FC"/>
<path d="M4.70569 14.9179C6.56418 11.5031 11.4255 6.67831 14.7489 4.90222L21.2444 16.1447C19.1507 17.5328 17.3573 19.3277 15.9711 21.4226L4.70569 14.9179Z" fill="#7371FC"/>
<path d="M3.66205 16.6711C7.44312 18.8592 11.1784 21.0152 14.9503 23.1896C13.8405 25.4209 13.1898 27.8523 13.0369 30.3397H0C0.156921 25.5631 1.40987 20.8864 3.66205 16.6711Z" fill="#7371FC"/>
<path d="M62.4699 30.3535H49.4651C49.2939 27.8635 48.6279 25.4327 47.5059 23.2033L58.7713 16.6986C61.0317 20.9077 62.297 25.579 62.4699 30.3535Z" fill="#7371FC"/>
<path d="M46.5171 21.3998C46.1143 20.8688 45.7206 20.3881 45.3819 19.8709C45.3592 19.7792 45.3581 19.6835 45.3788 19.5913C45.3994 19.4992 45.4412 19.4131 45.5009 19.3399C46.9657 17.5821 48.4534 15.8472 49.9228 14.094C50.1342 13.8428 50.3226 13.5732 50.4859 13.2883C50.6043 13.1323 50.6622 12.9387 50.6489 12.7434C50.6355 12.548 50.5519 12.364 50.4134 12.2255C50.2749 12.0871 50.091 12.0034 49.8956 11.9901C49.7002 11.9768 49.5066 12.0347 49.3506 12.1531C48.783 12.5467 48.2291 12.9679 47.6981 13.4119C46.128 14.7302 44.5762 16.0669 42.9878 17.4219L41.2346 16.1218C43.4044 12.3728 45.565 8.62836 47.7485 4.84729C51.8114 7.39484 55.2362 10.84 57.7596 14.9179L46.5171 21.3998Z" fill="#7371FC"/>
<path d="M49.932 12.913C49.3003 13.6866 48.6731 14.4693 48.0277 15.2292C45.0096 18.76 41.9914 22.2893 38.9733 25.8171C37.9296 27.0393 36.9042 28.2798 35.856 29.5021C35.7568 29.6043 35.687 29.7314 35.6539 29.8699C35.6209 30.0085 35.6259 30.1534 35.6683 30.2894C35.8225 30.9117 35.8443 31.5595 35.7323 32.1907C35.6202 32.822 35.3768 33.4227 35.0178 33.9539C34.6588 34.4851 34.1923 34.9349 33.6483 35.2743C33.1044 35.6137 32.4952 35.835 31.8603 35.924C31.2254 36.0129 30.5788 35.9675 29.9626 35.7907C29.3463 35.6139 28.7741 35.3095 28.2829 34.8974C27.7918 34.4854 27.3927 33.9747 27.1114 33.3985C26.8302 32.8224 26.6732 32.1935 26.6505 31.5528C26.6339 30.8581 26.7756 30.1688 27.065 29.5371C27.3544 28.9054 27.7838 28.3478 28.3206 27.9067C28.8575 27.4656 29.4877 27.1524 30.1636 26.991C30.8394 26.8297 31.5431 26.8243 32.2214 26.9752C32.398 27.034 32.5874 27.0424 32.7685 26.9995C32.9496 26.9567 33.1152 26.8642 33.2467 26.7326C38.3004 22.4114 43.3632 18.0963 48.4351 13.7873C48.8608 13.4256 49.3186 13.1006 49.7626 12.7619L49.932 12.913ZM33.3475 31.4292C33.3536 30.8667 33.1363 30.3247 32.7432 29.9222C32.3501 29.5197 31.8135 29.2896 31.2509 29.2823C30.9708 29.2805 30.6931 29.3339 30.4336 29.4394C30.1741 29.545 29.9379 29.7006 29.7385 29.8974C29.3359 30.2949 29.1077 30.836 29.1041 31.4017C29.1004 31.9675 29.3217 32.5115 29.7191 32.9141C30.1166 33.3167 30.6577 33.545 31.2235 33.5486C31.5024 33.5498 31.7787 33.4959 32.0367 33.3898C32.2946 33.2838 32.529 33.1278 32.7264 32.9308C32.9238 32.7338 33.0803 32.4998 33.1869 32.242C33.2935 31.9843 33.3481 31.7081 33.3475 31.4292Z" fill="#7371FC"/>
</svg>
