<svg width="47" height="47" viewBox="0 0 47 47" fill="none" xmlns="http://www.w3.org/2000/svg">
<path d="M32.2879 15.8045C32.2879 18.658 32.267 21.5093 32.3109 24.369C32.3135 24.8347 32.4918 25.2823 32.8101 25.6223C36.6307 28.9771 38.0512 34.2891 36.2965 38.8784C34.4562 43.6828 29.9818 46.7076 24.8076 46.6282C19.8569 46.5509 15.5977 43.4217 13.9454 38.6528C13.1749 36.4035 13.1137 33.9717 13.7701 31.6865C14.4265 29.4012 15.7688 27.3727 17.6156 25.8751C17.8784 25.6871 18.0884 25.4346 18.2252 25.1419C18.3621 24.8492 18.4212 24.5262 18.3968 24.204C18.3648 18.6726 18.3606 13.1412 18.3843 7.60982C18.4031 2.80537 22.5328 -0.509691 27.0657 0.620398C30.1719 1.39329 32.2566 4.14644 32.2879 7.57013C32.3067 10.3087 32.2879 13.0556 32.2879 15.8045ZM21.7077 13.5068C22.6519 13.5068 23.4895 13.4399 24.3084 13.5381C24.6551 13.582 24.9601 13.9726 25.2839 14.2065C24.9622 14.4823 24.6572 14.9439 24.3105 14.994C23.4749 15.111 22.5934 15.0316 21.7453 15.0316V16.6276C22.6289 16.6276 23.4352 16.5524 24.2165 16.661C24.5966 16.7132 25.1794 17.0662 25.2337 17.3628C25.357 18.0522 24.7533 18.1629 24.1893 18.1629H21.7119V20.0429C22.5913 20.0429 23.4269 19.9635 24.2373 20.0784C24.6133 20.1306 25.1711 20.4962 25.2358 20.82C25.3653 21.4466 24.7825 21.5699 24.2603 21.574C23.4248 21.574 22.6059 21.574 21.7223 21.574V23.1867C22.6164 23.1867 23.4561 23.1094 24.2687 23.2243C24.6342 23.2744 24.9476 23.711 25.2839 23.9721C24.9371 24.2207 24.6113 24.6322 24.2394 24.6823C23.4289 24.793 22.5913 24.7178 21.5824 24.7178C21.879 26.2156 21.7411 27.4689 20.1452 28.0893C21.5134 28.2 22.7835 28.2104 24.0514 28.1958C24.699 28.1958 25.3048 28.2627 25.2755 29.0899C25.2525 29.8544 24.6614 29.8941 24.0661 29.8899C22.3949 29.8899 20.7238 29.915 19.0527 29.8669C18.401 29.8481 18.0459 30.0967 17.7409 30.6377C16.7706 32.3422 16.4075 34.3255 16.7111 36.2631C17.2584 40.2069 21.2962 43.6056 25.2505 43.3883C29.1337 43.1794 32.478 40.6184 33.3971 37.1592C34.3162 33.7 33.3073 29.5682 29.6371 27.3874C29.3217 27.1994 29.0627 26.6417 29.0522 26.249C28.9979 24.0577 29.0251 21.8623 29.0251 19.6732C29.0251 15.6019 29.0418 11.5265 29.0251 7.45733C29.0125 5.49378 27.7007 3.98351 25.8917 3.74747C24.0117 3.50098 22.1902 4.56213 21.833 6.37947C21.6074 7.53253 21.7913 8.76706 21.7913 10.0371C22.6519 10.0371 23.4937 9.95564 24.2979 10.0726C24.6593 10.1248 24.9601 10.5781 25.2901 10.8497C24.9726 11.0899 24.676 11.4993 24.3355 11.539C23.4874 11.6393 22.6185 11.5724 21.7119 11.5724L21.7077 13.5068Z" fill="#7371FC"/>
<path d="M25.0667 33.6729C26.6291 33.6729 28.2 33.7042 29.7562 33.6583C30.4372 33.6374 30.6544 33.9152 30.7422 34.5377C31.1955 37.7817 29.0418 40.6686 25.8145 41.1031C22.7522 41.5208 19.8382 39.1625 19.4914 35.9644C19.4392 35.4902 19.5708 35.0014 19.5917 34.5168C19.6209 33.8671 19.9217 33.6374 20.586 33.6583C22.0775 33.7042 23.571 33.6708 25.0667 33.6729Z" fill="#7371FC"/>
</svg>
