<svg width="48" height="47" viewBox="0 0 48 47" fill="none" xmlns="http://www.w3.org/2000/svg">
<path d="M6.34678 22.9941L4.06018 21.5875L12.8746 16.4078V27.0583L10.4471 25.5227C10.0363 26.2367 9.63853 26.9257 9.24166 27.6155C8.02696 29.7362 6.83637 31.8716 5.58273 33.9691C5.20441 34.6014 4.84093 35.2125 4.72409 35.9478C4.63137 36.5839 4.86225 37.1366 5.46589 37.3693C5.97679 37.5788 6.5202 37.6981 7.07189 37.7216C9.63296 37.7615 12.194 37.7467 14.7551 37.7485C16.0764 37.7485 17.3978 37.7541 18.7191 37.7411C18.9926 37.7411 19.0733 37.8162 19.0715 38.0925C19.0585 39.4491 19.0622 40.8048 19.0715 42.1613C19.0715 42.4284 19.0047 42.5174 18.7228 42.5165C14.9331 42.5063 11.1435 42.5165 7.35378 42.5044C5.61704 42.4979 3.96189 42.1409 2.52558 41.1089C0.529205 39.6754 -0.229287 37.692 0.0590881 35.2839C0.215794 33.9728 0.740618 32.7942 1.39433 31.6593C3.02011 28.8392 4.63755 26.0145 6.24664 23.1851C6.27539 23.135 6.30042 23.0831 6.34678 22.9941Z" fill="#7371FC"/>
<path d="M35.5487 13.1968L38.0523 11.6594V22.3172L29.0135 17.1366L31.4586 15.653C31.0071 14.8881 30.5685 14.1416 30.1262 13.397C28.7891 11.1466 27.4622 8.88967 26.1019 6.65407C25.7822 6.13104 25.3998 5.64901 24.9632 5.21868C24.3142 4.58444 23.615 4.56961 22.9567 5.19272C22.479 5.64625 22.0612 6.15883 21.7132 6.71805C20.2704 9.03989 18.8712 11.3877 17.4571 13.7271C17.4043 13.8152 17.344 13.8987 17.267 14.0146L13.1918 11.6455C13.6554 10.8684 14.0912 10.122 14.5354 9.37926C15.7 7.43203 16.8424 5.46811 18.0422 3.54221C18.7086 2.48814 19.6156 1.60723 20.6886 0.971869C23.0318 -0.448681 25.5799 -0.305884 27.7654 1.36039C28.7339 2.1034 29.5486 3.02773 30.1642 4.08187C31.8951 7.00086 33.6204 9.92325 35.3401 12.849C35.405 12.9566 35.4699 13.0642 35.5487 13.1968Z" fill="#7371FC"/>
<path d="M21.4332 40.1325L30.9394 34.1981V37.7217C31.072 37.7328 31.1722 37.7476 31.2732 37.7476C34.2516 37.7476 37.2308 37.7569 40.2092 37.7337C40.7519 37.7343 41.2918 37.655 41.8114 37.4982C42.7619 37.1968 43.1207 36.4782 42.8082 35.5333C42.6167 34.9759 42.3658 34.4405 42.0599 33.9366C40.9139 32.0042 39.7418 30.0876 38.5753 28.1645C38.5104 28.0578 38.452 27.9475 38.3741 27.8103L42.5236 25.3642C42.9325 26.0661 43.3284 26.7421 43.7216 27.4199C44.5561 28.8627 45.3517 30.3324 46.2428 31.7418C47.0773 33.0678 47.5956 34.4809 47.655 36.0387C47.7551 38.6869 46.2122 40.8956 43.6233 41.8952C42.5272 42.309 41.364 42.5162 40.1925 42.5063C37.2364 42.5106 34.2806 42.5124 31.3252 42.5118C31.212 42.5118 31.0989 42.5211 30.9487 42.5285V46.0669L21.4332 40.1325Z" fill="#7371FC"/>
</svg>
