<svg width="49" height="52" viewBox="0 0 49 52" fill="none" xmlns="http://www.w3.org/2000/svg">
<path d="M10.7608 51.1641L18.9885 29.3904H8.15747L37.3574 0.369934L29.7309 22.399H40.5559L10.8635 51.227L10.7608 51.1641Z" fill="#7371FC"/>
<path d="M33.3203 2.23045C32.3293 3.15173 31.387 4.03613 30.4289 4.90257C30.3461 4.97735 30.1447 4.97336 30.0191 4.93647C24.895 3.47753 19.4056 4.05135 14.694 6.53845C9.98245 9.02555 6.41181 13.2342 4.72565 18.2881C3.77549 21.1091 3.46322 24.1059 3.81134 27.0622C4.5402 33.3108 7.53038 38.2103 12.6353 41.8476C12.7949 41.9613 12.9474 42.0869 13.1199 42.2205L11.6742 45.4969C2.95886 40.5205 -2.96966 28.4671 1.56098 16.3458C6.50241 3.12282 21.0276 -2.68306 33.3203 2.23045Z" fill="#7371FC"/>
<path d="M16.1769 47.6904C17.1849 46.7352 18.1501 45.796 19.1471 44.8986C19.2668 44.7909 19.5709 44.8258 19.7683 44.8777C21.5606 45.367 23.4177 45.5772 25.2741 45.5008C30.7028 45.2531 35.8164 42.8805 39.5111 38.8952C43.2057 34.9099 45.185 29.6316 45.0218 24.1997C44.9032 20.2054 43.7107 16.5672 41.4952 13.2589C40.236 11.4003 38.6814 9.76011 36.8928 8.40324C36.7632 8.30353 36.6365 8.20383 36.494 8.08418C36.9925 6.95152 37.491 5.84179 37.9896 4.72708C46.7118 10.2996 51.7779 22.7848 46.7168 34.4514C41.1004 47.3773 26.8664 51.7713 16.1769 47.6904Z" fill="#7371FC"/>
</svg>
